<svg xmlns:xlink="http://www.w3.org/1999/xlink" xmlns="http://www.w3.org/2000/svg" viewBox="0 0 760 760" width="760" height="760" preserveAspectRatio="xMidYMid meet" style="width: 100%; height: 100%; transform: translate3d(0px, 0px, 0px);"><defs><clipPath id="__lottie_element_194"><rect width="760" height="760" x="0" y="0"></rect></clipPath></defs><g clip-path="url(#__lottie_element_194)"><g transform="matrix(1.090000033378601,0,0,1.090000033378601,-34.20001220703125,-4.20001220703125)" opacity="1" style="display: block;"><g opacity="1" transform="matrix(1,0,0,1,377.62298583984375,380.79400634765625)"><path fill="#D55700" fill-opacity="1" d=" M5.188000202178955,-188.66400146484375 C77.01100158691406,-190.2209930419922 216.4929962158203,-168.38499450683594 219.3939971923828,-83.66000366210938 C222.2949981689453,1.065999984741211 193.875,146.80799865722656 97.44599914550781,175.3699951171875 C23.264999389648438,197.3419952392578 -53.62699890136719,195.16600036621094 -117.02300262451172,165.10299682617188 C-180.41799926757812,135.03900146484375 -222.2949981689453,81.89700317382812 -219.2790069580078,-57.72200012207031 C-216.26400756835938,-197.3419952392578 -52.446998596191406,-187.4149932861328 5.188000202178955,-188.66400146484375z"></path></g><g opacity="1" transform="matrix(1,0,0,1,380.2179870605469,348.28900146484375)"><path fill="#C9DDFF" fill-opacity="1" d=" M-18.309999465942383,-98.5469970703125 C25.98900032043457,-99.677001953125 148.88400268554688,-102.99199676513672 193.82699584960938,-57.779998779296875 C236.04400634765625,-15.309000015258789 214.41000366210938,56.891998291015625 149.0780029296875,80.36599731445312 C86.10700225830078,102.99199676513672 10.001999855041504,102.58399963378906 -40.03499984741211,99.56900024414062 C-90.5780029296875,96.52400207519531 -194.99200439453125,80.8759994506836 -215.51800537109375,33.999000549316406 C-236.04400634765625,-12.878000259399414 -215.8820037841797,-93.50800323486328 -18.309999465942383,-98.5469970703125z"></path></g><g opacity="1" transform="matrix(1,0,0,1,268.09698486328125,251.0489959716797)"><path fill="#404040" fill-opacity="1" d=" M-46.94499969482422,68.31500244140625 C-46.94499969482422,68.31500244140625 -85.91100311279297,-31.6560001373291 -89.53600311279297,-42.83599853515625 C-93.16000366210938,-54.016998291015625 -89.2030029296875,-65.65899658203125 -75.41999816894531,-66.6520004272461 C-55.965999603271484,-68.0530014038086 24.641000747680664,-68.31500244140625 38.233001708984375,-68.31500244140625 C51.82500076293945,-68.31500244140625 57.76499938964844,-62.21200180053711 61.53799819946289,-51.292999267578125 C64.81300354003906,-41.81399917602539 93.15899658203125,43.849998474121094 93.15899658203125,43.849998474121094 C93.15899658203125,43.849998474121094 -46.94499969482422,68.31500244140625 -46.94499969482422,68.31500244140625z"></path></g><g opacity="1" transform="matrix(1,0,0,1,378.67999267578125,348.0159912109375)"><path fill="#FFB300" fill-opacity="1" d=" M65.375,-52.930999755859375 C37.909000396728516,-55.992000579833984 32.75299835205078,-23.486000061035156 -2.130000114440918,-17.711000442504883 C-27.770000457763672,-13.467000007629395 -43.22100067138672,-26.097000122070312 -62.0890007019043,-12.260000228881836 C-78.19200134277344,-0.45100000500679016 -86.76000213623047,33.516998291015625 -91.79299926757812,55.992000579833984 C-76.61000061035156,55.71699905395508 -59.858001708984375,55.46900177001953 -42.55699920654297,55.24800109863281 C-40.21500015258789,43.10499954223633 -33.27299880981445,26.242000579833984 -19.22800064086914,25.24799919128418 C-4.906000137329102,24.232999801635742 3.640000104904175,26.638999938964844 22.719999313354492,16.492000579833984 C43.32600021362305,5.5329999923706055 50.45800018310547,23.8700008392334 50.819000244140625,54.30799865722656 C65.53399658203125,54.19200134277344 79.12899780273438,54.097999572753906 90.7969970703125,54.025001525878906 C91.79299926757812,19.729000091552734 91.09400177001953,-50.064998626708984 65.375,-52.930999755859375z"></path></g><g opacity="1" transform="matrix(1,0,0,1,382.8110046386719,378.4070129394531)"><path fill="#FF7800" fill-opacity="1" d=" M18.59000015258789,-13.89900016784668 C-0.49000000953674316,-3.752000093460083 -9.036999702453613,-6.1579999923706055 -23.358999252319336,-5.14300012588501 C-37.40399932861328,-4.14900016784668 -44.34700012207031,12.71399974822998 -46.68899917602539,24.85700035095215 C-15.324999809265137,24.45599937438965 17.83300018310547,24.143999099731445 46.68899917602539,23.91699981689453 C46.327999114990234,-6.520999908447266 39.19599914550781,-24.857999801635742 18.59000015258789,-13.89900016784668z"></path></g><g opacity="1" transform="matrix(1,0,0,1,366.4309997558594,298.625)"><path fill="#FFB300" fill-opacity="1" d=" M116.33999633789062,-84.68800354003906 C73.76399993896484,-107.37200164794922 28.33300018310547,-85.20700073242188 8.0649995803833,-65.99800109863281 C-12.204000473022461,-46.78799819946289 -44.7400016784668,-50.42300033569336 -64.4749984741211,-48.8650016784668 C-84.20999908447266,-47.30799865722656 -139.39999389648438,-30.378999710083008 -164.43299865722656,76.85399627685547 C-170.34800720214844,102.19400024414062 -145.5989990234375,107.37100219726562 -136.13800048828125,106.91400146484375 C-133.58999633789062,106.79100036621094 -130.6719970703125,106.6719970703125 -127.43299865722656,106.55500030517578 C-120.8030014038086,77.2490005493164 -107.65399932861328,15.394000053405762 -78.7699966430664,-2.7019999027252197 C-43.970001220703125,-24.5049991607666 -25.60700035095215,-0.6600000262260437 6.763999938964844,-12.345000267028809 C39.88800048828125,-24.302000045776367 50.077999114990234,-48.882999420166016 85.71700286865234,-48.882999420166016 C115.86599731445312,-48.882999420166016 135.3090057373047,-11.442000389099121 139.9929962158203,103.23400115966797 C140.75999450683594,103.23200225830078 141.4149932861328,103.23100280761719 141.93899536132812,103.23100280761719 C162.20799255371094,103.23100280761719 161.6739959716797,86.61799621582031 162.20799255371094,77.27300262451172 C162.74099731445312,67.9280014038086 170.3470001220703,-55.91299819946289 116.33999633789062,-84.68800354003906z"></path></g><g opacity="1" transform="matrix(1,0,0,1,372.7120056152344,327.4620056152344)"><path fill="#FF7800" fill-opacity="1" d=" M79.43699645996094,-77.71900177001953 C43.79800033569336,-77.71900177001953 33.606998443603516,-53.13800048828125 0.48399999737739563,-41.180999755859375 C-31.88800048828125,-29.496000289916992 -50.25,-53.34000015258789 -85.0510025024414,-31.538000106811523 C-113.93399810791016,-13.442000389099121 -127.08300018310547,48.41299819946289 -133.71299743652344,77.71900177001953 C-121.61399841308594,77.28399658203125 -104.96700286865234,76.89299774169922 -85.8239974975586,76.5469970703125 C-80.79100036621094,54.071998596191406 -72.2229995727539,20.10300064086914 -56.119998931884766,8.295000076293945 C-37.25199890136719,-5.541999816894531 -21.802000045776367,7.0879998207092285 3.8380000591278076,2.8440001010894775 C38.72200012207031,-2.930999994277954 43.87699890136719,-35.4370002746582 71.34300231933594,-32.375999450683594 C97.06300354003906,-29.510000228881836 97.76100158691406,40.284000396728516 96.76499938964844,74.58000183105469 C114.4540023803711,74.47000122070312 127.70800018310547,74.41000366210938 133.71299743652344,74.39800262451172 C129.0290069580078,-40.27799987792969 109.58599853515625,-77.71900177001953 79.43699645996094,-77.71900177001953z"></path></g><g opacity="1" transform="matrix(1,0,0,1,487.8580017089844,350.7040100097656)"><path fill="#FFFFFF" fill-opacity="1" d=" M56.70600128173828,-69.6240005493164 C87.48899841308594,-51.15399932861328 84.572998046875,1.340000033378601 59.29800033569336,34.71500015258789 C34.02399826049805,68.09100341796875 -8.425000190734863,86.23699951171875 -44.71699905395508,74.24700164794922 C-73.97100067138672,64.58300018310547 -87.48899841308594,9.763999938964844 -38.560001373291016,-36.573001861572266 C-14.098999977111816,-59.73699951171875 29.018999099731445,-86.23600006103516 56.70600128173828,-69.6240005493164z"></path></g><g opacity="1" transform="matrix(1,0,0,1,464.4880065917969,355.8500061035156)"><path fill="#FFB300" fill-opacity="1" d=" M-21.614999771118164,-16.881999969482422 C-29.92799949645996,-5.474999904632568 -33.23699951171875,2.180999994277954 -34.98400115966797,13.923999786376953 C-36.44200134277344,23.722999572753906 -26.732999801635742,41.051998138427734 -8.651000022888184,36.375999450683594 C9.430000305175781,31.700000762939453 25.697999954223633,13.520999908447266 31.250999450683594,-4.151000022888184 C36.44200134277344,-20.670000076293945 31.336999893188477,-31.176000595092773 21.899999618530273,-35.013999938964844 C7.059000015258789,-41.05099868774414 -14.086000442504883,-27.21299934387207 -21.614999771118164,-16.881999969482422z"></path></g></g></g></svg>