<svg xmlns:xlink="http://www.w3.org/1999/xlink" xmlns="http://www.w3.org/2000/svg" viewBox="0 0 760 760" width="760" height="760" preserveAspectRatio="xMidYMid meet" style="width: 100%; height: 100%; transform: translate3d(0px, 0px, 0px);"><defs><clipPath id="__lottie_element_95"><rect width="760" height="760" x="0" y="0"></rect></clipPath></defs><g clip-path="url(#__lottie_element_95)"><g transform="matrix(0.7660444378852844,0.6427876353263855,-0.6427876353263855,0.7660444378852844,401.38665771484375,55.72468566894531)" opacity="1" style="display: block;"><g opacity="1" transform="matrix(1,0,0,1,149.58399963378906,157.08799743652344)"><path fill="#B71000" fill-opacity="1" d=" M-105.92400360107422,-131.61599731445312 C-105.92400360107422,-131.61599731445312 -149.33399963378906,-31.673999786376953 -116.0479965209961,37.0989990234375 C-80.22000122070312,111.125 -5.826000213623047,131.61599731445312 64.08799743652344,99.63800048828125 C121.40499877929688,73.4219970703125 144.87100219726562,7.281000137329102 149.33399963378906,-10.312000274658203 C124.7239990234375,-22.722999572753906 -105.92400360107422,-131.61599731445312 -105.92400360107422,-131.61599731445312z"></path></g><g opacity="1" transform="matrix(1,0,0,1,167.73399353027344,91.01300048828125)"><path fill="#FF3008" fill-opacity="1" d=" M-123.30500030517578,-67.36499786376953 C-136.36900329589844,-44.9630012512207 -125.6510009765625,-2.6679999828338623 -79.51399993896484,34.926998138427734 C-43.130001068115234,64.57499694824219 10.123000144958496,90.45600128173828 67.04299926757812,90.64299774169922 C103.30799865722656,90.76300048828125 120.21499633789062,76.98699951171875 129.03500366210938,61.54800033569336 C136.3699951171875,48.709999084472656 135.4949951171875,6.936999797821045 64.15799713134766,-38.41699981689453 C15.947999954223633,-69.06800079345703 -26.10300064086914,-84.16300201416016 -53.84199905395508,-86.99500274658203 C-90.74400329589844,-90.76300048828125 -114.65799713134766,-82.19300079345703 -123.30500030517578,-67.36499786376953z"></path></g><g opacity="1" transform="matrix(1,0,0,1,170.552001953125,94.10399627685547)"><path fill="#951C39" fill-opacity="1" d=" M-27.089000701904297,0.16300000250339508 C-26.249000549316406,-3.9609999656677246 -27.38800048828125,-9.083000183105469 -39.917999267578125,-13.748000144958496 C-52.448001861572266,-18.413000106811523 -67.6259994506836,-21.106000900268555 -79.49099731445312,-27.09000015258789 C-91.35700225830078,-33.073001861572266 -102.55599975585938,-40.375 -96.24600219726562,-51.249000549316406 C-89.93599700927734,-62.12200164794922 -73.78299713134766,-54.80400085449219 -61.92300033569336,-47.16899871826172 C-50.0629997253418,-39.53499984741211 -40.38999938964844,-32.263999938964844 -33.47700119018555,-26.297000885009766 C-26.56399917602539,-20.329999923706055 -18.31399917602539,-16.8799991607666 -14.989999771118164,-23.472000122070312 C-11.666000366210938,-30.06399917602539 -14.743000030517578,-37.43299865722656 -16.365999221801758,-45.69300079345703 C-17.988000869750977,-53.95199966430664 -17.62299919128418,-64.51599884033203 -10.366000175476074,-62.5099983215332 C-3.109999895095825,-60.505001068115234 1.4769999980926514,-49.92399978637695 3.759000062942505,-41.332000732421875 C6.040999889373779,-32.7400016784668 10.831999778747559,-24.266000747680664 18.875,-20.479999542236328 C30.57699966430664,-14.970999717712402 40.4379997253418,-17.791000366210938 46.20100021362305,-22.285999298095703 C54.779998779296875,-28.976999282836914 62.48899841308594,-29.905000686645508 65.10800170898438,-23.62299919128418 C67.72799682617188,-17.340999603271484 64.30699920654297,-10.963000297546387 49.93199920654297,-7.938000202178955 C38.595001220703125,-5.552000045776367 36.30099868774414,0.7099999785423279 38.262001037597656,6.659999847412109 C40.22200012207031,12.609000205993652 58.83599853515625,15.274999618530273 65.2979965209961,16.98699951171875 C73.23500061035156,19.09000015258789 102.55699920654297,31.642000198364258 93.9260025024414,45.479000091552734 C85.29399871826172,59.316001892089844 62.560001373291016,45.37200164794922 55.31999969482422,38.41400146484375 C48.08100128173828,31.454999923706055 35.40599822998047,18.77400016784668 27.64699935913086,21.149999618530273 C22.211999893188477,22.815000534057617 28.25,37.99100112915039 28.54800033569336,47.236000061035156 C28.847000122070312,56.481998443603516 28.891000747680664,63.74300003051758 22.54800033569336,64.05400085449219 C13.128000259399414,64.51599884033203 9.069999694824219,46.50899887084961 7.453000068664551,36.5989990234375 C5.835999965667725,26.68899917602539 6.51800012588501,20.417999267578125 1.565999984741211,20.400999069213867 C-3.38700008392334,20.384000778198242 -16.277000427246094,24.631999969482422 -26.187999725341797,26.249000549316406 C-36.097999572753906,27.865999221801758 -54.59400177001953,30.113000869750977 -55.55699920654297,22.18600082397461 C-56.520999908447266,14.258999824523926 -45.14500045776367,10.510000228881836 -40.654998779296875,9.031000137329102 C-33.7140007019043,6.74399995803833 -27.881999969482422,4.059000015258789 -27.089000701904297,0.16300000250339508z"></path></g></g><g transform="matrix(0.8660253882408142,-0.5,0.5,0.8660253882408142,167.87425231933594,462.8125)" opacity="1" style="display: block;"><g opacity="1" transform="matrix(1,0,0,1,178.7259979248047,162.63900756835938)"><path fill="#A7D87C" fill-opacity="1" d=" M175.08599853515625,-7.255000114440918 C177.89100646972656,-8.980999946594238 178.4759979248047,-12.734000205993652 176.40499877929688,-15.293999671936035 C155.11599731445312,-41.6150016784668 47.28799819946289,-162.38999938964844 -79.2699966430664,-80.50900268554688 C-178.4759979248047,-16.325000762939453 -121.9800033569336,128.05599975585938 -108.76699829101562,158.1909942626953 C-107.4520034790039,161.19200134277344 -103.88099670410156,162.38900756835938 -101.05899810791016,160.72500610351562 C-83.94100189208984,150.63400268554688 -28.336000442504883,117.78900146484375 3.990000009536743,97.95999908447266 C38.09600067138672,77.03900146484375 149.781005859375,8.315999984741211 175.08599853515625,-7.255000114440918z"></path></g><g opacity="1" transform="matrix(1,0,0,1,139.8209991455078,212.13900756835938)"><path fill="#FFFFFF" fill-opacity="1" d=" M39.060001373291016,15.888999938964844 C41.74800109863281,17.95199966430664 40.5880012512207,22.148000717163086 37.20600128173828,22.5939998626709 C15.005000114440918,25.520999908447266 -41.74700164794922,30.194000244140625 -33.65599822998047,0.014000000432133675 C-25.558000564575195,-30.19300079345703 21.332000732421875,2.2860000133514404 39.060001373291016,15.888999938964844z"></path></g><g opacity="1" transform="matrix(1,0,0,1,159.3730010986328,159.3459930419922)"><path fill="#FFFFFF" fill-opacity="1" d=" M36.19900131225586,34.457000732421875 C37.10200119018555,37.7239990234375 33.58300018310547,40.430999755859375 30.577999114990234,38.779998779296875 C10.986000061035156,28.013999938964844 -37.10300064086914,-1.6169999837875366 -12.274999618530273,-21.014999389648438 C12.574999809265137,-40.430999755859375 30.283000946044922,13.057000160217285 36.19900131225586,34.457000732421875z"></path></g><g opacity="1" transform="matrix(1,0,0,1,230.572998046875,163.9759979248047)"><path fill="#FFFFFF" fill-opacity="1" d=" M0.20499999821186066,35.59299850463867 C-1.2649999856948853,38.65800094604492 -5.72599983215332,38.472999572753906 -6.920000076293945,35.29800033569336 C-14.701000213623047,14.595999717712402 -31.68600082397461,-38.659000396728516 -0.014000000432133675,-37.5890007019043 C31.68600082397461,-36.518001556396484 9.835000038146973,15.519000053405762 0.20499999821186066,35.59299850463867z"></path></g></g><g transform="matrix(0.9396926164627075,0.3420201539993286,-0.3420201539993286,0.9396926164627075,367.710693359375,239.161376953125)" opacity="1" style="display: block;"><g opacity="1" transform="matrix(1,0,0,1,169.8520050048828,87.1729965209961)"><path fill="#9777C9" fill-opacity="1" d=" M-169.6020050048828,-64.37300109863281 C-169.6020050048828,-64.37300109863281 -150.70399475097656,-80.4229965209961 -150.70399475097656,-80.4229965209961 C-12.163000106811523,54.051998138427734 162.93499755859375,10.9399995803833 164.68800354003906,10.48799991607666 C164.68800354003906,10.48799991607666 169.6020050048828,32.691001892089844 169.6020050048828,32.691001892089844 C161.88999938964844,34.69499969482422 -20.423999786376953,80.4229965209961 -169.6020050048828,-64.37300109863281z"></path></g><g opacity="1" transform="matrix(1,0,0,1,175.79600524902344,69.8290023803711)"><path fill="#D2DEFF" fill-opacity="1" d=" M-158.21499633789062,-62.244998931884766 C-158.21499633789062,-62.244998931884766 -140.38600158691406,-69.5790023803711 -140.38600158691406,-69.5790023803711 C-3.7679998874664307,52.43199920654297 146.21499633789062,10.713000297546387 147.96800231933594,10.26099967956543 C147.96800231933594,10.26099967956543 158.21499633789062,28.09600067138672 158.21499633789062,28.09600067138672 C150.5030059814453,30.100000381469727 -17.802000045776367,69.58000183105469 -158.21499633789062,-62.244998931884766z"></path></g></g><g transform="matrix(0.9396926164627075,-0.3420201539993286,0.3420201539993286,0.9396926164627075,58.7652587890625,488.2182312011719)" opacity="1" style="display: block;"><g opacity="1" transform="matrix(1,0,0,1,114.70999908447266,105.47699737548828)"><path fill="#D2DEFF" fill-opacity="1" d=" M0.4390000104904175,98.65399932861328 C0.4390000104904175,98.65399932861328 -101.0459976196289,24.92099952697754 -101.0459976196289,24.92099952697754 C-110.23699951171875,18.349000930786133 -114.45999908447266,10.692999839782715 -107.08399963378906,2.0769999027252197 C-107.08399963378906,2.0769999027252197 -23.461000442504883,-95.58899688720703 -23.461000442504883,-95.58899688720703 C-16.084999084472656,-104.20500183105469 -7.795000076293945,-105.22799682617188 1.3960000276565552,-98.65599822998047 C1.3960000276565552,-98.65599822998047 100.43199920654297,-27.829999923706055 100.43199920654297,-27.829999923706055 C109.62200164794922,-21.257999420166016 114.45999908447266,-14.321000099182129 107.08399963378906,-5.704999923706055 C107.08399963378906,-5.704999923706055 25.902000427246094,90.55500030517578 25.902000427246094,90.55500030517578 C18.524999618530273,99.16999816894531 9.630000114440918,105.22699737548828 0.4390000104904175,98.65399932861328z"></path></g></g><g transform="matrix(0.1736481785774231,0.9848077297210693,-0.9848077297210693,0.1736481785774231,369.34417724609375,281.5809326171875)" opacity="1" style="display: block;"><g opacity="1" transform="matrix(1,0,0,1,104.37699890136719,106.89199829101562)"><path fill="#951C39" fill-opacity="1" d=" M-25.746999740600586,-102.50299835205078 C-55.64799880981445,-99.6760025024414 -104.12699890136719,-58.459999084472656 -93.95600128173828,-4.0269999504089355 C-84.54399871826172,46.340999603271484 -54.62099838256836,74.27200317382812 -33.801998138427734,90.45700073242188 C-12.982999801635742,106.64299774169922 32.983001708984375,106.5009994506836 59.61800003051758,80.77300262451172 C88.35800170898438,53.01300048828125 104.12699890136719,12.782999992370605 82.30999755859375,-32.808998107910156 C60.49399948120117,-78.4010009765625 18.0310001373291,-106.64199829101562 -25.746999740600586,-102.50299835205078z"></path></g></g><g transform="matrix(0.1736481785774231,0.9848077297210693,-0.9848077297210693,0.1736481785774231,427.28076171875,339.3753356933594)" opacity="1" style="display: block;"><g opacity="1" transform="matrix(1,0,0,1,34.742000579833984,31.60700035095215)"><path fill="#404040" fill-opacity="1" d=" M-5.823999881744385,-20.606000900268555 C-5.823999881744385,-20.606000900268555 -29.117000579833984,-7.166999816894531 -31.804000854492188,8.062999725341797 C-34.492000579833984,23.29400062561035 -20.159000396728516,31.35700035095215 -3.135999917984009,25.981000900268555 C13.88599967956543,20.606000900268555 29.822999954223633,3.3989999294281006 31.804000854492188,-7.166999816894531 C34.492000579833984,-21.50200080871582 16.573999404907227,-31.35700035095215 -5.823999881744385,-20.606000900268555z"></path></g></g></g></svg>