<svg xmlns:xlink="http://www.w3.org/1999/xlink" xmlns="http://www.w3.org/2000/svg" viewBox="0 0 760 760" width="760" height="760" preserveAspectRatio="xMidYMid meet" style="width: 100%; height: 100%; transform: translate3d(0px, 0px, 0px);"><defs><clipPath id="__lottie_element_125"><rect width="760" height="760" x="0" y="0"></rect></clipPath></defs><g clip-path="url(#__lottie_element_125)"><g transform="matrix(1.100000023841858,0,0,1.100000023841858,-38,-30)" opacity="1" style="display: block;"><g opacity="1" transform="matrix(1,0,0,1,389.2309875488281,298.10699462890625)"><path fill="#FF3008" fill-opacity="1" d=" M-161.16299438476562,-41.52399826049805 C-161.16299438476562,-41.52399826049805 -199.93800354003906,-50.034000396728516 -198.39300537109375,-18.304000854492188 C-198.3000030517578,-16.389999389648438 -197.9040069580078,-14.503999710083008 -197.41400146484375,-12.651000022888184 C-196.18699645996094,-8.01200008392334 -196.16200256347656,1.5740000009536743 -198.10800170898438,9.47700023651123 C-200.4600067138672,19.0310001373291 -201.4459991455078,27.19099998474121 -190.58200073242188,34.51300048828125 C-179.7169952392578,41.83399963378906 -161.16299438476562,50.84299850463867 -161.16299438476562,50.84299850463867 C-161.16299438476562,50.84299850463867 -101.7300033569336,39.18199920654297 -101.7300033569336,39.18199920654297 C-101.7300033569336,39.18199920654297 -58.9739990234375,58.617000579833984 -58.9739990234375,58.617000579833984 C-58.9739990234375,58.617000579833984 12.932999610900879,41.61199951171875 12.932999610900879,41.61199951171875 C12.932999610900879,41.61199951171875 62.97600173950195,53.757999420166016 62.97600173950195,53.757999420166016 C62.97600173950195,53.757999420166016 112.53399658203125,46.83399963378906 112.53399658203125,46.83399963378906 C112.53399658203125,46.83399963378906 175.69500732421875,46.83399963378906 175.69500732421875,46.83399963378906 C175.69500732421875,46.83399963378906 190.0030059814453,38.750999450683594 195.38499450683594,23.5 C197.48599243164062,17.54599952697754 197.6840057373047,11.104000091552734 196.41799926757812,4.918000221252441 C195.5709991455078,0.7760000228881836 194.66099548339844,-6.992000102996826 197.20799255371094,-15.234000205993652 C200.9600067138672,-27.3799991607666 201.4459991455078,-43.41400146484375 184.927001953125,-50.215999603271484 C168.40699768066406,-57.018001556396484 139.49200439453125,-47.89400100708008 139.49200439453125,-47.89400100708008 C139.49200439453125,-47.89400100708008 92.6449966430664,-58.617000579833984 92.6449966430664,-58.617000579833984 C92.6449966430664,-58.617000579833984 45.79899978637695,-51.27899932861328 45.79899978637695,-51.27899932861328 C45.79899978637695,-51.27899932861328 -6.953999996185303,-41.12099838256836 -6.953999996185303,-41.12099838256836 C-6.953999996185303,-41.12099838256836 -51.28099822998047,-58.617000579833984 -51.28099822998047,-58.617000579833984 C-51.28099822998047,-58.617000579833984 -91.35399627685547,-50.715999603271484 -91.35399627685547,-50.715999603271484 C-91.35399627685547,-50.715999603271484 -161.16299438476562,-41.52399826049805 -161.16299438476562,-41.52399826049805z"></path></g><g opacity="1" transform="matrix(1,0,0,1,381.0199890136719,394.343994140625)"><path fill="#B96500" fill-opacity="1" d=" M-183.3070068359375,39.94599914550781 C-183.3070068359375,39.94599914550781 -203.26300048828125,28.357999801635742 -199.43099975585938,7.3979997634887695 C-198.50100708007812,2.313999891281128 -195.8179931640625,-2.2239999771118164 -192.24000549316406,-5.953000068664551 C-189.9669952392578,-8.321999549865723 -187.697998046875,-12.628000259399414 -189.89700317382812,-19.649999618530273 C-193.218994140625,-30.259000778198242 -188.88999938964844,-45.000999450683594 -165.97000122070312,-42.56999969482422 C-143.05099487304688,-40.138999938964844 -97.70700073242188,-63.724998474121094 -97.70700073242188,-63.724998474121094 C-97.70700073242188,-63.724998474121094 -50.763999938964844,-37.619998931884766 -50.763999938964844,-37.619998931884766 C-50.763999938964844,-37.619998931884766 21.14299964904785,-54.625 21.14299964904785,-54.625 C21.14299964904785,-54.625 66.0979995727539,-37.619998931884766 66.0979995727539,-37.619998931884766 C66.0979995727539,-37.619998931884766 128.4459991455078,-58.624000549316406 128.4459991455078,-58.624000549316406 C128.4459991455078,-58.624000549316406 185.69200134277344,-37.619998931884766 185.69200134277344,-37.619998931884766 C185.69200134277344,-37.619998931884766 203.26300048828125,-24.615999221801758 185.69200134277344,-5.34499979019165 C185.69200134277344,-5.34499979019165 179.73500061035156,4.210000038146973 183.82699584960938,14.979999542236328 C187.91900634765625,25.749000549316406 187.3520050048828,44.70199966430664 161.27999877929688,54.2140007019043 C135.20700073242188,63.724998474121094 86.50299835205078,55.869998931884766 86.50299835205078,55.869998931884766 C86.50299835205078,55.869998931884766 21.320999145507812,57.54600143432617 21.320999145507812,57.54600143432617 C21.320999145507812,57.54600143432617 -37.058998107910156,52.0260009765625 -37.058998107910156,52.0260009765625 C-37.058998107910156,52.0260009765625 -72.76799774169922,57.54600143432617 -72.76799774169922,57.54600143432617 C-72.76799774169922,57.54600143432617 -115.27799987792969,42.266998291015625 -115.27799987792969,42.266998291015625 C-115.27799987792969,42.266998291015625 -152.68600463867188,57.54600143432617 -152.68600463867188,57.54600143432617 C-152.68600463867188,57.54600143432617 -183.3070068359375,39.94599914550781 -183.3070068359375,39.94599914550781z"></path></g><g opacity="1" transform="matrix(1,0,0,1,365.7460021972656,510.4070129394531)"><path fill="#FF3008" fill-opacity="1" d=" M-131.23699951171875,-57.145999908447266 C-131.23699951171875,-57.145999908447266 -162.7899932861328,-72.23699951171875 -176.35899353027344,-50.57600021362305 C-180.16900634765625,-44.49399948120117 -181.41799926757812,-37.15700149536133 -180.30099487304688,-30.066999435424805 C-179.0959930419922,-22.424999237060547 -178.22500610351562,-13.52299976348877 -184.64599609375,-5.432000160217285 C-184.64599609375,-5.432000160217285 -205.94400024414062,21.79199981689453 -184.64599609375,46.2239990234375 C-184.64599609375,46.2239990234375 -147.99000549316406,55.48400115966797 -147.99000549316406,55.48400115966797 C-147.99000549316406,55.48400115966797 -107.50299835205078,55.48400115966797 -107.50299835205078,55.48400115966797 C-107.50299835205078,55.48400115966797 -65.61900329589844,59.74300003051758 -65.61900329589844,59.74300003051758 C-65.61900329589844,59.74300003051758 -18.150999069213867,63.861000061035156 -18.150999069213867,63.861000061035156 C-18.150999069213867,63.861000061035156 40.486000061035156,53.38999938964844 40.486000061035156,53.38999938964844 C40.486000061035156,53.38999938964844 101.91500091552734,72.23699951171875 101.91500091552734,72.23699951171875 C101.91500091552734,72.23699951171875 175.21200561523438,54.0880012512207 175.21200561523438,54.0880012512207 C175.21200561523438,54.0880012512207 189.22500610351562,46.986000061035156 185.2949981689453,23.007999420166016 C184.1929931640625,16.281999588012695 183.25399780273438,13.666000366210938 186.5189971923828,7.683000087738037 C187.99899291992188,4.9720001220703125 192.91600036621094,-1.4190000295639038 194.72799682617188,-4.760000228881836 C203.26100158691406,-20.493999481201172 205.94400024414062,-52.742000579833984 181.7050018310547,-53.86600112915039 C157.46499633789062,-54.9900016784668 71.20099639892578,-57.145999908447266 71.20099639892578,-57.145999908447266 C71.20099639892578,-57.145999908447266 -21.78499984741211,-64.03700256347656 -21.78499984741211,-64.03700256347656 C-21.78499984741211,-64.03700256347656 -87.95700073242188,-64.03700256347656 -87.95700073242188,-64.03700256347656 C-87.95700073242188,-64.03700256347656 -131.23699951171875,-57.145999908447266 -131.23699951171875,-57.145999908447266z"></path></g><g opacity="1" transform="matrix(1,0,0,1,445.1919860839844,206.58099365234375)"><path fill="#A5D67C" fill-opacity="1" d=" M-2.7149999141693115,-32.263999938964844 C-11.883999824523926,-23.35099983215332 -39.11399841308594,5.438000202178955 -43.731998443603516,15.300999641418457 C-45.672000885009766,19.445999145507812 -43.768001556396484,20.43000030517578 -43.696998596191406,37.474998474121094 C-43.6619987487793,45.757999420166016 -45.266998291015625,43.441001892089844 -30.486000061035156,37.83700180053711 C-23.844999313354492,35.319000244140625 -2.4860000610351562,25.143999099731445 -2.4860000610351562,25.143999099731445 C-2.4860000610351562,25.143999099731445 45.672000885009766,-17.551000595092773 30.868000030517578,-38.459999084472656 C25.70199966430664,-45.75699996948242 7.984000205993652,-42.66299819946289 -2.7149999141693115,-32.263999938964844z"></path></g><g opacity="1" transform="matrix(1,0,0,1,393.0419921875,243.56399536132812)"><path fill="#FBBA43" fill-opacity="1" d=" M-185.2969970703125,-13.303000450134277 C-182.2010040283203,-10.253999710083008 -178.54299926757812,-7.85099983215332 -174.4720001220703,-6.330999851226807 C-162.85499572753906,-1.99399995803833 -140.06900024414062,3.240000009536743 -116.96700286865234,-9.897000312805176 C-83.927001953125,-28.684999465942383 -58.012001037597656,-25.44499969482422 -58.012001037597656,-25.44499969482422 C-58.012001037597656,-25.44499969482422 -32.097999572753906,-26.742000579833984 1.590000033378601,-5.36299991607666 C35.27899932861328,16.017000198364258 40.46099853515625,-25.656999588012695 81.2770004272461,-25.658000946044922 C111.57499694824219,-25.659000396728516 109.13500213623047,-6.6579999923706055 138.28799438476562,-5.36299991607666 C165.51499938964844,-4.1529998779296875 167.31500244140625,-18.76300048828125 188.54100036621094,-21.226999282836914 C192.8719940185547,-21.729999542236328 197.31199645996094,-20.974000930786133 201.0290069580078,-18.69499969482422 C205.79200744628906,-15.77400016784668 210.1199951171875,-10.074000358581543 205.01800537109375,0.7179999947547913 C195.947998046875,19.905000686645508 151.89300537109375,23.143999099731445 151.89300537109375,23.143999099731445 C151.89300537109375,23.143999099731445 121.0999984741211,24.375999450683594 91.33799743652344,8.225000381469727 C88.94400024414062,6.925000190734863 86.41100311279297,5.89900016784668 83.75,5.320000171661377 C76.76200103759766,3.7980000972747803 63.82899856567383,3.0759999752044678 50.854000091552734,13.253000259399414 C43.36600112915039,19.12700080871582 34.832000732421875,23.586999893188477 25.53499984741211,25.624000549316406 C13.213000297546387,28.322999954223633 -3.5280001163482666,28.68600082397461 -21.084999084472656,19.256999969482422 C-26.954999923706055,16.104000091552734 -32.42399978637695,13.680000305175781 -37.46200180053711,11.831000328063965 C-54.44499969482422,5.59499979019165 -73.21399688720703,6.6620001792907715 -89.64600372314453,14.232000350952148 C-102.85600280761719,20.31800079345703 -124.41799926757812,28.250999450683594 -145.47300720214844,27.283000946044922 C-179.16200256347656,25.733999252319336 -195.35800170898438,4.355999946594238 -195.35800170898438,4.355999946594238 C-195.35800170898438,4.355999946594238 -210.1199951171875,-7.934000015258789 -195.35800170898438,-16.375999450683594 C-191.71200561523438,-18.461000442504883 -187.8470001220703,-15.814000129699707 -185.2969970703125,-13.303000450134277z"></path></g><g opacity="1" transform="matrix(1,0,0,1,379.9219970703125,345.3609924316406)"><path fill="#FBBA43" fill-opacity="1" d=" M-184.98199462890625,-18.604999542236328 C-181.54600524902344,-16.107999801635742 -178.2779998779297,-14.241999626159668 -174.40699768066406,-12.475000381469727 C-164.01400756835938,-7.730999946594238 -155.2760009765625,-4.419000148773193 -138.69700622558594,-12.942000389099121 C-122.28500366210938,-21.378999710083008 -111.30899810791016,-23.60700035095215 -104.28900146484375,-23.55299949645996 C-98.04000091552734,-23.503999710083008 -86.0979995727539,-23.576000213623047 -70.78099822998047,-11.937000274658203 C-40.5880012512207,11.005999565124512 -21.86199951171875,-19.104000091552734 18.952999114990234,-18.78499984741211 C40.194000244140625,-18.6200008392334 39.486000061035156,-6.322999954223633 68.56800079345703,-4.034999847412109 C95.72899627685547,-1.8980000019073486 105.25299835205078,-17.884000778198242 126.53299713134766,-16.554000854492188 C149.90199279785156,-15.093999862670898 153.61099243164062,-2.927999973297119 197.9149932861328,-11.204999923706055 C203.1479949951172,-12.182999610900879 209.96800231933594,0.7580000162124634 204.49899291992188,9.321999549865723 C197.58399963378906,20.149999618530273 150.38499450683594,13.270000457763672 124.41000366210938,10.555000305175781 C113.96199798583984,9.463000297546387 103.4520034790039,11.11299991607666 93.72699737548828,15.085000038146973 C81.91500091552734,19.910999298095703 69.44300079345703,23.139999389648438 47.380001068115234,19.31999969482422 C44.80099868774414,18.87299919128418 33.729000091552734,14.11400032043457 30.05500030517578,12.831999778747559 C23.354999542236328,10.493000030517578 11.692999839782715,0.8820000290870667 -10.081000328063965,12.666000366210938 C-17.895000457763672,16.895000457763672 -26.444000244140625,20.395999908447266 -35.801998138427734,21.659000396728516 C-48.20600128173828,23.333999633789062 -55.09400177001953,23.60700035095215 -66.87899780273438,17.981000900268555 C-72.66200256347656,15.220999717712402 -81.26200103759766,6.23199987411499 -86.26200103759766,4.60699987411499 C-97.7249984741211,0.8820000290870667 -103.64800262451172,1.6390000581741333 -120.3270034790039,7.1020002365112305 C-133.73500061035156,11.494000434875488 -138.4219970703125,16.315000534057617 -159.06100463867188,12.076000213623047 C-181.08900451660156,7.552000045776367 -195.64300537109375,-4.664999961853027 -195.64300537109375,-4.664999961853027 C-195.64300537109375,-4.664999961853027 -209.96800231933594,-15.288000106811523 -194.92799377441406,-21.5310001373291 C-191.21400451660156,-23.072999954223633 -187.62600708007812,-20.527000427246094 -184.98199462890625,-18.604999542236328z"></path></g><g opacity="1" transform="matrix(1,0,0,1,368.64898681640625,446.9049987792969)"><path fill="#FBBA43" fill-opacity="1" d=" M-172.52499389648438,-21.371999740600586 C-169.08900451660156,-18.875 -165.3679962158203,-15.59000015258789 -161.9499969482422,-13.055999755859375 C-152.61900329589844,-6.136000156402588 -149.37899780273438,-1.718999981880188 -132.7989959716797,-10.241999626159668 C-116.38800048828125,-18.679000854492188 -106.50399780273438,-18.722000122070312 -99.48500061035156,-18.66699981689453 C-93.23600006103516,-18.618000030517578 -84.7699966430664,-17.908000946044922 -72.53700256347656,-9.237000465393066 C-41.5989990234375,12.6899995803833 -35.15999984741211,-17.198999404907227 5.6539998054504395,-16.8799991607666 C26.895999908447266,-16.71500015258789 38.29800033569336,-3.0199999809265137 67.38099670410156,-0.7319999933242798 C94.54100036621094,1.4049999713897705 104.06600189208984,-14.581000328063965 125.34500122070312,-13.25100040435791 C148.71499633789062,-11.789999961853027 152.26800537109375,1.968000054359436 187.33700561523438,-12.970999717712402 C192.23500061035156,-15.057999610900879 197.51100158691406,-1.9520000219345093 193.9219970703125,7.554999828338623 C187.82699584960938,23.70199966430664 154.80799865722656,23.70199966430664 130.30799865722656,13.255000114440918 C120.64399719238281,9.133999824523926 109.3489990234375,13.812000274658203 99.625,17.78499984741211 C87.81300354003906,22.610000610351562 75.33999633789062,25.84000015258789 53.27799987792969,22.020000457763672 C50.69900131225586,21.573999404907227 32.92599868774414,14.475000381469727 29.25200080871582,13.192999839782715 C22.551000595092773,10.854000091552734 4.4730000495910645,1.3960000276565552 -17.302000045776367,13.180000305175781 C-25.115999221801758,17.409000396728516 -33.66600036621094,20.909000396728516 -43.02399826049805,22.172000885009766 C-55.428001403808594,23.847000122070312 -60.433998107910156,23.702999114990234 -69.72799682617188,18.4950008392334 C-75.31800079345703,15.36299991607666 -84.11100006103516,8.930999755859375 -89.11100006103516,7.306000232696533 C-100.5739974975586,3.5820000171661377 -106.49700164794922,4.3379998207092285 -123.1760025024414,9.800999641418457 C-136.58399963378906,14.192999839782715 -145.23899841308594,17.027000427246094 -157.63299560546875,11.586000442504883 C-179.95599365234375,1.784999966621399 -185.4720001220703,-4.997000217437744 -185.4720001220703,-4.997000217437744 C-185.4720001220703,-4.997000217437744 -197.51100158691406,-18.05500030517578 -182.4709930419922,-24.29800033569336 C-178.7570037841797,-25.84000015258789 -175.16900634765625,-23.29400062561035 -172.52499389648438,-21.371999740600586z"></path></g><g opacity="1" transform="matrix(1,0,0,1,359.6820068359375,571.6749877929688)"><path fill="#FBBA43" fill-opacity="1" d=" M-185.13900756835938,8.027000427246094 C-195.85899353027344,6.5329999923706055 -202.40899658203125,-0.42500001192092896 -198.02200317382812,-10.319999694824219 C-195.88900756835938,-15.130000114440918 -191.4010009765625,-19.007999420166016 -182.24000549316406,-17.950000762939453 C-152.81700134277344,-14.553000450134277 -150.00399780273438,-17.44700050354004 -118.52400207519531,-22.041000366210938 C-75.1500015258789,-28.371000289916992 -73.697998046875,-10.467000007629395 -39.358001708984375,-9.289999961853027 C-5.01800012588501,-8.11299991607666 -6.103000164031982,-9.112000465393066 35.49599838256836,-18.229999542236328 C75.62899780273438,-27.025999069213867 84.27300262451172,-3.0399999618530273 124.01100158691406,-3.6040000915527344 C160.7270050048828,-4.125999927520752 158.73500061035156,-18.44300079345703 181.09500122070312,-19.48900032043457 C186.08200073242188,-19.722000122070312 191.05599975585938,-18.059999465942383 194.5970001220703,-14.541000366210938 C200.46099853515625,-8.71399974822998 202.40899658203125,1.7799999713897705 165.67799377441406,14.175999641418457 C123.61599731445312,28.371000289916992 93.6969985961914,14.480999946594238 70.36599731445312,8.045999526977539 C47.34700012207031,1.6970000267028809 29.823999404907227,-0.578000009059906 5.306000232696533,9.605999946594238 C-19.211999893188477,19.790000915527344 -55.18299865722656,19.545000076293945 -76.23899841308594,7.283999919891357 C-101.97699737548828,-7.703000068664551 -127.2509994506836,-2.2669999599456787 -154.32000732421875,5.381999969482422 C-163.71800231933594,8.036999702453613 -175.75,9.335000038146973 -185.13900756835938,8.027000427246094z"></path></g><g opacity="1" transform="matrix(1,0,0,1,495.8349914550781,293.4460144042969)"><path fill="#931B38" fill-opacity="1" d=" M-8.684000015258789,-12.473999977111816 C-8.684000015258789,-12.473999977111816 -29.118999481201172,-11.081000328063965 -27.115999221801758,3.8519999980926514 C-25.641000747680664,14.848999977111816 -5.017000198364258,14.001999855041504 -5.017000198364258,14.001999855041504 C-5.017000198364258,14.001999855041504 26.459999084472656,15.779999732971191 27.606000900268555,4.126999855041504 C29.118999481201172,-11.241000175476074 23.39900016784668,-15.781000137329102 -8.684000015258789,-12.473999977111816z"></path></g><g opacity="1" transform="matrix(1,0,0,1,279.85400390625,505.72198486328125)"><path fill="#931B38" fill-opacity="1" d=" M2.3550000190734863,20.365999221801758 C7.269999980926514,21.915000915527344 12.463000297546387,22.518999099731445 17.586000442504883,21.95800018310547 C23.635000228881836,21.295000076293945 30.617000579833984,18.951000213623047 34.345001220703125,12.225000381469727 C40.665000915527344,0.8259999752044678 14.552000045776367,-8.722999572753906 14.552000045776367,-8.722999572753906 C14.552000045776367,-8.722999572753906 -11.512999534606934,-22.518999099731445 -26.114999771118164,-12.72599983215332 C-40.665000915527344,-2.9679999351501465 -31.38599967956543,9.732999801635742 2.3550000190734863,20.365999221801758z"></path></g><g opacity="1" transform="matrix(1,0,0,1,369.5249938964844,207.906005859375)"><path fill="#00AA42" fill-opacity="1" d=" M10.704999923706055,-27.80500030517578 C19.874000549316406,-18.892000198364258 27.753999710083008,-6.914999961853027 31.964000701904297,0.2669999897480011 C34.27799987792969,4.216000080108643 39.49700164794922,19.104000091552734 39.42499923706055,36.14899826049805 C39.38999938964844,44.43199920654297 40.994998931884766,42.1150016784668 26.21500015258789,36.51100158691406 C19.572999954223633,33.99300003051758 -1.7860000133514404,23.819000244140625 -1.7860000133514404,23.819000244140625 C-1.7860000133514404,23.819000244140625 -40.994998931884766,-15.88599967956543 -22.878999710083008,-34.00199890136719 C-12.449000358581543,-44.43199920654297 0.006000000052154064,-38.20399856567383 10.704999923706055,-27.80500030517578z"></path></g></g></g></svg>