<svg xmlns:xlink="http://www.w3.org/1999/xlink" xmlns="http://www.w3.org/2000/svg" viewBox="0 0 760 760" width="760" height="760" preserveAspectRatio="xMidYMid meet" style="width: 100%; height: 100%; transform: translate3d(0px, 0px, 0px);"><defs><clipPath id="__lottie_element_231"><rect width="760" height="760" x="0" y="0"></rect></clipPath></defs><g clip-path="url(#__lottie_element_231)"><g transform="matrix(1.0800000429153442,0,0,1.0800000429153442,-7.407012939453125,-26.4000244140625)" opacity="1" style="display: block;"><g opacity="1" transform="matrix(1,0,0,1,357.72601318359375,498.3590087890625)"><path fill="#404040" fill-opacity="1" d=" M-112.93699645996094,89.20999908447266 C-112.93699645996094,89.20999908447266 110.58000183105469,89.20999908447266 110.58000183105469,89.20999908447266 C117.2040023803711,89.20999908447266 123.39099884033203,85.90899658203125 127.072998046875,80.4020004272461 C144.58599853515625,54.20600128173828 195.63299560546875,-24.709999084472656 211.96099853515625,-78.13899993896484 C211.96099853515625,-78.13899993896484 -211.96099853515625,-89.20999908447266 -211.96099853515625,-89.20999908447266 C-211.96099853515625,-89.20999908447266 -200.06399536132812,-23.128999710083008 -129.33200073242188,80.5510025024414 C-125.63600158691406,85.96900177001953 -119.49500274658203,89.20999908447266 -112.93699645996094,89.20999908447266z"></path><path stroke-linecap="butt" stroke-linejoin="miter" fill-opacity="0" stroke-miterlimit="10" stroke="#404040" stroke-opacity="1" stroke-width="0.098px" d=" M-112.93699645996094,89.20999908447266 C-112.93699645996094,89.20999908447266 110.58000183105469,89.20999908447266 110.58000183105469,89.20999908447266 C117.2040023803711,89.20999908447266 123.39099884033203,85.90899658203125 127.072998046875,80.4020004272461 C144.58599853515625,54.20600128173828 195.63299560546875,-24.709999084472656 211.96099853515625,-78.13899993896484 C211.96099853515625,-78.13899993896484 -211.96099853515625,-89.20999908447266 -211.96099853515625,-89.20999908447266 C-211.96099853515625,-89.20999908447266 -200.06399536132812,-23.128999710083008 -129.33200073242188,80.5510025024414 C-125.63600158691406,85.96900177001953 -119.49500274658203,89.20999908447266 -112.93699645996094,89.20999908447266z"></path></g><g opacity="1" transform="matrix(1,0,0,1,380.2179870605469,362.4049987792969)"><path fill="#FBBA43" fill-opacity="1" d=" M-219.5659942626953,-82.36100006103516 C-219.5659942626953,-82.36100006103516 -160.25399780273438,-189.15199279785156 35.2869987487793,-167.63499450683594 C244.51800537109375,-144.61099243164062 192.78199768066406,47.54199981689453 192.78199768066406,47.54199981689453 C192.78199768066406,47.54199981689453 161.83900451660156,176.6479949951172 -4.203999996185303,183.0229949951172 C-163.8260040283203,189.15199279785156 -223.29600524902344,87.38899993896484 -234.45199584960938,46.744998931884766 C-236.6490020751953,38.742000579833984 -238.4029998779297,30.554000854492188 -239.60699462890625,22.235000610351562 C-244.51699829101562,-11.694999694824219 -240.2729949951172,-47.79899978637695 -219.5659942626953,-82.36100006103516z"></path></g><g opacity="1" transform="matrix(1,0,0,1,338.8500061035156,452.60699462890625)"><path fill="#404040" fill-opacity="1" d=" M7.401000022888184,64.85099792480469 C7.401000022888184,64.85099792480469 -14.22599983215332,62.04199981689453 -14.22599983215332,62.04199981689453 C-35.82400131225586,57.486000061035156 -41.8849983215332,41.33300018310547 -40.861000061035156,19.700000762939453 C-40.07099914550781,3.0179998874664307 -37.26100158691406,-12.336999893188477 -24.65399932861328,-35.94300079345703 C-24.65399932861328,-35.94300079345703 -9.402000427246094,-64.85099792480469 18.875,-64.85099792480469 C18.875,-64.85099792480469 41.88399887084961,-64.85099792480469 41.88399887084961,-64.85099792480469 C41.88399887084961,-64.85099792480469 7.401000022888184,64.85099792480469 7.401000022888184,64.85099792480469z"></path><path stroke-linecap="butt" stroke-linejoin="miter" fill-opacity="0" stroke-miterlimit="10" stroke="#404040" stroke-opacity="1" stroke-width="0.098px" d=" M7.401000022888184,64.85099792480469 C7.401000022888184,64.85099792480469 -14.22599983215332,62.04199981689453 -14.22599983215332,62.04199981689453 C-35.82400131225586,57.486000061035156 -41.8849983215332,41.33300018310547 -40.861000061035156,19.700000762939453 C-40.07099914550781,3.0179998874664307 -37.26100158691406,-12.336999893188477 -24.65399932861328,-35.94300079345703 C-24.65399932861328,-35.94300079345703 -9.402000427246094,-64.85099792480469 18.875,-64.85099792480469 C18.875,-64.85099792480469 41.88399887084961,-64.85099792480469 41.88399887084961,-64.85099792480469 C41.88399887084961,-64.85099792480469 7.401000022888184,64.85099792480469 7.401000022888184,64.85099792480469z"></path></g><g opacity="1" transform="matrix(1,0,0,1,483.2300109863281,367.6050109863281)"><path fill="#A5D67C" fill-opacity="1" d=" M-66.4990005493164,-117.61199951171875 C-66.4990005493164,-117.61199951171875 -61.52000045776367,-66.572998046875 -61.52000045776367,-66.572998046875 C-61.26900100708008,-64.00399780273438 -59.09600067138672,-62.040000915527344 -56.51499938964844,-62.077999114990234 C-42.26599884033203,-62.29100036621094 0.8970000147819519,-58.78499984741211 5.883999824523926,-9.034000396728516 C10.781999588012695,39.832000732421875 -27.219999313354492,56.54199981689453 -41.17599868774414,60.99800109863281 C-44.06700134277344,61.92100143432617 -45.875999450683594,64.79000091552734 -45.494998931884766,67.802001953125 C-45.494998931884766,67.802001953125 -39.244998931884766,117.20700073242188 -39.244998931884766,117.20700073242188 C-38.763999938964844,121.01000213623047 -35.04100036621094,123.50299835205078 -31.336000442504883,122.51799774169922 C-7.76800012588501,116.2509994506836 66.77899932861328,88.3740005493164 64.27300262451172,-13.125 C61.66299819946289,-118.79900360107422 -37.34000015258789,-123.50299835205078 -61.65700149536133,-123.06099700927734 C-64.5510025024414,-123.00800323486328 -66.77999877929688,-120.49400329589844 -66.4990005493164,-117.61199951171875z"></path></g><g opacity="1" transform="matrix(1,0,0,1,368.85400390625,452.6159973144531)"><path fill="#00AA42" fill-opacity="1" d=" M42.41600036621094,17.889999389648438 C54.12799835205078,-8.748000144958496 42.69599914550781,-52.72200012207031 19.7450008392334,-62.630001068115234 C-3.2060000896453857,-72.53800201416016 -29.225000381469727,-48.23699951171875 -39.0099983215332,-13.53499984741211 C-48.487998962402344,20.077999114990234 -54.12699890136719,52.72200012207031 -31.176000595092773,62.62900161743164 C-8.225000381469727,72.53700256347656 27.90399932861328,50.895999908447266 42.41600036621094,17.889999389648438z"></path></g><g opacity="1" transform="matrix(1,0,0,1,390.75,440.6470031738281)"><path fill="#A5D67C" fill-opacity="1" d=" M6.328000068664551,4.214000225067139 C4.13100004196167,7.500999927520752 -1.9500000476837158,8.95300006866455 -5.236999988555908,6.75600004196167 C-8.524999618530273,4.559000015258789 -7.77400016784668,-0.45500001311302185 -5.577000141143799,-3.742000102996826 C-3.380000114440918,-7.0289998054504395 0.5049999952316284,-8.95300006866455 3.7929999828338623,-6.75600004196167 C7.079999923706055,-4.559000015258789 8.524999618530273,0.9269999861717224 6.328000068664551,4.214000225067139z"></path></g><g opacity="1" transform="matrix(1,0,0,1,367.8900146484375,432.1629943847656)"><path fill="#A5D67C" fill-opacity="1" d=" M7.110000133514404,0.5509999990463257 C6.645999908447266,4.478000164031982 1.8890000581741333,8.532999992370605 -2.0380001068115234,8.069999694824219 C-5.965000152587891,7.605999946594238 -7.573999881744385,2.7990000247955322 -7.110000133514404,-1.128000020980835 C-6.645999908447266,-5.054999828338623 -4.059000015258789,-8.532999992370605 -0.13199999928474426,-8.069000244140625 C3.7950000762939453,-7.605000019073486 7.573999881744385,-3.375999927520752 7.110000133514404,0.5509999990463257z"></path></g><g opacity="1" transform="matrix(1,0,0,1,365.3800048828125,469.49700927734375)"><path fill="#A5D67C" fill-opacity="1" d=" M-5.980000019073486,-5.364999771118164 C-3.25,-8.225000381469727 2.990000009536743,-8.609000205993652 5.849999904632568,-5.879000186920166 C8.710000038146973,-3.1489999294281006 7.107999801635742,1.6610000133514404 4.377999782562256,4.520999908447266 C1.6480000019073486,7.38100004196167 -2.509999990463257,8.607999801635742 -5.369999885559082,5.877999782562256 C-8.230999946594238,3.1480000019073486 -8.710000038146973,-2.505000114440918 -5.980000019073486,-5.364999771118164z"></path></g><g opacity="1" transform="matrix(1,0,0,1,423.29998779296875,343.3389892578125)"><path fill="#FFFFFF" fill-opacity="1" d=" M5.6479997634887695,-11.237000465393066 C9.145000457763672,-9.41100025177002 9.451000213623047,-2.8980000019073486 6.331999778747559,3.306999921798706 C3.2119998931884766,9.512999534606934 -2.1510000228881836,13.062999725341797 -5.6479997634887695,11.237000465393066 C-9.145000457763672,9.40999984741211 -9.451000213623047,2.8989999294281006 -6.331999778747559,-3.306999921798706 C-3.2119998931884766,-9.51200008392334 2.1510000228881836,-13.062999725341797 5.6479997634887695,-11.237000465393066z"></path></g><g opacity="1" transform="matrix(1,0,0,1,451.1210021972656,355.9219970703125)"><path fill="#FFFFFF" fill-opacity="1" d=" M7.184000015258789,-7.015999794006348 C10.697999954223633,-3.4000000953674316 10.329000473022461,2.671999931335449 6.361000061035156,6.546999931335449 C2.3940000534057617,10.42199993133545 -3.6710000038146973,10.631999969482422 -7.184999942779541,7.015999794006348 C-10.697999954223633,3.4010000228881836 -10.329999923706055,-2.671999931335449 -6.361999988555908,-6.546999931335449 C-2.3940000534057617,-10.42199993133545 3.6700000762939453,-10.631999969482422 7.184000015258789,-7.015999794006348z"></path></g><g opacity="1" transform="matrix(1,0,0,1,426.4809875488281,379.83099365234375)"><path fill="#FFFFFF" fill-opacity="1" d=" M1.5499999523162842,-10.571000099182129 C6.855000019073486,-9.779999732971191 10.461999893188477,-4.406000137329102 9.607000350952148,1.4320000410079956 C8.75100040435791,7.269999980926514 3.756999969482422,11.362000465393066 -1.5479999780654907,10.571000099182129 C-6.854000091552734,9.779999732971191 -10.461000442504883,4.406000137329102 -9.604999542236328,-1.4320000410079956 C-8.75,-7.269999980926514 -3.755000114440918,-11.362000465393066 1.5499999523162842,-10.571000099182129z"></path></g><g opacity="1" transform="matrix(1,0,0,1,338.489990234375,279.35198974609375)"><path fill="#FF3008" fill-opacity="1" d=" M15.836000442504883,66.10399627685547 C15.836000442504883,66.10399627685547 38.220001220703125,66.10399627685547 38.220001220703125,66.10399627685547 C51.82500076293945,66.10399627685547 62.62900161743164,54.625999450683594 61.75899887084961,41.04800033569336 C60.32699966430664,18.707000732421875 52.80699920654297,-11.949000358581543 44.13199996948242,-33.82600021362305 C31.332000732421875,-66.1050033569336 -40.2239990234375,-51.35599899291992 -62.62900161743164,-25.615999221801758 C-62.62900161743164,-25.615999221801758 15.836000442504883,66.10399627685547 15.836000442504883,66.10399627685547z"></path></g><g opacity="1" transform="matrix(1,0,0,1,271.6260070800781,320.01300048828125)"><path fill="#FFFFFF" fill-opacity="1" d=" M9.907999992370605,-10.45300006866455 C13.402999877929688,-7.051000118255615 11.800999641418457,0.3869999945163727 6.328999996185303,6.159999847412109 C0.8569999933242798,11.932000160217285 -6.4120001792907715,13.854999542236328 -9.906999588012695,10.45300006866455 C-13.402999877929688,7.051000118255615 -11.800000190734863,-0.38600000739097595 -6.328000068664551,-6.158999919891357 C-0.8560000061988831,-11.932000160217285 6.413000106811523,-13.854999542236328 9.907999992370605,-10.45300006866455z"></path></g><g opacity="1" transform="matrix(1,0,0,1,304.2690124511719,288.1300048828125)"><path fill="#CFDCFF" fill-opacity="1" d=" M52.525001525878906,57.32600021362305 C52.525001525878906,57.32600021362305 -49.81100082397461,57.32600021362305 -49.81100082397461,57.32600021362305 C-54.590999603271484,57.32600021362305 -58.91899871826172,54.24800109863281 -60.23400115966797,49.65399932861328 C-66.63500213623047,27.295000076293945 -45.224998474121094,-14.524999618530273 -28.409000396728516,-34.39400100708008 C-28.409000396728516,-34.39400100708008 -10.104999542236328,-57.32600021362305 28.725000381469727,-27.31599998474121 C66.63500213623047,1.9819999933242798 52.525001525878906,57.32600021362305 52.525001525878906,57.32600021362305z"></path></g><g opacity="1" transform="matrix(1,0,0,1,260.1709899902344,325.44500732421875)"><path fill="#FF3008" fill-opacity="1" d=" M15.836000442504883,66.10399627685547 C15.836000442504883,66.10399627685547 38.220001220703125,66.10399627685547 38.220001220703125,66.10399627685547 C51.82500076293945,66.10399627685547 62.62900161743164,54.625999450683594 61.75899887084961,41.04800033569336 C60.32699966430664,18.707000732421875 52.80699920654297,-11.949000358581543 44.13199996948242,-33.82600021362305 C31.332000732421875,-66.1050033569336 -40.2239990234375,-51.35599899291992 -62.62900161743164,-25.615999221801758 C-62.62900161743164,-25.615999221801758 15.836000442504883,66.10399627685547 15.836000442504883,66.10399627685547z"></path></g><g opacity="1" transform="matrix(1,0,0,1,225.9510040283203,334.2229919433594)"><path fill="#CFDCFF" fill-opacity="1" d=" M52.525001525878906,57.32699966430664 C52.525001525878906,57.32699966430664 -49.81100082397461,57.32699966430664 -49.81100082397461,57.32699966430664 C-54.590999603271484,57.32699966430664 -58.91899871826172,54.249000549316406 -60.23400115966797,49.65399932861328 C-66.63500213623047,27.29599952697754 -45.2239990234375,-14.52400016784668 -28.408000946044922,-34.393001556396484 C-28.408000946044922,-34.393001556396484 -10.104999542236328,-57.32600021362305 28.725000381469727,-27.31599998474121 C66.63500213623047,1.9819999933242798 52.525001525878906,57.32699966430664 52.525001525878906,57.32699966430664z"></path></g><g opacity="1" transform="matrix(1,0,0,1,205.6820068359375,355.5)"><path fill="#FF8800" fill-opacity="1" d=" M19.472999572753906,-29.839000701904297 C7.734000205993652,-36.04999923706055 -4.368000030517578,-34.35900115966797 -13.52299976348877,-31.125999450683594 C-22.954999923706055,-27.795000076293945 -30.48900032043457,-20.46299934387207 -34.159000396728516,-11.157999992370605 C-39.893001556396484,3.380000114440918 -42.90599822998047,17.865999221801758 -40.0099983215332,28.225000381469727 C-38.70800018310547,32.88399887084961 -34.38100051879883,36.04899978637695 -29.542999267578125,36.04899978637695 C-29.542999267578125,36.04899978637695 32.44499969482422,36.04899978637695 32.44499969482422,36.04899978637695 C32.44499969482422,36.04899978637695 42.90599822998047,-17.440000534057617 19.472999572753906,-29.839000701904297z"></path></g><g opacity="1" transform="matrix(1,0,0,1,204.53399658203125,351.73199462890625)"><path fill="#FFFFFF" fill-opacity="1" d=" M-4.456999778747559,-13.781999588012695 C-0.6800000071525574,-14.920999526977539 4.377999782562256,-9.673999786376953 6.840000152587891,-2.062000036239624 C9.302000045776367,5.550000190734863 8.234000205993652,12.642999649047852 4.455999851226807,13.781999588012695 C0.6790000200271606,14.920999526977539 -4.377999782562256,9.67300033569336 -6.839000225067139,2.062000036239624 C-9.300999641418457,-5.550000190734863 -8.234000205993652,-12.642999649047852 -4.456999778747559,-13.781999588012695z"></path></g><g opacity="1" transform="matrix(1,0,0,1,354.5450134277344,293.25)"><path fill="#FFFFFF" fill-opacity="1" d=" M-4.066999912261963,-14.253999710083008 C-0.25099998712539673,-15.258000373840332 4.663000106811523,-9.687999725341797 6.908999919891357,-1.815999984741211 C9.154999732971191,6.056000232696533 7.882999897003174,13.25100040435791 4.066999912261963,14.253999710083008 C0.25099998712539673,15.258000373840332 -4.663000106811523,9.6899995803833 -6.908999919891357,1.8179999589920044 C-9.154999732971191,-6.053999900817871 -7.882999897003174,-13.25 -4.066999912261963,-14.253999710083008z"></path></g><g opacity="1" transform="matrix(1,0,0,1,246,444.9809875488281)"><path fill="#404040" fill-opacity="1" d=" M64.96600341796875,11.255000114440918 C64.96600341796875,11.255000114440918 57.034000396728516,31.570999145507812 57.034000396728516,31.570999145507812 C47.41400146484375,51.4370002746582 30.277000427246094,53.430999755859375 9.527000427246094,47.23099899291992 C-6.474999904632568,42.44900131225586 -20.702999114990234,36.0260009765625 -40.58000183105469,18.107999801635742 C-40.58000183105469,18.107999801635742 -64.96700286865234,-3.6540000438690186 -58.1609992980957,-31.099000930786133 C-58.1609992980957,-31.099000930786133 -52.62300109863281,-53.43199920654297 -52.62300109863281,-53.43199920654297 C-52.62300109863281,-53.43199920654297 64.96600341796875,11.255000114440918 64.96600341796875,11.255000114440918z"></path><path stroke-linecap="butt" stroke-linejoin="miter" fill-opacity="0" stroke-miterlimit="10" stroke="#404040" stroke-opacity="1" stroke-width="0.098px" d=" M64.96600341796875,11.255000114440918 C64.96600341796875,11.255000114440918 57.034000396728516,31.570999145507812 57.034000396728516,31.570999145507812 C47.41400146484375,51.4370002746582 30.277000427246094,53.430999755859375 9.527000427246094,47.23099899291992 C-6.474999904632568,42.44900131225586 -20.702999114990234,36.0260009765625 -40.58000183105469,18.107999801635742 C-40.58000183105469,18.107999801635742 -64.96700286865234,-3.6540000438690186 -58.1609992980957,-31.099000930786133 C-58.1609992980957,-31.099000930786133 -52.62300109863281,-53.43199920654297 -52.62300109863281,-53.43199920654297 C-52.62300109863281,-53.43199920654297 64.96600341796875,11.255000114440918 64.96600341796875,11.255000114440918z"></path></g><g opacity="1" transform="matrix(1,0,0,1,252.0959930419922,423.9840087890625)"><path fill="#00AA42" fill-opacity="1" d=" M28.948999404907227,-42.154998779296875 C5.913000106811523,-59.933998107910156 -39.52000045776367,-59.422000885009766 -54.6609992980957,-39.529998779296875 C-69.8010025024414,-19.63800048828125 -52.47700119018555,11.46500015258789 -21.149999618530273,29.315000534057617 C9.192999839782715,46.60499954223633 39.52000045776367,59.933998107910156 54.65999984741211,40.042999267578125 C69.8010025024414,20.150999069213867 57.492000579833984,-20.125999450683594 28.948999404907227,-42.154998779296875z"></path></g><g opacity="1" transform="matrix(1,0,0,1,246.97799682617188,395.218994140625)"><path fill="#A5D67C" fill-opacity="1" d=" M5.760000228881836,-5.788000106811523 C8.42199993133545,-2.864000082015991 8.366000175476074,3.38700008392334 5.442999839782715,6.048999786376953 C2.5190000534057617,8.711000442504883 -2.1670000553131104,6.776000022888184 -4.828999996185303,3.8519999980926514 C-7.491000175476074,0.9279999732971191 -8.42199993133545,-3.305999994277954 -5.499000072479248,-5.9679999351501465 C-2.575000047683716,-8.630000114440918 3.0980000495910645,-8.711999893188477 5.760000228881836,-5.788000106811523z"></path></g><g opacity="1" transform="matrix(1,0,0,1,233.1269989013672,414.635986328125)"><path fill="#A5D67C" fill-opacity="1" d=" M2.507999897003174,-6.698999881744385 C6.208000183105469,-5.303999900817871 8.99899959564209,0.28999999165534973 7.604000091552734,3.990000009536743 C6.209000110626221,7.689000129699707 1.1549999713897705,8.093999862670898 -2.5439999103546143,6.698999881744385 C-6.24399995803833,5.303999900817871 -8.99899959564209,1.9550000429153442 -7.604000091552734,-1.7450000047683716 C-6.208000183105469,-5.443999767303467 -1.1920000314712524,-8.093999862670898 2.507999897003174,-6.698999881744385z"></path></g><g opacity="1" transform="matrix(1,0,0,1,268.5140075683594,425.8949890136719)"><path fill="#A5D67C" fill-opacity="1" d=" M-6.138999938964844,4.745999813079834 C-8.258000373840332,1.4079999923706055 -7.129000186920166,-4.741000175476074 -3.7899999618530273,-6.860000133514404 C-0.4519999921321869,-8.979000091552734 3.8299999237060547,-6.265999794006348 5.948999881744385,-2.927999973297119 C8.069000244140625,0.4099999964237213 8.258000373840332,4.741000175476074 4.920000076293945,6.860000133514404 C1.5820000171661377,8.979000091552734 -4.019999980926514,8.083999633789062 -6.138999938964844,4.745999813079834z"></path></g></g></g></svg>