<svg xmlns:xlink="http://www.w3.org/1999/xlink" xmlns="http://www.w3.org/2000/svg" viewBox="0 0 760 760" width="760" height="760" preserveAspectRatio="xMidYMid meet" style="width: 100%; height: 100%; transform: translate3d(0px, 0px, 0px);"><defs><clipPath id="__lottie_element_27"><rect width="760" height="760" x="0" y="0"></rect></clipPath></defs><g clip-path="url(#__lottie_element_27)"><g transform="matrix(1,0,0,1,161.95401000976562,514.4700317382812)" opacity="1" style="display: block;"><g opacity="1" transform="matrix(1,0,0,1,222.24200439453125,58.816001892089844)"><path fill="#FF7800" fill-opacity="1" d=" M-138.65199279785156,-58.566001892089844 C-171.76199340820312,-58.566001892089844 -158.33399963378906,-58.542999267578125 -183.2010040283203,-58.542999267578125 C-208.06700134277344,-58.542999267578125 -221.99200439453125,-36.42300033569336 -217.0189971923828,-19.017000198364258 C-212.04600524902344,-1.6100000143051147 -202.2740020751953,58.566001892089844 -136.98399353027344,58.566001892089844 C-136.98399353027344,58.566001892089844 151.5989990234375,58.566001892089844 151.5989990234375,58.566001892089844 C197.19000244140625,58.566001892089844 221.99200439453125,12.197999954223633 221.99200439453125,-19.190000534057617 C221.99200439453125,-49.8390007019043 203.29600524902344,-58.542999267578125 186.18299865722656,-58.542999267578125 C169.07000732421875,-58.542999267578125 -138.65199279785156,-58.566001892089844 -138.65199279785156,-58.566001892089844z"></path></g></g><g transform="matrix(1,0,0,1,169.67800903320312,432.9419860839844)" opacity="1" style="display: block;"><g opacity="1" transform="matrix(1,0,0,1,213.60400390625,41.11600112915039)"><path fill="#B10034" fill-opacity="1" d=" M-136.08999633789062,-37.27000045776367 C-164.625,-37.27000045776367 -213.35400390625,-35.25699996948242 -213.35400390625,0.6980000138282776 C-213.35400390625,35.608001708984375 -190.5260009765625,40.867000579833984 -136.08999633789062,40.867000579833984 C-136.08999633789062,40.867000579833984 163.3070068359375,40.867000579833984 163.3070068359375,40.867000579833984 C187.89100646972656,40.867000579833984 210.72000122070312,28.44499969482422 212.03599548339844,4.807000160217285 C213.35400390625,-18.832000732421875 196.5919952392578,-36.861000061035156 167.218994140625,-38.86399841308594 C137.84500122070312,-40.867000579833984 -136.08999633789062,-37.27000045776367 -136.08999633789062,-37.27000045776367z"></path></g><g opacity="1" transform="matrix(1,0,0,1,220.84500122070312,50.22800064086914)"><path fill="#FFB300" fill-opacity="1" d=" M-116.71700286865234,-48.582000732421875 C-116.71700286865234,-48.582000732421875 -19.231000900268555,39.529998779296875 -19.231000900268555,39.529998779296875 C-9.35099983215332,48.459999084472656 5.650000095367432,48.582000732421875 15.67300033569336,39.8129997253418 C15.67300033569336,39.8129997253418 116.71700286865234,-48.582000732421875 116.71700286865234,-48.582000732421875 C116.71700286865234,-48.582000732421875 -116.71700286865234,-48.582000732421875 -116.71700286865234,-48.582000732421875z"></path></g></g><g transform="matrix(1,0,0,1,163.81898498535156,386.7749938964844)" opacity="1" style="display: block;"><g opacity="1" transform="matrix(1,0,0,1,226.67100524902344,31.7549991607666)"><path fill="#00AF00" fill-opacity="1" d=" M-166.7550048828125,-28.8799991607666 C-185.92599487304688,-26.509000778198242 -211.12100219726562,-21.527999877929688 -218.77099609375,-5.775000095367432 C-226.4199981689453,9.97700023651123 -218.26100158691406,22.054000854492188 -207.552001953125,23.104000091552734 C-196.8419952392578,24.15399932861328 -179.50399780273438,15.227999687194824 -157.0659942626953,16.277999877929688 C-134.6280059814453,17.327999114990234 -128.50799560546875,29.929000854492188 -103.01000213623047,29.929000854492188 C-77.51300048828125,29.929000854492188 -69.86399841308594,16.277000427246094 -49.97600173950195,15.22700023651123 C-30.08799934387207,14.177000045776367 -6.630000114440918,31.503999710083008 15.807999610900879,29.929000854492188 C38.24599838256836,28.354000091552734 50.486000061035156,13.126999855041504 80.06400299072266,13.126999855041504 C109.64099884033203,13.126999855041504 109.13099670410156,27.304000854492188 133.0989990234375,26.77899932861328 C157.06700134277344,26.253999710083008 156.5570068359375,17.32699966430664 171.3459930419922,17.32699966430664 C186.13499450683594,17.32699966430664 196.843994140625,27.30500030517578 210.61300659179688,19.95400047302246 C224.3820037841797,12.60200023651123 226.42100524902344,-9.451000213623047 206.0229949951172,-17.851999282836914 C185.625,-26.253999710083008 162.16700744628906,-26.2549991607666 146.8679962158203,-28.8799991607666 C131.56900024414062,-31.5049991607666 -166.7550048828125,-28.8799991607666 -166.7550048828125,-28.8799991607666z"></path></g></g><g transform="matrix(1,0,0,1,154.20700073242188,193.8660125732422)" opacity="1" style="display: block;"><g opacity="1" transform="matrix(1,0,0,1,238.73699951171875,97.21800231933594)"><path fill="#FF7800" fill-opacity="1" d=" M-12.11299991607666,-96.96900177001953 C93.88099670410156,-96.96900177001953 170.302001953125,-61.36000061035156 206.68899536132812,4.48199987411499 C238.48699951171875,62.02199935913086 193.8179931640625,96.32599639892578 150.66400146484375,96.09200286865234 C114.29199981689453,95.89399719238281 -134.00599670410156,96.96800231933594 -173.375,96.1510009765625 C-212.7449951171875,95.33499908447266 -238.48599243164062,71.86499786376953 -236.21499633789062,30.225000381469727 C-233.94400024414062,-11.416000366210938 -155.2050018310547,-96.96900177001953 -12.11299991607666,-96.96900177001953z"></path></g></g><g transform="matrix(1,0,0,1,216.47999572753906,305.739990234375)" opacity="1" style="display: block;"><g opacity="1" transform="matrix(1,0,0,1,21.884000778198242,13.017999649047852)"><path fill="#FFB300" fill-opacity="1" d=" M0.2529999911785126,-12.767999649047852 C15.217000007629395,-12.767999649047852 21.634000778198242,-5.690000057220459 21.634000778198242,0.7570000290870667 C21.634000778198242,8.939000129699707 9.789999961853027,12.767999649047852 0.2529999911785126,12.767999649047852 C-9.284000396728516,12.767999649047852 -21.634000778198242,7.439000129699707 -21.62700080871582,0.5920000076293945 C-21.621000289916992,-5.576000213623047 -14.840999603271484,-12.767999649047852 0.2529999911785126,-12.767999649047852z"></path></g></g><g transform="matrix(1,0,0,1,502.8860168457031,305.3330078125)" opacity="1" style="display: block;"><g opacity="1" transform="matrix(1,0,0,1,21.884000778198242,13.017999649047852)"><path fill="#FFB300" fill-opacity="1" d=" M0.2529999911785126,-12.767999649047852 C15.217000007629395,-12.767999649047852 21.634000778198242,-5.690000057220459 21.634000778198242,0.7570000290870667 C21.634000778198242,8.939000129699707 9.789999961853027,12.767999649047852 0.2529999911785126,12.767999649047852 C-9.284000396728516,12.767999649047852 -21.634000778198242,7.439000129699707 -21.62700080871582,0.5920000076293945 C-21.621000289916992,-5.576000213623047 -14.840999603271484,-12.767999649047852 0.2529999911785126,-12.767999649047852z"></path></g></g><g transform="matrix(1,0,0,1,360.8800048828125,305.3330078125)" opacity="1" style="display: block;"><g opacity="1" transform="matrix(1,0,0,1,21.884000778198242,13.017999649047852)"><path fill="#FFB300" fill-opacity="1" d=" M0.2529999911785126,-12.767999649047852 C15.217000007629395,-12.767999649047852 21.634000778198242,-5.690000057220459 21.634000778198242,0.7570000290870667 C21.634000778198242,8.939000129699707 9.789999961853027,12.767999649047852 0.2529999911785126,12.767999649047852 C-9.284000396728516,12.767999649047852 -21.634000778198242,7.439000129699707 -21.62700080871582,0.5920000076293945 C-21.621000289916992,-5.576000213623047 -14.840999603271484,-12.767999649047852 0.2529999911785126,-12.767999649047852z"></path></g></g><g transform="matrix(1,0,0,1,291.3110046386719,253.71298217773438)" opacity="1" style="display: block;"><g opacity="1" transform="matrix(1,0,0,1,22.023000717163086,13.29800033569336)"><path fill="#FFB300" fill-opacity="1" d=" M-0.05299999937415123,-12.70199966430664 C14.906999588012695,-13.04800033569336 21.469999313354492,-6.119999885559082 21.604000091552734,0.32499998807907104 C21.773000717163086,8.505000114440918 10.01099967956543,12.605999946594238 0.47600001096725464,12.82699966430664 C-9.059000015258789,13.04800033569336 -21.516000747680664,8.006999969482422 -21.649999618530273,1.1610000133514404 C-21.77199935913086,-5.005000114440918 -15.142999649047852,-12.352999687194824 -0.05299999937415123,-12.70199966430664z"></path></g></g><g transform="matrix(1,0,0,1,434.135986328125,253.71298217773438)" opacity="1" style="display: block;"><g opacity="1" transform="matrix(1,0,0,1,22.023000717163086,13.29800033569336)"><path fill="#FFB300" fill-opacity="1" d=" M-0.05299999937415123,-12.70199966430664 C14.906999588012695,-13.04800033569336 21.469999313354492,-6.119999885559082 21.604000091552734,0.32499998807907104 C21.773000717163086,8.505000114440918 10.01099967956543,12.605999946594238 0.47600001096725464,12.82699966430664 C-9.059000015258789,13.04800033569336 -21.516000747680664,8.006999969482422 -21.649999618530273,1.1610000133514404 C-21.77199935913086,-5.005000114440918 -15.142999649047852,-12.352999687194824 -0.05299999937415123,-12.70199966430664z"></path></g></g></g></svg>