<svg xmlns:xlink="http://www.w3.org/1999/xlink" xmlns="http://www.w3.org/2000/svg" viewBox="0 0 760 760" width="760" height="760" preserveAspectRatio="xMidYMid meet" style="width: 100%; height: 100%; transform: translate3d(0px, 0px, 0px);"><defs><clipPath id="__lottie_element_115"><rect width="760" height="760" x="0" y="0"></rect></clipPath></defs><g clip-path="url(#__lottie_element_115)"><g transform="matrix(1.059999942779541,0,0,1.059999942779541,-22.79998779296875,-14.79998779296875)" opacity="1" style="display: block;"><g opacity="1" transform="matrix(1,0,0,1,393.9389953613281,206.6179962158203)"><path fill="#FF0000" fill-opacity="1" d=" M-34.13199996948242,44.21200180053711 C-47.70600128173828,43.632999420166016 -61.30500030517578,38.64099884033203 -64.21700286865234,20.41900062561035 C-67.12799835205078,2.197000026702881 -49.65999984741211,-14.27400016784668 -29.927000045776367,-18.82900047302246 C-18.416000366210938,-21.48699951171875 -11.968000411987305,-30.344999313354492 -8.85099983215332,-38.308998107910156 C-6.26200008392334,-44.92100143432617 1.8179999589920044,-47.4119987487793 7.770999908447266,-43.54199981689453 C19.19499969482422,-36.11600112915039 35.57699966430664,-22.847999572753906 49.97600173950195,-1.3079999685287476 C67.12799835205078,24.350000381469727 42.222999572753906,40.76599884033203 32.183998107910156,43.39799880981445 C16.8799991607666,47.4119987487793 -26.165000915527344,44.551998138427734 -34.13199996948242,44.21200180053711z"></path></g><g opacity="1" transform="matrix(1,0,0,1,380.2170104980469,420.19500732421875)"><path fill="#C9DDFF" fill-opacity="1" d=" M-114.30500030517578,-122.08899688720703 C-142.13499450683594,-75.48300170898438 -175.88999938964844,25.058000564575195 -187.5469970703125,79.75900268554688 C-197.1719970703125,124.9229965209961 -182.68800354003906,173.38499450683594 -128.69400024414062,177.24099731445312 C-74.69999694824219,181.09800720214844 88.59700012207031,181.46800231933594 135.52000427246094,178.25399780273438 C182.44400024414062,175.0399932861328 197.1719970703125,127 188.68699645996094,75.6510009765625 C181.05999755859375,29.493999481201172 149.20199584960938,-80.23799896240234 138.2740020751953,-107.87799835205078 C127.34700012207031,-135.51800537109375 112.5250015258789,-165.14500427246094 65.4280014038086,-175.25100708007812 C40.06999969482422,-180.69200134277344 -6.564000129699707,-181.46800231933594 -44.25899887084961,-175.25100708007812 C-77.65699768066406,-169.74200439453125 -97.63400268554688,-150.0070037841797 -114.30500030517578,-122.08899688720703z"></path></g><g opacity="1" transform="matrix(1,0,0,1,439.68499755859375,505.53900146484375)"><path fill="#404040" fill-opacity="1" d=" M76.0530014038086,92.91000366210938 C78.44200134277344,92.74600219726562 80.74299621582031,92.46099853515625 82.96600341796875,92.06999969482422 C79.19300079345703,61.73400115966797 65.5719985961914,-51.43600082397461 63.29499816894531,-70.10800170898438 C60.856998443603516,-90.09700012207031 46.71799850463867,-94.48400115966797 29.16699981689453,-94.97200012207031 C11.616000175476074,-95.45999908447266 -45.42599868774414,-95.45999908447266 -59.64699935913086,-94.97200012207031 C-73.86799621582031,-94.48400115966797 -82.96600341796875,-88.63400268554688 -81.7509994506836,-69.62000274658203 C-80.62999725341797,-52.08300018310547 -82.5510025024414,53.10200119018555 -82.85600280761719,94.87000274658203 C-20.319000244140625,95.45899963378906 48.268001556396484,94.81300354003906 76.0530014038086,92.91000366210938z"></path></g><g opacity="1" transform="matrix(1,0,0,1,423.0169982910156,334.9339904785156)"><path fill="#FFFFFF" fill-opacity="1" d=" M-14.994999885559082,-22.566999435424805 C-5.703000068664551,-28.48900032043457 3.9660000801086426,-18.40399932861328 10.237000465393066,-9.123000144958496 C14.906000137329102,-2.2130000591278076 24.523000717163086,14.152999877929688 15.869000434875488,21.301000595092773 C7.168000221252441,28.48900032043457 -1.312999963760376,23.55299949645996 -12.157999992370605,6.841000080108643 C-24.523000717163086,-12.21399974822998 -20.86400032043457,-18.82699966430664 -14.994999885559082,-22.566999435424805z"></path></g><g opacity="1" transform="matrix(1,0,0,1,264.51800537109375,490.26300048828125)"><path fill="#FFFFFF" fill-opacity="1" d=" M-18.30699920654297,20.04199981689453 C-26.222000122070312,12.37600040435791 -18.652000427246094,0.6320000290870667 -11.07800006866455,-7.61899995803833 C-5.438000202178955,-13.762999534606934 8.251999855041504,-26.910999298095703 17.211999893188477,-20.149999618530273 C26.22100067138672,-13.35200023651123 23.385000228881836,-3.9579999446868896 9.642000198364258,10.46500015258789 C-6.0269999504089355,26.910999298095703 -13.307999610900879,24.884000778198242 -18.30699920654297,20.04199981689453z"></path></g><g opacity="1" transform="matrix(1,0,0,1,307.6300048828125,377.3089904785156)"><path fill="#82DA5F" fill-opacity="1" d=" M-19.024999618530273,-15.449000358581543 C-21.719999313354492,-6.986999988555908 -24.225000381469727,1.8350000381469727 -26.155000686645508,8.9399995803833 C-28.150999069213867,16.284000396728516 -22.617000579833984,23.514999389648438 -15.008999824523926,23.514999389648438 C-15.008999824523926,23.514999389648438 8.092000007629395,23.514999389648438 8.092000007629395,23.514999389648438 C13.246999740600586,23.514999389648438 17.77899932861328,20.097999572753906 19.19700050354004,15.140999794006348 C19.19700050354004,15.140999794006348 26.040000915527344,-8.78499984741211 26.040000915527344,-8.78499984741211 C28.150999069213867,-16.166000366210938 22.61199951171875,-23.514999389648438 14.937999725341797,-23.514999389648438 C14.937999725341797,-23.514999389648438 -8.013999938964844,-23.514999389648438 -8.013999938964844,-23.514999389648438 C-13.050000190734863,-23.514999389648438 -17.496000289916992,-20.249000549316406 -19.024999618530273,-15.449000358581543z"></path></g></g></g></svg>