<svg xmlns:xlink="http://www.w3.org/1999/xlink" xmlns="http://www.w3.org/2000/svg" viewBox="0 0 760 760" width="760" height="760" preserveAspectRatio="xMidYMid meet" style="width: 100%; height: 100%; transform: translate3d(0px, 0px, 0px);"><defs><clipPath id="__lottie_element_130"><rect width="760" height="760" x="0" y="0"></rect></clipPath></defs><g clip-path="url(#__lottie_element_130)"><g transform="matrix(1,0,0,1,217.9239959716797,241.53500366210938)" opacity="1" style="display: block;"><g opacity="1" transform="matrix(1,0,0,1,30.445999145507812,23.04199981689453)"><path fill="#00AD2E" fill-opacity="1" d=" M-29.55299949645996,-0.8100000023841858 C-26.851999282836914,13.470999717712402 -25.202999114990234,22.79199981689453 -18.698999404907227,20.917999267578125 C-12.687999725341797,19.18600082397461 21.847999572753906,8.687000274658203 26.038999557495117,5.51800012588501 C30.19700050354004,2.374000072479248 22.834999084472656,-10.211999893188477 20.41900062561035,-15.565999984741211 C17.158000946044922,-22.79199981689453 15.315999984741211,-22.708999633789062 10.835000038146973,-21.69099998474121 C6.354000091552734,-20.67300033569336 -22.60099983215332,-10.10200023651123 -26.34600067138672,-8.364999771118164 C-29.944000244140625,-6.696000099182129 -30.195999145507812,-4.210999965667725 -29.55299949645996,-0.8100000023841858z"></path></g></g><g transform="matrix(1,0,0,1,377.0260009765625,204.5330047607422)" opacity="1" style="display: block;"><g opacity="1" transform="matrix(1,0,0,1,28.610000610351562,18.052000045776367)"><path fill="#00AD2E" fill-opacity="1" d=" M-27.207000732421875,-4.797999858856201 C-24.069000244140625,10.98900032043457 -23.716999053955078,17.802000045776367 -16.878999710083008,15.248000144958496 C-10.041999816894531,12.694000244140625 13.302000045776367,12.295999526977539 18.410999298095703,13.333999633789062 C23.520000457763672,14.371000289916992 26.226999282836914,-1.6480000019073486 27.29400062561035,-7.892000198364258 C28.361000061035156,-14.13599967956543 25.83099937438965,-17.398000717163086 20.878999710083008,-17.600000381469727 C15.927000045776367,-17.802000045776367 -17.30500030517578,-14.34000015258789 -21.57900047302246,-14.194999694824219 C-25.854000091552734,-14.048999786376953 -28.360000610351562,-10.597000122070312 -27.207000732421875,-4.797999858856201z"></path></g></g><g transform="matrix(1,0,0,1,176.0360107421875,217.74900817871094)" opacity="1" style="display: block;"><g opacity="1" transform="matrix(1,0,0,1,197.07699584960938,61.4379997253418)"><path fill="#FF8100" fill-opacity="1" d=" M-196.82699584960938,61.1879997253418 C-185.70199584960938,24.389999389648438 -162.5970001220703,-15.831999778747559 -88.1449966430664,-15.831999778747559 C-13.692999839782715,-15.831999778747559 -15.402999877929688,-61.1879997253418 66.7509994506836,-56.05400085449219 C148.90499877929688,-50.91899871826172 181.4239959716797,8.130000114440918 196.82699584960938,61.1879997253418 C196.82699584960938,61.1879997253418 -196.82699584960938,61.1879997253418 -196.82699584960938,61.1879997253418z"></path></g></g><g transform="matrix(1,0,0,1,230.66001892089844,261.3630065917969)" opacity="1" style="display: block;"><g opacity="1" transform="matrix(1,0,0,1,147.677001953125,32.66899871826172)"><path fill="#FFB809" fill-opacity="1" d=" M-147.427001953125,32.41899871826172 C-147.427001953125,32.41899871826172 -137.6479949951172,4.823999881744385 -83.37699890136719,3.8469998836517334 C-15.36299991607666,2.621000051498413 9.722999572753906,-31.469999313354492 62.433998107910156,-31.881999969482422 C131.10899353027344,-32.417999267578125 147.427001953125,32.41899871826172 147.427001953125,32.41899871826172"></path></g></g><g transform="matrix(1,0,0,1,333.0740051269531,298.9100036621094)" opacity="1" style="display: block;"><g opacity="1" transform="matrix(1,0,0,1,74.10900115966797,13.895000457763672)"><path fill="#FF8100" fill-opacity="1" d=" M-73.85900115966797,13.645000457763672 C-73.85900115966797,13.645000457763672 -37.82600021362305,12.526000022888184 -20.32200050354004,2.2249999046325684 C-6.953000068664551,-5.64300012588501 12.298999786376953,-13.645000457763672 31.923999786376953,-11.923999786376953 C65.86199951171875,-8.946999549865723 73.85900115966797,13.645000457763672 73.85900115966797,13.645000457763672 C73.85900115966797,13.645000457763672 -73.85900115966797,13.645000457763672 -73.85900115966797,13.645000457763672z"></path></g></g><g transform="matrix(1,0,0,1,140.28298950195312,325.9049987792969)" opacity="1" style="display: block;"><g opacity="1" transform="matrix(1,0,0,1,236.83999633789062,160.49600219726562)"><path fill="#C70000" fill-opacity="1" d=" M-218.36500549316406,-159.69700622558594 C-125.46900177001953,-160.24600219726562 149.19700622558594,-159.7519989013672 211.55099487304688,-159.6300048828125 C218.78599548339844,-159.61599731445312 224.78399658203125,-154.0399932861328 225.32699584960938,-146.8249969482422 C228.80999755859375,-100.5009994506836 236.59100341796875,57.81399917602539 183.9459991455078,94.4739990234375 C140.58700561523438,124.66699981689453 119.8239974975586,117.50499725341797 112.86599731445312,148.61500549316406 C111.46099853515625,154.8990020751953 105.88800048828125,159.3719940185547 99.4489974975586,159.41000366210938 C61.9379997253418,159.6300048828125 -55.055999755859375,160.24600219726562 -94.90299987792969,159.61000061035156 C-100.92400360107422,159.51400756835938 -106.21600341796875,155.54299926757812 -107.92900085449219,149.77099609375 C-112.68299865722656,133.75399780273438 -119.16999816894531,125.44400024414062 -152.71400451660156,109.0739974975586 C-229.14599609375,71.7750015258789 -236.58999633789062,-71.18800354003906 -232.10299682617188,-146.67100524902344 C-231.6699981689453,-153.95700073242188 -225.66400146484375,-159.6540069580078 -218.36500549316406,-159.69700622558594z"></path></g><g opacity="1" transform="matrix(1,0,0,1,234.20700073242188,67.72799682617188)"><path fill="#FF0000" fill-opacity="1" d=" M228.9709930419922,-37.31800079345703 C124.31199645996094,-38.17900085449219 -127.29499816894531,-37.152000427246094 -230.30799865722656,-36.816001892089844 C-230.9669952392578,-14.597000122070312 -230.51300048828125,11.461000442504883 -227.8979949951172,38.17900085449219 C-227.8979949951172,38.17900085449219 230.0489959716797,38.17900085449219 230.0489959716797,38.17900085449219 C230.9669952392578,9.279000282287598 230.05999755859375,-17.865999221801758 228.9709930419922,-37.31800079345703z"></path></g><g opacity="1" transform="matrix(1,0,0,1,39.9370002746582,67.18900299072266)"><path fill="#C70000" fill-opacity="1" d=" M35.222999572753906,6.965000152587891 C35.222999572753906,1.3919999599456787 35.57099914550781,-6.269999980926514 35.222999572753906,-10.10099983215332 C34.875,-13.932000160217285 35.222999572753906,-18.110000610351562 25.47100067138672,-18.110000610351562 C25.47100067138672,-18.110000610351562 -36.220001220703125,-18.110000610351562 -36.220001220703125,-18.110000610351562 C-36.26900100708008,-6.644000053405762 -36.000999450683594,5.548999786376953 -35.30699920654297,18.110000610351562 C-35.30699920654297,18.110000610351562 28.606000900268555,18.110000610351562 28.606000900268555,18.110000610351562 C36.268001556396484,18.110000610351562 35.222999572753906,12.536999702453613 35.222999572753906,6.965000152587891z"></path></g><g opacity="1" transform="matrix(1,0,0,1,163.82699584960938,67.01799774169922)"><path fill="#C70000" fill-opacity="1" d=" M-53.632999420166016,-0.9459999799728394 C-53.632999420166016,-0.9459999799728394 -53.632999420166016,11.428999900817871 -53.632999420166016,11.428999900817871 C-53.632999420166016,16.264999389648438 -52.236000061035156,18.2810001373291 -45.96699905395508,18.2810001373291 C-45.96699905395508,18.2810001373291 43.98400115966797,18.2810001373291 43.98400115966797,18.2810001373291 C50.672000885009766,18.2810001373291 53.61199951171875,17.677000045776367 53.61199951171875,11.295000076293945 C53.61199951171875,0.777999997138977 53.632999420166016,-6.6570000648498535 53.632999420166016,-10.12399959564209 C53.632999420166016,-13.59000015258789 53.0629997253418,-17.05699920654297 47.887001037597656,-17.66900062561035 C42.71099853515625,-18.2810001373291 -43.84400177001953,-17.66900062561035 -47.23500061035156,-17.66900062561035 C-49.37900161743164,-17.66900062561035 -53.632999420166016,-17.538000106811523 -53.632999420166016,-12.241999626159668 C-53.632999420166016,-12.241999626159668 -53.632999420166016,-0.9459999799728394 -53.632999420166016,-0.9459999799728394z"></path></g><g opacity="1" transform="matrix(1,0,0,1,306.5570068359375,67.01799774169922)"><path fill="#C70000" fill-opacity="1" d=" M-55.66899871826172,-0.9459999799728394 C-55.66899871826172,-0.9459999799728394 -55.66899871826172,11.428999900817871 -55.66899871826172,11.428999900817871 C-55.66899871826172,16.264999389648438 -54.21900177001953,18.2810001373291 -47.71200180053711,18.2810001373291 C-47.71200180053711,18.2810001373291 45.65599822998047,18.2810001373291 45.65599822998047,18.2810001373291 C52.59700012207031,18.2810001373291 55.650001525878906,17.677000045776367 55.650001525878906,11.295000076293945 C55.650001525878906,0.777999997138977 55.66899871826172,-6.6570000648498535 55.66899871826172,-10.12399959564209 C55.66899871826172,-13.59000015258789 55.07899856567383,-17.05699920654297 49.70600128173828,-17.66900062561035 C44.33399963378906,-18.2810001373291 -45.50899887084961,-17.66900062561035 -49.02899932861328,-17.66900062561035 C-51.255001068115234,-17.66900062561035 -55.66899871826172,-17.538000106811523 -55.66899871826172,-12.241999626159668 C-55.66899871826172,-12.241999626159668 -55.66899871826172,-0.9459999799728394 -55.66899871826172,-0.9459999799728394z"></path></g><g opacity="1" transform="matrix(1,0,0,1,430.6960144042969,67.23100280761719)"><path fill="#C70000" fill-opacity="1" d=" M33.16299819946289,-18.152999877929688 C33.16299819946289,-18.152999877929688 -23.857999801635742,-18.152999877929688 -23.857999801635742,-18.152999877929688 C-30.799999237060547,-18.152999877929688 -33.85100173950195,-17.549999237060547 -33.85100173950195,-11.168000221252441 C-33.85100173950195,-0.6510000228881836 -33.87300109863281,6.785999774932861 -33.87300109863281,10.251999855041504 C-33.87300109863281,13.718000411987305 -33.279998779296875,17.184999465942383 -27.908000946044922,17.79599952697754 C-24.773000717163086,18.152999877929688 7.127999782562256,18.093000411987305 33.85300064086914,17.98200035095215 C33.87200164794922,4.968999862670898 33.584999084472656,-7.285999774932861 33.16299819946289,-18.152999877929688z"></path></g></g><g transform="matrix(1,0,0,1,305.01898193359375,264.72100830078125)" opacity="1" style="display: block;"><g opacity="1" transform="matrix(1,0,0,1,26.763999938964844,20.020999908447266)"><path fill="#00AD2E" fill-opacity="1" d=" M-25.56399917602539,0.15800000727176666 C-23.929000854492188,5.326000213623047 -21.141000747680664,12.437000274658203 -19.077999114990234,16.527999877929688 C-17.516000747680664,19.625999450683594 -14.993000030517578,19.770999908447266 -12.218999862670898,18.900999069213867 C-7.736999988555908,17.4950008392334 19.225000381469727,8.447999954223633 23.634000778198242,6.599999904632568 C26.461999893188477,5.414000034332275 26.513999938964844,2.8949999809265137 25.68600082397461,0.4269999861717224 C23.694000244140625,-5.514999866485596 20.19300079345703,-13.027000427246094 18.399999618530273,-16.229000091552734 C16.44099998474121,-19.725000381469727 15.267999649047852,-19.770999908447266 11.1899995803833,-18.8439998626709 C7.111999988555908,-17.917999267578125 -19.23699951171875,-8.29800033569336 -22.645999908447266,-6.7170000076293945 C-25.920000076293945,-5.197999954223633 -26.513999938964844,-2.8450000286102295 -25.56399917602539,0.15800000727176666z"></path></g></g><g transform="matrix(0.5,0.8660253882408142,-0.8660253882408142,0.5,499.73968505859375,241.55319213867188)" opacity="1" style="display: block;"><g opacity="1" transform="matrix(1,0,0,1,26.763999938964844,20.020999908447266)"><path fill="#00AD2E" fill-opacity="1" d=" M-25.56399917602539,0.15800000727176666 C-23.929000854492188,5.326000213623047 -21.141000747680664,12.437000274658203 -19.077999114990234,16.527999877929688 C-17.516000747680664,19.625999450683594 -14.993000030517578,19.770999908447266 -12.218999862670898,18.900999069213867 C-7.736999988555908,17.4950008392334 19.225000381469727,8.447999954223633 23.634000778198242,6.599999904632568 C26.461999893188477,5.414000034332275 26.513999938964844,2.8949999809265137 25.68600082397461,0.4269999861717224 C23.694000244140625,-5.514999866485596 20.19300079345703,-13.027000427246094 18.399999618530273,-16.229000091552734 C16.44099998474121,-19.725000381469727 15.267999649047852,-19.770999908447266 11.1899995803833,-18.8439998626709 C7.111999988555908,-17.917999267578125 -19.23699951171875,-8.29800033569336 -22.645999908447266,-6.7170000076293945 C-25.920000076293945,-5.197999954223633 -26.513999938964844,-2.8450000286102295 -25.56399917602539,0.15800000727176666z"></path></g></g></g></svg>