<svg xmlns:xlink="http://www.w3.org/1999/xlink" xmlns="http://www.w3.org/2000/svg" viewBox="0 0 760 760" width="760" height="760" preserveAspectRatio="xMidYMid meet" style="width: 100%; height: 100%; transform: translate3d(0px, 0px, 0px);"><defs><clipPath id="__lottie_element_204"><rect width="760" height="760" x="0" y="0"></rect></clipPath><clipPath id="__lottie_element_206"><path d="M0,0 L760,0 L760,760 L0,760z"></path></clipPath></defs><g clip-path="url(#__lottie_element_204)"><g clip-path="url(#__lottie_element_206)" transform="matrix(1.1100000143051147,0,0,1.1100000143051147,-37.800018310546875,-17.800018310546875)" opacity="1" style="display: block;"><g transform="matrix(1,0,0,1,0,0)" opacity="1" style="display: block;"><g opacity="1" transform="matrix(1,0,0,1,391.0360107421875,374.6919860839844)"><path fill="#B51000" fill-opacity="1" d=" M-153.0229949951172,-87.15599822998047 C-153.0229949951172,-87.15599822998047 -172.718994140625,-17.517000198364258 -172.718994140625,-17.517000198364258 C-172.718994140625,-17.517000198364258 -165.16600036621094,32.68199920654297 -165.16600036621094,32.68199920654297 C-165.16600036621094,32.68199920654297 -115.38500213623047,87.15499877929688 -115.38500213623047,87.15499877929688 C-115.38500213623047,87.15499877929688 126.56900024414062,84.88500213623047 126.56900024414062,84.88500213623047 C126.56900024414062,84.88500213623047 107.48300170898438,3.0460000038146973 107.48300170898438,3.0460000038146973 C107.48300170898438,3.0460000038146973 141.21600341796875,-6.820000171661377 141.21600341796875,-6.820000171661377 C162.06399536132812,-12.916999816894531 172.71800231933594,-36.02899932861328 163.81199645996094,-55.840999603271484 C163.81199645996094,-55.840999603271484 -153.0229949951172,-87.15599822998047 -153.0229949951172,-87.15599822998047z"></path></g><g opacity="1" transform="matrix(1,0,0,1,256.12298583984375,361.58099365234375)"><path fill="#B51000" fill-opacity="1" d=" M-53.03300094604492,-10.8149995803833 C-50.832000732421875,-19.763999938964844 -44.0359992980957,-29.89299964904785 -23.72100067138672,-23.759000778198242 C-19.027000427246094,-22.341999053955078 -14.597000122070312,-20.183000564575195 -10.446999549865723,-17.572999954223633 C-5.179999828338623,-14.260000228881836 3.2360000610351562,-8.958999633789062 12.267000198364258,-17.923999786376953 C24.18000030517578,-29.75200080871582 34.65999984741211,-26.415000915527344 34.65999984741211,-26.415000915527344 C34.65999984741211,-26.415000915527344 55.106998443603516,-23.243999481201172 37.46200180053711,1.5089999437332153 C34.763999938964844,5.294000148773193 31.496000289916992,8.656000137329102 27.722999572753906,11.371000289916992 C17.534000396728516,18.70400047302246 -4.823999881744385,29.89299964904785 -36.483001708984375,18.344999313354492 C-36.483001708984375,18.344999313354492 -41.40399932861328,16.81800079345703 -46.21099853515625,12.456000328063965 C-52.643001556396484,6.61899995803833 -55.106998443603516,-2.380000114440918 -53.03300094604492,-10.8149995803833z"></path></g><g opacity="1" transform="matrix(1,0,0,1,240.86099243164062,406.72198486328125)"><path fill="#B51000" fill-opacity="1" d=" M-57.50400161743164,28.474000930786133 C-57.50400161743164,28.474000930786133 59.5890007019043,24.691999435424805 59.5890007019043,24.691999435424805 C59.5890007019043,24.691999435424805 60.840999603271484,-3.7820000648498535 36.14799880981445,0 C36.14799880981445,0 22.801000595092773,2.2239999771118164 20.798999786376953,-13.125 C18.797000885009766,-28.474000930786133 -13.236000061035156,-27.139999389648438 -13.236000061035156,-27.139999389648438 C-13.236000061035156,-27.139999389648438 -38.54600143432617,-27.16900062561035 -38.54600143432617,-27.16900062561035 C-38.54600143432617,-27.16900062561035 -60.840999603271484,-26.472000122070312 -60.395999908447266,-10.232999801635742 C-59.95100021362305,6.00600004196167 -57.50400161743164,28.474000930786133 -57.50400161743164,28.474000930786133z"></path></g><g opacity="1" transform="matrix(1,0,0,1,523.635986328125,414.3290100097656)"><path fill="#B51000" fill-opacity="1" d=" M-54.22800064086914,13.531999588012695 C-54.22800064086914,13.531999588012695 38.992000579833984,16.339000701904297 38.992000579833984,16.339000701904297 C38.992000579833984,16.339000701904297 54.22800064086914,-16.339000701904297 17.94300079345703,-14.133000373840332 C-18.343000411987305,-11.928000450134277 -24.757999420166016,-10.524999618530273 -24.757999420166016,-10.524999618530273 C-24.757999420166016,-10.524999618530273 -52.02299880981445,-7.117000102996826 -54.22800064086914,13.531999588012695z"></path></g></g><g transform="matrix(1,0,0,1,0,0)" opacity="1" style="display: block;"><g opacity="1" transform="matrix(1,0,0,1,541.3049926757812,384.8210144042969)"><path fill="#FF8800" fill-opacity="1" d=" M30.393999099731445,-28.486000061035156 C46.14500045776367,-30.483999252319336 60,-32.172000885009766 57.85499954223633,-14.109999656677246 C56.08399963378906,6.669000148773193 54.56700134277344,3.2990000247955322 34.33399963378906,6.949999809265137 C14.10099983215332,10.600000381469727 -31.422000885009766,23.236000061035156 -31.422000885009766,23.236000061035156 C-31.422000885009766,23.236000061035156 -56.7130012512207,32.17100143432617 -56.7130012512207,32.17100143432617 C-56.7130012512207,32.17100143432617 -60,-1.1929999589920044 -60,-1.1929999589920044 C-60,-1.1929999589920044 -28.986000061035156,-18.204999923706055 6.513999938964844,-24.410999298095703 C16.391000747680664,-26.13800048828125 22.224000930786133,-27.33799934387207 30.393999099731445,-28.486000061035156z"></path></g></g><g transform="matrix(1,0,0,1,0,0)" opacity="1" style="display: block;"><g opacity="1" transform="matrix(1,0,0,1,385.0299987792969,359.135986328125)"><path fill="#FF3008" fill-opacity="1" d=" M-69.4469985961914,-17.090999603271484 C-69.73500061035156,-18.02400016784668 -69.84200286865234,-19.009000778198242 -69.67500305175781,-19.97100067138672 C-69.30699920654297,-22.0939998626709 -67.62000274658203,-25.066999435424805 -61.055999755859375,-25.06999969482422 C-50.84700012207031,-25.075000762939453 -50.16699981689453,-22.413000106811523 -46.5369987487793,-15.607000350952148 C-42.90700149536133,-8.802000045776367 -33.37900161743164,3.9019999504089355 -7.9710001945495605,3.9019999504089355 C12.977999687194824,3.9019999504089355 33.604000091552734,-9.017000198364258 39.21500015258789,-18.783000946044922 C43.29800033569336,-25.891000747680664 51.6879997253418,-24.003999710083008 51.6879997253418,-24.003999710083008 C51.6879997253418,-24.003999710083008 69.84100341796875,-24.908000946044922 59.178001403808594,-6.758999824523926 C59.178001403808594,-6.758999824523926 41.29899978637695,25.891000747680664 -8.197999954223633,25.891000747680664 C-61.28300094604492,25.891000747680664 -67.58300018310547,-11.04800033569336 -69.4469985961914,-17.090999603271484z"></path></g></g><g transform="matrix(1,0,0,1,0,0)" opacity="1" style="display: block;"><g opacity="1" transform="matrix(1,0,0,1,321.031005859375,390.9490051269531)"><path fill="#FBBA43" fill-opacity="1" d=" M-79.65899658203125,-25.201000213623047 C-79.65899658203125,-25.201000213623047 -77.50199890136719,-33.90700149536133 -61.7859992980957,-31.402999877929688 C-46.06999969482422,-28.89900016784668 10.78600025177002,-17.80500030517578 72.87999725341797,3.7660000324249268 C72.87999725341797,3.7660000324249268 87.51699829101562,7.464000225067139 83.81900024414062,20.097999572753906 C79.77799987792969,33.90700149536133 76.73200225830078,33.65700149536133 63.78900146484375,30.576000213623047 C50.84600067138672,27.493999481201172 -22.496000289916992,0.8479999899864197 -74.88300323486328,-8.324999809265137 C-74.88300323486328,-8.324999809265137 -87.51699829101562,-10.409000396728516 -79.65899658203125,-25.201000213623047z"></path></g></g><g transform="matrix(1,0,0,1,0,0)" opacity="1" style="display: block;"><g opacity="1" transform="matrix(1,0,0,1,465.4219970703125,387.2799987792969)"><path fill="#A5D67C" fill-opacity="1" d=" M-38.24100112915039,42.46900177001953 C-38.24100112915039,42.46900177001953 -31.08300018310547,22.905000686645508 -43.96699905395508,14.315999984741211 C-56.85100173950195,5.72599983215332 -71.74800109863281,-5.236000061035156 -55.89699935913086,-17.655000686645508 C-43.03200149536133,-27.733999252319336 -30.881000518798828,-10.11299991607666 -30.881000518798828,-10.11299991607666 C-30.881000518798828,-10.11299991607666 -21.700000762939453,3.890000104904175 -14.144000053405762,-10.975000381469727 C-8.562000274658203,-21.95400047302246 -14.621000289916992,-45.332000732421875 12.57800006866455,-42.46799850463867 C39.777000427246094,-39.60499954223633 28.01300048828125,-21.37700080871582 25.388999938964844,-16.128000259399414 C22.763999938964844,-10.878999710083008 17.222000122070312,-2.253999948501587 33.09700012207031,-9.543000221252441 C43.40399932861328,-14.276000022888184 52.183998107910156,-19.325000762939453 61.965999603271484,-10.258999824523926 C71.74800109863281,-1.1929999589920044 64.91799926757812,12.883999824523926 32.619998931884766,18.371999740600586 C9.395999908447266,22.316999435424805 8.045000076293945,45.332000732421875 8.045000076293945,45.332000732421875 C8.045000076293945,45.332000732421875 -38.24100112915039,42.46900177001953 -38.24100112915039,42.46900177001953z"></path></g></g><g transform="matrix(1,0,0,1,0,0)" opacity="1" style="display: block;"><g opacity="1" transform="matrix(1,0,0,1,367.72698974609375,482.4110107421875)"><path fill="#FBBA43" fill-opacity="1" d=" M-174.5749969482422,-59.165000915527344 C-174.5749969482422,-59.165000915527344 81.85600280761719,-61.67300033569336 190.8280029296875,-56.10900115966797 C190.8280029296875,-56.10900115966797 208.5970001220703,-54.25400161743164 206.66799926757812,-36.16899871826172 C204.73899841308594,-18.083999633789062 200.5659942626953,17.156999588012695 178.30799865722656,49.61600112915039 C178.30799865722656,49.61600112915039 173.6699981689453,58.88999938964844 152.80299377441406,60.28200149536133 C131.93600463867188,61.67300033569336 -8.925999641418457,60.30799865722656 -156.02699279785156,60.28200149536133 C-156.02699279785156,60.28200149536133 -196.26300048828125,60.41999816894531 -202.98500061035156,21.371000289916992 C-208.5970001220703,-11.229999542236328 -205.38999938964844,-47.215999603271484 -205.38999938964844,-47.215999603271484 C-205.38999938964844,-47.215999603271484 -206.302001953125,-59.729000091552734 -174.5749969482422,-59.165000915527344z"></path></g><g opacity="1" transform="matrix(1,0,0,1,219.33399963378906,483.93701171875)"><path fill="#FF8800" fill-opacity="1" d=" M54.650001525878906,-61.172000885009766 C7.039999961853027,-61.01499938964844 -26.18199920654297,-60.689998626708984 -26.18199920654297,-60.689998626708984 C-57.909000396728516,-61.25400161743164 -56.99700164794922,-48.74100112915039 -56.99700164794922,-48.74100112915039 C-56.99700164794922,-48.74100112915039 -60.20399856567383,-12.755999565124512 -54.59199905395508,19.84600067138672 C-47.869998931884766,58.89500045776367 -7.635000228881836,58.75600051879883 -7.635000228881836,58.75600051879883 C-7.635000228881836,58.75600051879883 35.143001556396484,61.25400161743164 47.67300033569336,17.39699935913086 C60.20399856567383,-26.459999084472656 54.650001525878906,-61.172000885009766 54.650001525878906,-61.172000885009766z"></path></g><g opacity="1" transform="matrix(1,0,0,1,366.81500244140625,458.7070007324219)"><path fill="#00AA42" fill-opacity="1" d=" M197.3560028076172,-32.19900131225586 C88.38400268554688,-37.763999938964844 -173.66299438476562,-35.46099853515625 -173.66299438476562,-35.46099853515625 C-185.56100463867188,-35.672000885009766 -192.86900329589844,-34.04499816894531 -197.3560028076172,-31.92799949645996 C-197.3560028076172,-31.92799949645996 -172.47500610351562,-36.869998931884766 -166.9969940185547,-16.054000854492188 C-161.5189971923828,4.763000011444092 -164.34300231933594,37.57400131225586 -130.1909942626953,37.672000885009766 C-97.92900085449219,37.763999938964844 -92.16999816894531,11.234000205993652 -91.16300201416016,3.140000104904175 C-91.04299926757812,2.1710000038146973 -90.99400329589844,1.2000000476837158 -90.97000122070312,0.22499999403953552 C-90.90399932861328,-2.437000036239624 -89.21399688720703,-13.031999588012695 -66.35399627685547,-12.210000038146973 C-42.49599838256836,-11.35099983215332 -38.652000427246094,0.23399999737739563 -38.112998962402344,2.8320000171661377 C-37.972999572753906,3.50600004196167 -37.79899978637695,4.171000003814697 -37.55699920654297,4.815999984741211 C-35.999000549316406,8.972999572753906 -29.961000442504883,20.222999572753906 -10.354000091552734,19.726999282836914 C13.673999786376953,19.118000030517578 26.7450008392334,11.5649995803833 35.856998443603516,2.0859999656677246 C48.986000061035156,-11.572999954223633 71.02799987792969,-7.980999946594238 85.1259994506836,0 C100.27400207519531,8.574999809265137 145.3730010986328,21.24799919128418 173.5279998779297,0.9240000247955322 C195.8679962158203,-15.20300006866455 197.3560028076172,-32.19900131225586 197.3560028076172,-32.19900131225586z"></path></g></g><g transform="matrix(1,0,0,1,0,0)" opacity="1" style="display: block;"><g opacity="1" transform="matrix(1,0,0,1,372.5539855957031,277.7380065917969)"><path fill="#FBBA43" fill-opacity="1" d=" M-195.59300231933594,-4.883999824523926 C-195.59300231933594,-4.883999824523926 -186.4409942626953,-55.513999938964844 -105.0459976196289,-50.941001892089844 C-45.1609992980957,-49.553001403808594 81.53099822998047,-57.38100051879883 108.7509994506836,-59.04800033569336 C144.96400451660156,-60.97700119018555 186.1699981689453,-62.060001373291016 193.87600708007812,-34.641998291015625 C193.87600708007812,-34.641998291015625 202.05299377441406,-12.543999671936035 201.80999755859375,28.79400062561035 C202.05299377441406,47.2869987487793 202.0919952392578,62.060001373291016 154.2310028076172,59.64400100708008 C154.2310028076172,59.64400100708008 -52.6870002746582,52.689998626708984 -160.58200073242188,58.9010009765625 C-182.38800048828125,59.492000579833984 -197.91799926757812,55.779998779296875 -200.20700073242188,34.941001892089844 C-200.20700073242188,34.941001892089844 -202.09100341796875,24.625 -195.59300231933594,-4.883999824523926z"></path></g><g opacity="1" transform="matrix(1,0,0,1,225.05599975585938,280.0830078125)"><path fill="#FF8800" fill-opacity="1" d=" M54.59199905395508,54.3390007019043 C29.952999114990234,54.715999603271484 6.760000228881836,55.41299819946289 -13.083999633789062,56.55500030517578 C-34.88999938964844,57.14699935913086 -50.41999816894531,53.435001373291016 -52.70899963378906,32.59600067138672 C-52.70899963378906,32.59600067138672 -54.59199905395508,22.280000686645508 -48.095001220703125,-7.229000091552734 C-48.095001220703125,-7.229000091552734 -42.94599914550781,-35.70800018310547 -6.033999919891357,-48.018001556396484 C-6.033999919891357,-48.018001556396484 21.194000244140625,-57.14799880981445 35.13100051879883,-41.284000396728516 C47.63399887084961,-27.052000045776367 54.59199905395508,-1.753999948501587 54.59199905395508,36.30099868774414 C54.59199905395508,36.30099868774414 54.59199905395508,54.3390007019043 54.59199905395508,54.3390007019043z"></path></g></g></g></g></svg>