<svg xmlns:xlink="http://www.w3.org/1999/xlink" xmlns="http://www.w3.org/2000/svg" viewBox="0 0 760 760" width="760" height="760" preserveAspectRatio="xMidYMid meet" style="width: 100%; height: 100%; transform: translate3d(0px, 0px, 0px);"><defs><clipPath id="__lottie_element_156"><rect width="760" height="760" x="0" y="0"></rect></clipPath></defs><g clip-path="url(#__lottie_element_156)"><g transform="matrix(1.1399999856948853,0,0,1.1399999856948853,-43.214508056640625,-16.406219482421875)" opacity="1" style="display: block;"><g opacity="1" transform="matrix(1,0,0,1,307.5790100097656,332.45599365234375)"><path fill="#D55700" fill-opacity="1" d=" M-70.74199676513672,-58.40299987792969 C-40.314998626708984,-91.68199920654297 -13.984000205993652,-97.88700103759766 28.790000915527344,-111.0479965209961 C71.56400299072266,-124.20899963378906 100.35399627685547,-131.61199951171875 117.62799835205078,-142.30599975585938 C134.90199279785156,-152.99899291992188 153.82200622558594,-141.48300170898438 149.70899963378906,-122.56400299072266 C145.5959930419922,-103.6449966430664 134.0800018310547,-91.30599975585938 132.43499755859375,-48.53200149536133 C130.78900146484375,-5.757999897003174 117.62799835205078,65.80599975585938 56.75699996948242,100.35399627685547 C-4.11299991607666,134.9029998779297 -69.91899871826172,131.61199951171875 -94.59700012207031,141.48300170898438 C-119.27400207519531,151.35400390625 -129.96800231933594,152.99899291992188 -139.01600646972656,146.41900634765625 C-148.06399536132812,139.83799743652344 -153.82200622558594,122.56400299072266 -139.01600646972656,97.06400299072266 C-124.20999908447266,71.56400299072266 -123.38700103759766,-0.8230000138282776 -70.74199676513672,-58.40299987792969z"></path></g><g opacity="1" transform="matrix(1,0,0,1,326.8089904785156,211.97999572753906)"><path fill="#00AF00" fill-opacity="1" d=" M-59.709999084472656,23.451000213623047 C-58.53200149536133,30.63599967956543 -57.361000061035156,32.16400146484375 -52.33399963378906,31.1200008392334 C-46.3390007019043,29.874000549316406 -29.461999893188477,21.844999313354492 -26.417999267578125,20.79199981689453 C-23.37299919128418,19.738000869750977 44.928001403808594,1.3049999475479126 48.60200119018555,-1.1169999837875366 C50.76300048828125,-2.5420000553131104 50.652000427246094,-4.7829999923706055 50.194000244140625,-6.385000228881836 C49.827999114990234,-7.668000221252441 50.125999450683594,-9.04800033569336 51.0369987487793,-10.02299976348877 C54.61800003051758,-13.859000205993652 60.702999114990234,-18.424999237060547 60.87699890136719,-23.488000869750977 C60.939998626708984,-25.33300018310547 59.0890007019043,-28.78700065612793 53.78900146484375,-28.309999465942383 C46.340999603271484,-27.641000747680664 33.98699951171875,-23.499000549316406 28.570999145507812,-22.55699920654297 C21.371999740600586,-21.30500030517578 22.840999603271484,-31.53700065612793 16.582000732421875,-31.850000381469727 C10.321999549865723,-32.16299819946289 -3.3580000400543213,-20.93899917602539 -10.086999893188477,-18.434999465942383 C-16.81599998474121,-15.930999755859375 -12.08899974822998,-23.452999114990234 -19.235000610351562,-23.1299991607666 C-38.86399841308594,-22.2450008392334 -39.5890007019043,5.572000026702881 -47.597999572753906,12.741999626159668 C-56.09000015258789,20.344999313354492 -60.941001892089844,15.939000129699707 -59.709999084472656,23.451000213623047z"></path></g></g><g transform="matrix(1.1399999856948853,0,0,1.1399999856948853,-67.295166015625,-37.38995361328125)" opacity="1" style="display: block;"><g opacity="1" transform="matrix(1,0,0,1,509.885986328125,482.3970031738281)"><path fill="#D55700" fill-opacity="1" d=" M-96.79199981689453,-99.01699829101562 C-58.31700134277344,-99.01699829101562 -29.957000732421875,-91.79399871826172 1.7039999961853027,-74.49600219726562 C33.3650016784668,-57.196998596191406 46.04999923706055,-41.62900161743164 71.4209976196289,-33.555999755859375 C96.79199981689453,-25.483999252319336 95.06199645996094,13.270000457763672 71.4209976196289,24.22599983215332 C47.779998779296875,35.180999755859375 21.158000946044922,76.61699676513672 -10.940999984741211,87.48300170898438 C-45.00699996948242,99.01599884033203 -92.91400146484375,96.75700378417969 -92.91400146484375,96.75700378417969 C-92.91400146484375,96.75700378417969 -96.79199981689453,-99.01699829101562 -96.79199981689453,-99.01699829101562z"></path></g><g opacity="1" transform="matrix(1,0,0,1,409.34600830078125,481.2669982910156)"><path fill="#FFB300" fill-opacity="1" d=" M3.747999906539917,-97.88700103759766 C46.2599983215332,-97.88700103759766 50.29600143432617,-64.71800231933594 53.17900085449219,-24.930999755859375 C55.733001708984375,10.319000244140625 57.79199981689453,97.88700103759766 12.815999984741211,97.88700103759766 C-37.92599868774414,97.88700103759766 -46.939998626708984,55.21799850463867 -46.939998626708984,26.964000701904297 C-46.939998626708984,-1.2899999618530273 -57.79199981689453,-97.88700103759766 3.747999906539917,-97.88700103759766z"></path></g><g opacity="1" transform="matrix(1,0,0,1,412.593994140625,483.7640075683594)"><path fill="#B10034" fill-opacity="1" d=" M-3.0320000648498535,-78.23999786376953 C12.121999740600586,-78.6729965209961 21.982999801635742,-69.52300262451172 25.014999389648438,-47.1609992980957 C28.047000885009766,-24.798999786376953 32.595001220703125,39.255001068115234 25.014999389648438,58.58399963378906 C17.434999465942383,77.91400146484375 9.218999862670898,77.91400146484375 0.06199999898672104,78.29299926757812 C-9.095999717712402,78.6719970703125 -32.595001220703125,72.98699951171875 -32.215999603271484,17.650999069213867 C-31.836999893188477,-37.685001373291016 -29.562999725341797,-77.48200225830078 -3.0320000648498535,-78.23999786376953z"></path></g></g></g></svg>