<svg xmlns:xlink="http://www.w3.org/1999/xlink" xmlns="http://www.w3.org/2000/svg" viewBox="0 0 760 760" width="760" height="760" preserveAspectRatio="xMidYMid meet" style="width: 100%; height: 100%; transform: translate3d(0px, 0px, 0px);"><defs><clipPath id="__lottie_element_61"><rect width="760" height="760" x="0" y="0"></rect></clipPath></defs><g clip-path="url(#__lottie_element_61)"><g transform="matrix(1,0,0,1,92.69998168945312,108.73300170898438)" opacity="1" style="display: block;"><g opacity="1" transform="matrix(1,0,0,1,340.3890075683594,347.239990234375)"><path fill="#FF8200" fill-opacity="1" d=" M-143.1959991455078,-77.74099731445312 C-143.1959991455078,-77.74099731445312 -134.9040069580078,-17.851999282836914 -108.9520034790039,26.374000549316406 C-85.2249984741211,66.80699920654297 -63.0369987487793,84.19000244140625 -31.709999084472656,91.56099700927734 C-0.3840000033378601,98.93199920654297 40.80699920654297,98.00199890136719 81.38800048828125,98.24099731445312 C120.5459976196289,98.47100067138672 125.38300323486328,98.01000213623047 131.60299682617188,98.01000213623047 C135.9459991455078,98.01000213623047 143.1959991455078,96.62799835205078 143.1199951171875,88.33599853515625 C143.05099487304688,80.94000244140625 142.88900756835938,76.58799743652344 142.4290008544922,70.83000183105469 C141.6490020751953,61.0880012512207 131.83299255371094,61.38600158691406 115.93900299072266,61.84700012207031 C99.9280014038086,62.31100082397461 48.60300064086914,62.15399932861328 24.033000946044922,60.92499923706055 C-0.5370000004768372,59.696998596191406 -29.100000381469727,60.77199935913086 -50.597999572753906,43.573001861572266 C-72.09700012207031,26.374000549316406 -94.20999908447266,-8.02400016784668 -103.42400360107422,-41.80799865722656 C-108.84200286865234,-61.67499923706055 -113.86599731445312,-98.93199920654297 -113.86599731445312,-98.93199920654297 C-113.86599731445312,-98.93199920654297 -143.1959991455078,-77.74099731445312 -143.1959991455078,-77.74099731445312z"></path></g><g opacity="1" transform="matrix(1,0,0,1,111.14800262451172,417.5369873046875)"><path fill="#00AE2E" fill-opacity="1" d=" M-21.760000228881836,-103.63899993896484 C-21.760000228881836,-103.63899993896484 73.89399719238281,95.25 73.89399719238281,95.25 C75.29299926757812,98.16000366210938 73.44100189208984,101.58499908447266 70.23500061035156,101.97100067138672 C52.70899963378906,104.08200073242188 3.2829999923706055,107.16400146484375 -29.586999893188477,80.76899719238281 C-61.22999954223633,55.35900115966797 -75.29399871826172,24.954999923706055 -73.81300354003906,-18.73900032043457 C-72.66300201416016,-52.66299819946289 -51.060001373291016,-89.81600189208984 -28.65399932861328,-105.51200103759766 C-26.29599952697754,-107.16400146484375 -23.007999420166016,-106.23400115966797 -21.760000228881836,-103.63899993896484z"></path></g><g opacity="1" transform="matrix(1,0,0,1,114.25599670410156,418.760986328125)"><path fill="#99DA6F" fill-opacity="1" d=" M-7.511000156402588,-69.71700286865234 C-7.511000156402588,-69.71700286865234 -53.29899978637695,-39.78200149536133 -33.308998107910156,18.1200008392334 C-15.496000289916992,69.71700286865234 53.29899978637695,58.6609992980957 53.29899978637695,58.6609992980957 C53.29899978637695,58.6609992980957 -7.511000156402588,-69.71700286865234 -7.511000156402588,-69.71700286865234z"></path></g><g opacity="1" transform="matrix(1,0,0,1,308.5639953613281,413.3479919433594)"><path fill="#C85F00" fill-opacity="1" d=" M-144.5399932861328,25.452999114990234 C-144.5399932861328,25.452999114990234 -144.77000427246094,12.322999954223633 -138.08999633789062,5.874000072479248 C-131.19400024414062,-0.7850000262260437 -122.88800048828125,-0.11500000208616257 -121.04499816894531,-3.3399999141693115 C-119.2020034790039,-6.565000057220459 -117.95099639892578,-18.22800064086914 -112.29199981689453,-23.14900016784668 C-106.99400329589844,-27.756000518798828 -101.23699951171875,-31.441999435424805 -86.7239990234375,-31.441999435424805 C-67.1449966430664,-31.441999435424805 83.03800201416016,-33.744998931884766 95.93800354003906,-33.744998931884766 C108.83699798583984,-33.744998931884766 131.87100219726562,-27.295000076293945 138.3209991455078,-4.7220001220703125 C144.77000427246094,17.851999282836914 144.77000427246094,33.05400085449219 144.77000427246094,33.05400085449219 C144.77000427246094,33.05400085449219 -144.30999755859375,33.744998931884766 -144.30999755859375,33.744998931884766 C-144.30999755859375,33.744998931884766 -144.5399932861328,25.452999114990234 -144.5399932861328,25.452999114990234z"></path></g><g opacity="1" transform="matrix(1,0,0,1,279.2330017089844,488.1709899902344)"><path fill="#6588FF" fill-opacity="1" d=" M-168.49600219726562,48.21900177001953 C-196.13699340820312,48.21900177001953 -205.4929962158203,48.1879997253418 -213.64300537109375,36.854000091552734 C-223.4709930419922,23.187000274658203 -226.46499633789062,15.586000442504883 -233.29800415039062,1.534999966621399 C-239.91299438476562,-12.065999984741211 -247.27200317382812,-16.660999298095703 -261.7070007324219,-16.660999298095703 C-271.5350036621094,-16.660999298095703 -278.9830017089844,-19.503000259399414 -278.9830017089844,-32.095001220703125 C-278.9830017089844,-44.380001068115234 -273.6080017089844,-47.297000885009766 -252.7239990234375,-47.297000885009766 C-234.29600524902344,-47.297000885009766 -45.645999908447266,-47.9109992980957 -9.711999893188477,-47.9109992980957 C-9.711999893188477,-47.9109992980957 239.36399841308594,-48.21900177001953 254.1060028076172,-48.21900177001953 C268.8479919433594,-48.21900177001953 276.4989929199219,-48.16999816894531 277.7539978027344,-35.933998107910156 C278.9830017089844,-23.95599937438965 269.4620056152344,-19.96299934387207 259.0199890136719,-19.96299934387207 C242.43499755859375,-19.96299934387207 240.20899963378906,-17.812999725341797 231.07200622558594,-3.992000102996826 C222.1699981689453,9.473999977111816 217.63499450683594,17.429000854492188 209.34300231933594,28.485000610351562 C203.29800415039062,36.54499816894531 199.13099670410156,46.9900016784668 177.6320037841797,46.9900016784668 C177.6320037841797,46.9900016784668 -4.797999858856201,46.9900016784668 -4.797999858856201,46.9900016784668 C-42.266998291015625,46.9900016784668 -168.49600219726562,48.21900177001953 -168.49600219726562,48.21900177001953z"></path></g><g opacity="1" transform="matrix(1,0,0,1,337.885009765625,146.23800659179688)"><path fill="#FFB909" fill-opacity="1" d=" M178.8699951171875,-133.18699645996094 C187.468994140625,-122.13099670410156 185.01199340820312,-115.68099975585938 177.94900512695312,-109.84600067138672 C166.38800048828125,-100.29499816894531 -152.7449951171875,132.43099975585938 -162.343994140625,138.9239959716797 C-172.78599548339844,145.98800659179688 -177.6999969482422,145.98800659179688 -182.3070068359375,139.8459930419922 C-187.47000122070312,132.96200561523438 -185.0709991455078,127.86799621582031 -174.62899780273438,120.49700164794922 C-166.69400024414062,114.89600372314453 145.82200622558594,-128.61700439453125 151.53599548339844,-132.572998046875 C159.52099609375,-138.1009979248047 168.91400146484375,-145.98800659179688 178.8699951171875,-133.18699645996094z"></path></g><g opacity="1" transform="matrix(1,0,0,1,261.4590148925781,228.72900390625)"><path fill="#FF8200" fill-opacity="1" d=" M-37.084999084472656,-8.984000205993652 C-37.084999084472656,-8.984000205993652 4.453000068664551,-3.8389999866485596 10.595999717712402,28.101999282836914 C25.79800033569336,19.118999481201172 37.084999084472656,12.437999725341797 37.084999084472656,12.437999725341797 C37.084999084472656,12.437999725341797 30.711999893188477,-23.187999725341797 -12.89900016784668,-28.101999282836914 C-20.040000915527344,-22.573999404907227 -37.084999084472656,-8.984000205993652 -37.084999084472656,-8.984000205993652z"></path></g><g opacity="1" transform="matrix(1,0,0,1,376.18798828125,207.78900146484375)"><path fill="#FFB909" fill-opacity="1" d=" M194.1219940185547,-110.6760025024414 C201.3419952392578,-98.6729965209961 198.13299560546875,-92.56199645996094 190.4239959716797,-87.61100006103516 C177.80599975585938,-79.50700378417969 -166.80099487304688,113.5009994506836 -177.1060028076172,118.80400085449219 C-188.3159942626953,124.5719985961914 -193.19500732421875,123.98600006103516 -197.03700256347656,117.33799743652344 C-201.3419952392578,109.88800048828125 -198.35299682617188,105.11599731445312 -187.1060028076172,99.04299926757812 C-178.55999755859375,94.4280014038086 160.76499938964844,-110.08000183105469 166.91000366210938,-113.32599639892578 C175.4969940185547,-117.86199951171875 185.76400756835938,-124.5719985961914 194.1219940185547,-110.6760025024414z"></path></g><g opacity="1" transform="matrix(1,0,0,1,334.9320068359375,138.03599548339844)"><path fill="#FF8200" fill-opacity="1" d=" M-7.961999893188477,-100.03800201416016 C-8.897000312805176,-99.5250015258789 -9.458999633789062,-98.54399871826172 -9.41100025177002,-97.47899627685547 C-9.189000129699707,-92.5989990234375 -9.029999732971191,-77.93099975585938 -13.814000129699707,-62.33100128173828 C-20.878000259399414,-39.297000885009766 -26.72599983215332,-5.9079999923706055 -24.256999969482422,13.220999717712402 C-21.799999237060547,32.26300048828125 -14.428000450134277,51.91899871826172 -11.970999717712402,62.361000061035156 C-9.513999938964844,72.8030014038086 -0.9150000214576721,96.75900268554688 -6.442999839782715,115.8010025024414 C10.142000198364258,106.58699798583984 25.80500030517578,98.29499816894531 25.80500030517578,98.29499816894531 C25.80500030517578,98.29499816894531 26.72599983215332,69.42500305175781 19.969999313354492,44.54800033569336 C16.048999786376953,30.113000869750977 13.211999893188477,21.820999145507812 13.211999893188477,21.820999145507812 C13.211999893188477,21.820999145507812 9.456000328063965,5.541999816894531 9.220000267028809,-12.883999824523926 C8.913000106811523,-36.84000015258789 24.881999969482422,-85.05799865722656 25.496999740600586,-99.18599700927734 C25.788999557495117,-105.91200256347656 24.378999710083008,-110.7959976196289 23.2189998626709,-113.60399627685547 C22.57900047302246,-115.15299987792969 20.74799919128418,-115.80000305175781 19.27899932861328,-114.99400329589844 C19.27899932861328,-114.99400329589844 -7.961999893188477,-100.03800201416016 -7.961999893188477,-100.03800201416016z"></path></g></g><g transform="matrix(1,0,0,1,425.54498291015625,370.9179992675781)" opacity="1" style="display: block;"><g opacity="1" transform="matrix(1,0,0,1,87.35800170898438,67.73899841308594)"><path fill="#FF8200" fill-opacity="1" d=" M-79.43000030517578,-21.726999282836914 C-79.43000030517578,-21.726999282836914 -73.98999786376953,-33.47600173950195 -61.310001373291016,-43.53300094604492 C-52.40299987792969,-50.59700012207031 -31.18400001525879,-63.28300094604492 2.878999948501587,-65.33899688720703 C38.505001068115234,-67.48799896240234 60.61800003051758,-61.34600067138672 73.20999908447266,-45.68299865722656 C85.802001953125,-30.018999099731445 87.10800170898438,0.0010000000474974513 80.58100128173828,23.420000076293945 C75.36000061035156,42.154998779296875 65.83899688720703,57.51100158691406 45.569000244140625,63.34600067138672 C31.177000045776367,67.48899841308594 13.784000396728516,62.00600051879883 5.0289998054504395,55.05400085449219 C-5.413000106811523,46.762001037597656 -6.757999897003174,31.031999588012695 -0.49900001287460327,25.87700080871582 C4.7220001220703125,21.57699966430664 11.479000091552734,24.033000946044922 17.31399917602539,26.489999771118164 C23.14900016784668,28.94700050354004 30.82699966430664,28.333999633789062 34.20600128173828,20.6560001373291 C37.58399963378906,12.977999687194824 37.21799850463867,2.2320001125335693 32.055999755859375,-4.2210001945495605 C25.913000106811523,-11.89900016784668 17.006999969482422,-14.048999786376953 5.949999809265137,-10.670999526977539 C-3.1689999103546143,-7.883999824523926 -9.831000328063965,3.0320000648498535 -14.934000015258789,12.670999526977539 C-20.461999893188477,23.113000869750977 -22.91900062561035,30.483999252319336 -30.597000122070312,39.08300018310547 C-35.37300109863281,44.43199920654297 -43.16400146484375,48.297000885009766 -50.560001373291016,48.297000885009766 C-67.4520034790039,48.297000885009766 -87.10800170898438,11.135000228881836 -79.43000030517578,-21.726999282836914z"></path></g><g opacity="1" transform="matrix(1,0,0,1,123.65899658203125,112.27100372314453)"><path fill="#FF0000" fill-opacity="1" d=" M9.574999809265137,-12.821000099182129 C0.703000009059906,-12.336999893188477 -6.111000061035156,-14.64900016784668 -10.604999542236328,-16.952999114990234 C-13.402000427246094,-16.465999603271484 -16.378000259399414,-16.94300079345703 -18.988000869750977,-18.04199981689453 C-24.822999954223633,-20.499000549316406 -31.579999923706055,-22.95599937438965 -36.80099868774414,-18.6560001373291 C-43.060001373291016,-13.501999855041504 -41.71500015258789,2.2279999256134033 -31.27199935913086,10.520000457763672 C-22.51799964904785,17.472999572753906 -5.124000072479248,22.95599937438965 9.267999649047852,18.812999725341797 C28.06100082397461,13.402999877929688 37.60599899291992,-0.1979999989271164 43.060001373291016,-17.08099937438965 C35.57899856567383,-15.758000373840332 21.38800048828125,-13.46500015258789 9.574999809265137,-12.821000099182129z"></path></g><g opacity="1" transform="matrix(1,0,0,1,138.35699462890625,40.018001556396484)"><path fill="#FF0000" fill-opacity="1" d=" M30.13599967956543,-2.013000011444092 C28.305999755859375,-8.128999710083008 25.708999633789062,-13.612000465393066 22.211999893188477,-17.961999893188477 C11.892999649047852,-30.79800033569336 -4.834000110626221,-37.22999954223633 -30.13599967956543,-37.95500183105469 C-26.7549991607666,-31.743999481201172 -21.733999252319336,-20.382999420166016 -22.320999145507812,-8.442000389099121 C-22.92099952697754,3.750999927520752 -26.114999771118164,12.274999618530273 -28.277999877929688,16.759000778198242 C-24.70599937438965,18.023000717163086 -21.55900001525879,20.22800064086914 -18.94300079345703,23.499000549316406 C-15.885000228881836,27.320999145507812 -14.54800033569336,32.650001525878906 -14.63700008392334,37.95500183105469 C-3.187000036239624,35.62300109863281 20.38800048828125,27.308000564575195 30.13599967956543,-2.013000011444092z"></path></g><g opacity="1" transform="matrix(1,0,0,1,45.44900131225586,62.441001892089844)"><path fill="#FF0000" fill-opacity="1" d=" M34.35900115966797,5.769000053405762 C34.46099853515625,4.013000011444092 38.03099822998047,-9.673999786376953 32.810001373291016,-27.79400062561035 C27.156999588012695,-47.41400146484375 10.390000343322754,-53.59199905395508 10.390000343322754,-53.59199905395508 C10.378000259399414,-53.59299850463867 10.366000175476074,-53.59299850463867 10.354000091552734,-53.59400177001953 C-4.120999813079834,-48.805999755859375 -14.022000312805176,-42.500999450683594 -19.400999069213867,-38.23500061035156 C-32.08100128173828,-28.17799949645996 -37.520999908447266,-16.43000030517578 -37.520999908447266,-16.43000030517578 C-37.71200180053711,-15.612000465393066 -37.874000549316406,-14.789999961853027 -38.03099822998047,-13.967000007629395 C-38.03099822998047,-13.967000007629395 -19.66699981689453,48.81399917602539 -19.66699981689453,48.81399917602539 C-16.06800079345703,51.856998443603516 -12.295999526977539,53.59400177001953 -8.652000427246094,53.59400177001953 C-1.2549999952316284,53.59400177001953 6.535999774932861,49.729000091552734 11.310999870300293,44.38100051879883 C18.989999771118164,35.78099822998047 21.445999145507812,28.40999984741211 26.975000381469727,17.968000411987305 C29.132999420166016,13.890999794006348 31.575000762939453,9.590999603271484 34.35900115966797,5.769000053405762z"></path></g><g opacity="1" transform="matrix(1,0,0,1,28.5049991607666,75.51300048828125)"><path fill="#FF8200" fill-opacity="1" d=" M-3.071000099182129,-40.55799865722656 C11.958999633789062,-41.750999450683594 22.993999481201172,-29.795000076293945 24.26300048828125,-1.246000051498413 C25.490999221801758,26.395000457763672 17.20199966430664,41.750999450683594 2.1500000953674316,41.750999450683594 C-13.512999534606934,41.750999450683594 -23.218000411987305,19.631000518798828 -24.26300048828125,2.131999969482422 C-25.490999221801758,-18.44499969482422 -22.420000076293945,-39.02199935913086 -3.071000099182129,-40.55799865722656z"></path></g></g></g></svg>