<svg xmlns:xlink="http://www.w3.org/1999/xlink" xmlns="http://www.w3.org/2000/svg" viewBox="0 0 760 760" width="760" height="760" preserveAspectRatio="xMidYMid meet" style="width: 100%; height: 100%; transform: translate3d(0px, 0px, 0px);"><defs><clipPath id="__lottie_element_80"><rect width="760" height="760" x="0" y="0"></rect></clipPath></defs><g clip-path="url(#__lottie_element_80)"><g transform="matrix(1,0,0,1,59.326019287109375,192.48699951171875)" opacity="1" style="display: block;"><g opacity="1" transform="matrix(1,0,0,1,293.5320129394531,187.34500122070312)"><path fill="#BB6500" fill-opacity="1" d=" M-209.12600708007812,171.45399475097656 C-209.12600708007812,171.45399475097656 -293.2820129394531,114.81500244140625 -249.23599243164062,13.984999656677246 C-211.88499450683594,-71.51899719238281 -123.26200103759766,-125.68000030517578 -68.76100158691406,-149.70799255371094 C-2.4089999198913574,-178.96099853515625 62.36800003051758,-177.84500122070312 114.19599914550781,-162.7790069580078 C180.57200622558594,-143.48399353027344 194.9149932861328,-117.927001953125 215.06900024414062,-64.4280014038086 C221.8679962158203,-46.37799835205078 225.02699279785156,-16.625 225.02699279785156,-16.625 C225.02699279785156,-16.625 269.80499267578125,27.8700008392334 280.7969970703125,68.0270004272461 C293.2820129394531,113.63600158691406 278.010009765625,150.3300018310547 266.0400085449219,164.64500427246094 C254.06900024414062,178.96099853515625 -209.12600708007812,171.45399475097656 -209.12600708007812,171.45399475097656z"></path></g><g opacity="1" transform="matrix(1,0,0,1,141.3520050048828,294.9909973144531)"><path fill="#FF8A00" fill-opacity="1" d=" M19.885000228881836,-75.65399932861328 C38.487998962402344,-83.93199920654297 66.39800262451172,-99.14099884033203 72.11599731445312,-90.33699798583984 C77.08100128173828,-82.69200134277344 62.5890007019043,-59.35900115966797 42.69200134277344,-39.86399841308594 C23.030000686645508,-20.600000381469727 7.65500020980835,-4.302999973297119 18.948999404907227,-5.204999923706055 C30.243000030517578,-6.107999801635742 45.25600051879883,-11.607999801635742 68.25700378417969,-4.823999881744385 C99.5510025024414,4.4070000648498535 114.23100280761719,31.823999404907227 93.11599731445312,59.87200164794922 C69.37699890136719,91.40499877929688 22.142000198364258,99.14099884033203 -33.85300064086914,94.71399688720703 C-64.9280014038086,92.25800323486328 -101.90399932861328,73.60199737548828 -108.31900024414062,45.095001220703125 C-114.23100280761719,18.82200050354004 -93.0250015258789,-12.312000274658203 -70.8030014038086,-28.9060001373291 C-48.58100128173828,-45.499000549316406 19.885000228881836,-75.65399932861328 19.885000228881836,-75.65399932861328z"></path></g><g opacity="1" transform="matrix(1,0,0,1,367.3630065917969,328.09600830078125)"><path fill="#A7D87C" fill-opacity="1" d=" M-161.27099609375,28.270000457763672 C-161.27099609375,28.270000457763672 -148.48899841308594,-16.38800048828125 -118.84500122070312,-9.71500015258789 C-89.20099639892578,-3.0409998893737793 -80.70700073242188,3.885999917984009 -68.052001953125,-3.2920000553131104 C-55.39799880981445,-10.470000267028809 -38.28099822998047,-34.097999572753906 -25.388999938964844,-24.881999969482422 C-12.496000289916992,-15.666000366210938 -10.51099967956543,5.390999794006348 1.2380000352859497,5.250999927520752 C12.98799991607666,5.111000061035156 32.45399856567383,-18.542999267578125 50.650001525878906,-14.074999809265137 C68.84600067138672,-9.607000350952148 72.03700256347656,2.065999984741211 81.73799896240234,-0.3919999897480011 C91.44000244140625,-2.8499999046325684 127.35600280761719,-26.701000213623047 142.59800720214844,-17.51300048828125 C157.84100341796875,-8.324999809265137 161.27000427246094,19.742000579833984 148.61500549316406,26.920000076293945 C135.96099853515625,34.097999572753906 -161.27099609375,28.270000457763672 -161.27099609375,28.270000457763672z"></path></g><g opacity="1" transform="matrix(1,0,0,1,310.1820068359375,391.3240051269531)"><path fill="#6C87F8" fill-opacity="1" d=" M-241.18800354003906,-45.35499954223633 C-272.1650085449219,-45.35499954223633 -291.78900146484375,-45.30799865722656 -293.7489929199219,-31.365999221801758 C-295.14898681640625,-21.406999588012695 -289.656005859375,-15.293000221252441 -270.5150146484375,-12.444000244140625 C-258.8089904785156,-10.701000213623047 -257.4020080566406,-7.380000114440918 -253.77000427246094,-0.49300000071525574 C-248.57400512695312,9.361000061035156 -244.23399353027344,16.68600082397461 -233.36500549316406,26.45599937438965 C-221.57000732421875,37.05799865722656 -208.6199951171875,40.736000061035156 -173.75399780273438,43.11600112915039 C-138.88800048828125,45.49599838256836 144.6840057373047,43.11600112915039 168.6199951171875,43.11600112915039 C192.5570068359375,43.11600112915039 217.41900634765625,31.979000091552734 230.0290069580078,16.934999465942383 C243.48899841308594,0.8759999871253967 243.4340057373047,-0.05700000002980232 247.26400756835938,-4.724999904632568 C250.9199981689453,-9.180999755859375 256.0220031738281,-12.942000389099121 270.1659851074219,-16.79400062561035 C283.510986328125,-20.429000854492188 291.9490051269531,-22.365999221801758 293.4599914550781,-32.26499938964844 C295.14801025390625,-43.31700134277344 284.5169982910156,-45.24599838256836 257.25201416015625,-45.35499954223633 C222.052001953125,-45.49599838256836 -241.18800354003906,-45.35499954223633 -241.18800354003906,-45.35499954223633z"></path></g><g opacity="1" transform="matrix(1,0,0,1,435.2030029296875,181.2259979248047)"><path fill="#FF8A00" fill-opacity="1" d=" M123.8489990234375,-103.89399719238281 C123.8489990234375,-103.89399719238281 132.06300354003906,-60.67100143432617 119.48799896240234,-19.58099937438965 C106.91300201416016,21.510000228881836 87.1709976196289,57.32400131225586 51.393001556396484,80.71099853515625 C5.089000225067139,110.97799682617188 -38.959999084472656,124.84400177001953 -86.79499816894531,105.20800018310547 C-126.53700256347656,88.89399719238281 -130.1020050048828,64.72599792480469 -131.08200073242188,40.98400115966797 C-132.06300354003906,17.243000030517578 -114.73200225830078,-25.077999114990234 -88.63600158691406,-52.130001068115234 C-62.540000915527344,-79.18199920654297 -20.76300048828125,-101.40399932861328 1.003999948501587,-107.95600128173828 C22.770000457763672,-114.50800323486328 68.78600311279297,-124.84400177001953 102.6719970703125,-124.25800323486328 C119.39600372314453,-123.96800231933594 123.64399719238281,-121.3759994506836 123.8489990234375,-103.89399719238281z"></path></g><g opacity="1" transform="matrix(1,0,0,1,568.6099853515625,52.10100173950195)"><path fill="#D2DEFF" fill-opacity="1" d=" M4.422999858856201,26.361000061035156 C-4.750999927520752,28.854999542236328 -9.541999816894531,34.66600036621094 -18.683000564575195,41.979000091552734 C-23.805999755859375,46.077999114990234 -32.2599983215332,51.85100173950195 -40.79600143432617,48.369998931884766 C-50.68299865722656,44.3390007019043 -59.637001037597656,30.663999557495117 -52.499000549316406,19.947999954223633 C-44.672000885009766,8.197999954223633 -42.250999450683594,9.187999725341797 -38.97999954223633,2.23799991607666 C-32.2859992980957,-11.984999656677246 -32.875,-23.555999755859375 -24.83799934387207,-35.37099838256836 C-16.458999633789062,-47.6879997253418 -6.678999900817871,-51.85100173950195 1.968999981880188,-50.24300003051758 C9.116999626159668,-48.91400146484375 13.517999649047852,-46.242000579833984 15.869000434875488,-35.13100051879883 C17.384000778198242,-27.974000930786133 14.626999855041504,-22.625 19.562000274658203,-21.11199951171875 C27.40399932861328,-18.707000732421875 38.01300048828125,-24.045000076293945 48.34299850463867,-18.820999145507812 C55.59199905395508,-15.154999732971191 59.63600158691406,-4.63700008392334 53.52799987792969,7.881999969482422 C48.053001403808594,19.101999282836914 38.13100051879883,23.37700080871582 28.922000885009766,24.09000015258789 C17.448999404907227,24.976999282836914 14.10099983215332,23.729999542236328 4.422999858856201,26.361000061035156z"></path></g></g></g></svg>