<svg xmlns:xlink="http://www.w3.org/1999/xlink" xmlns="http://www.w3.org/2000/svg" viewBox="0 0 760 760" width="760" height="760" preserveAspectRatio="xMidYMid meet" style="width: 100%; height: 100%; transform: translate3d(0px, 0px, 0px);"><defs><clipPath id="__lottie_element_199"><rect width="760" height="760" x="0" y="0"></rect></clipPath></defs><g clip-path="url(#__lottie_element_199)"><g transform="matrix(1,0,0,1,86.29898071289062,207.70399475097656)" opacity="1" style="display: block;"><g opacity="1" transform="matrix(1,0,0,1,295.99798583984375,74.34400177001953)"><path fill="#6C87F8" fill-opacity="1" d=" M-283.7019958496094,74.09400177001953 C-283.7019958496094,74.09400177001953 -283.39801025390625,21.04599952697754 -249.3730010986328,-11.008999824523926 C-221.90199279785156,-36.888999938964844 -186.13699340820312,-51.99700164794922 -129.66000366210938,-62.180999755859375 C-81.3550033569336,-70.89099884033203 -50.74700164794922,-73.0979995727539 -16.947999954223633,-73.06800079345703 C12.960000038146973,-73.04199981689453 78.52200317382812,-74.09400177001953 122.2229995727539,-65.822998046875 C187.47500610351562,-53.47100067138672 234.72999572753906,-36.04999923706055 259.9330139160156,3.871000051498413 C283.70098876953125,41.52000045776367 278.4849853515625,73.91400146484375 278.4849853515625,73.91400146484375 C278.4849853515625,73.91400146484375 172.91600036621094,-10.465999603271484 -13.446999549865723,-1.2109999656677246 C-199.81100463867188,8.043999671936035 -283.7019958496094,74.09400177001953 -283.7019958496094,74.09400177001953z"></path></g><g opacity="1" transform="matrix(1,0,0,1,292.0159912109375,154.9759979248047)"><path fill="#A7D87C" fill-opacity="1" d=" M282.4700012207031,-4.361000061035156 C282.4700012207031,44.2140007019043 165.44000244140625,90.45800018310547 1.7380000352859497,90.45800018310547 C-137.7239990234375,90.45800018310547 -276.3710021972656,44.797000885009766 -278.9939880371094,-3.7070000171661377 C-282.468994140625,-67.96199798583984 -147.33599853515625,-84.25599670410156 8.704000473022461,-87.5250015258789 C148.68699645996094,-90.45800018310547 282.4700012207031,-52.93600082397461 282.4700012207031,-4.361000061035156z"></path></g><g opacity="1" transform="matrix(1,0,0,1,340.83099365234375,79.29399871826172)"><path fill="#A7D87C" fill-opacity="1" d=" M-101.2239990234375,32.65999984741211 C-113.94100189208984,27.214000701904297 -145.86500549316406,10.220999717712402 -150.94500732421875,-6.166999816894531 C-156.3000030517578,-23.440000534057617 -144.31300354003906,-40.63999938964844 -126.2959976196289,-45.92499923706055 C-108.27899932861328,-51.21099853515625 -87.6729965209961,-37.17499923706055 -78.8219985961914,-30.18899917602539 C-69.97200012207031,-23.20199966430664 -59.54600143432617,-14.312000274658203 -59.54600143432617,-14.312000274658203 C-51.8390007019043,-8.420999526977539 -49.678001403808594,-13.414999961853027 -49.66400146484375,-19.427000045776367 C-49.650001525878906,-25.900999069213867 -49.12900161743164,-37.994998931884766 -39.50600051879883,-43.61000061035156 C-30.950000762939453,-48.60200119018555 -20.513999938964844,-48.742000579833984 -11.663000106811523,-41.03799819946289 C-2.7709999084472656,-33.29800033569336 0.2290000021457672,-25.43400001525879 15.102999687194824,-8.220000267028809 C30.22599983215332,9.281000137329102 50.8129997253418,18.618000030517578 75.24400329589844,19.594999313354492 C93.00399780273438,20.30500030517578 114.22100067138672,12.595999717712402 128.7429962158203,5.5229997634887695 C136.33099365234375,1.8279999494552612 140.8990020751953,-1.3229999542236328 143.8719940185547,-2.9010000228881836 C146.8459930419922,-4.480000019073486 150.6739959716797,-5.164999961853027 152.58700561523438,-1.4880000352859497 C154.49899291992188,2.187999963760376 155.39199829101562,4.052999973297119 155.8459930419922,6.309000015258789 C156.3000030517578,8.5649995803833 156.2209930419922,11.576000213623047 149.4669952392578,14.494999885559082 C142.71299743652344,17.413999557495117 132.24099731445312,21.89299964904785 111.20600128173828,29.115999221801758 C87.09100341796875,37.39699935913086 46.542999267578125,46.62300109863281 16.479000091552734,48.91699981689453 C-13.585000038146973,51.21099853515625 -36.29999923706055,50.42399978637695 -55.69300079345703,45.94200134277344 C-75.08599853515625,41.45899963378906 -101.2239990234375,32.65999984741211 -101.2239990234375,32.65999984741211z"></path></g><g opacity="1" transform="matrix(1,0,0,1,366.38299560546875,100.78600311279297)"><path fill="#B71000" fill-opacity="1" d=" M17.20800018310547,-55.779998779296875 C29.32200050354004,-52.45500183105469 42.14899826049805,-42.715999603271484 47.61199951171875,-24.902000427246094 C53.8120002746582,-4.685999870300293 50.9379997253418,19.041000366210938 35.736000061035156,37.33000183105469 C20.534000396728516,55.619998931884766 -1.7940000295639038,62.507999420166016 -21.509000778198242,54.43199920654297 C-41.345001220703125,46.305999755859375 -50.71799850463867,31.55500030517578 -52.150001525878906,17.85300064086914 C-53.8120002746582,1.9390000104904175 -49.29800033569336,-13.024999618530273 -38.37200164794922,-27.98900032043457 C-27.445999145507812,-42.95399856567383 -7.302000045776367,-62.507999420166016 17.20800018310547,-55.779998779296875z"></path></g><g opacity="1" transform="matrix(1,0,0,1,385.5849914550781,164.47500610351562)"><path fill="#00AB42" fill-opacity="1" d=" M-164.66099548339844,76.25199890136719 C-164.66099548339844,76.25199890136719 -156.5959930419922,72.64600372314453 -150.1439971923828,63.430999755859375 C-140.14700317382812,49.154998779296875 -138.62899780273438,39.37300109863281 -132.96600341796875,25.999000549316406 C-128.3939971923828,15.201000213623047 -118.24400329589844,0.36899998784065247 -104.7750015258789,-2.240000009536743 C-94.56099700927734,-4.218999862670898 -86.1510009765625,-0.6859999895095825 -77.88700103759766,7.869999885559082 C-69.94999694824219,16.089000701904297 -61.43600082397461,13.616999626159668 -57.72999954223633,10.416999816894531 C-54.025001525878906,7.2179999351501465 -49.349998474121094,-2.8980000019073486 -46.624000549316406,-10.027999877929688 C-46.624000549316406,-10.027999877929688 -41.10900115966797,-27.871999740600586 -37.31399917602539,-36.05500030517578 C-33.51900100708008,-44.237998962402344 -24.207000732421875,-59.95000076293945 -10.79800033569336,-64.00599670410156 C1.2979999780654907,-67.66400146484375 11.432999610900879,-65.68099975585938 21.03499984741211,-60.13999938964844 C30.636999130249023,-54.5989990234375 35.486000061035156,-49.21799850463867 40.67399978637695,-47.6619987487793 C45.862998962402344,-46.10599899291992 51.02799987792969,-46.72999954223633 54.744998931884766,-50.95100021362305 C58.72700119018555,-55.472999572753906 62.263999938964844,-63.68600082397461 66.86399841308594,-72.4469985961914 C70.86000061035156,-80.06099700927734 83.19599914550781,-93.27400207519531 96.2239990234375,-97.23699951171875 C111.11199951171875,-101.76599884033203 129.2010040283203,-102.125 144.84500122070312,-90.39700317382812 C152.26699829101562,-84.83300018310547 164.66099548339844,-73.48899841308594 164.54200744628906,-50.698001861572266 C164.4219970703125,-27.908000946044922 152.10699462890625,-9.85099983215332 139.15499877929688,3.7009999752044678 C126.2030029296875,17.253000259399414 111.58399963378906,31.523000717163086 82.10099792480469,49.150001525878906 C50.01100158691406,68.33599853515625 -39.29800033569336,102.125 -99.35199737548828,94.52100372314453 C-138.3000030517578,89.58899688720703 -164.66099548339844,76.25199890136719 -164.66099548339844,76.25199890136719z"></path></g><g opacity="1" transform="matrix(1,0,0,1,351.5,222.05299377441406)"><path fill="#A7D87C" fill-opacity="1" d=" M101.2239990234375,32.65999984741211 C113.94100189208984,27.214000701904297 145.86500549316406,10.220999717712402 150.94500732421875,-6.166999816894531 C156.3000030517578,-23.43899917602539 144.31300354003906,-40.63999938964844 126.2959976196289,-45.92499923706055 C108.27899932861328,-51.21099853515625 87.6719970703125,-37.17499923706055 78.8219985961914,-30.18899917602539 C69.97200012207031,-23.20199966430664 59.54600143432617,-14.312000274658203 59.54600143432617,-14.312000274658203 C51.8390007019043,-8.420999526977539 49.678001403808594,-13.414999961853027 49.66400146484375,-19.427000045776367 C49.650001525878906,-25.900999069213867 49.12900161743164,-37.994998931884766 39.50600051879883,-43.61000061035156 C30.950000762939453,-48.60200119018555 20.513999938964844,-48.742000579833984 11.663000106811523,-41.03799819946289 C2.7709999084472656,-33.29800033569336 -0.2290000021457672,-25.43400001525879 -15.102999687194824,-8.220000267028809 C-30.22599983215332,9.281000137329102 -50.8129997253418,18.618000030517578 -75.24400329589844,19.594999313354492 C-93.00399780273438,20.30500030517578 -114.22100067138672,12.595999717712402 -128.7429962158203,5.5229997634887695 C-136.33099365234375,1.8279999494552612 -140.8990020751953,-1.3229999542236328 -143.8719940185547,-2.9010000228881836 C-146.8459930419922,-4.480000019073486 -150.6739959716797,-5.164999961853027 -152.58700561523438,-1.4880000352859497 C-154.49899291992188,2.188999891281128 -155.39199829101562,4.052999973297119 -155.8459930419922,6.309000015258789 C-156.3000030517578,8.5649995803833 -156.2209930419922,11.576000213623047 -149.4669952392578,14.494999885559082 C-142.71299743652344,17.413999557495117 -132.24099731445312,21.89299964904785 -111.20600128173828,29.115999221801758 C-87.09100341796875,37.39699935913086 -46.542999267578125,46.62300109863281 -16.479000091552734,48.91699981689453 C13.585000038146973,51.21099853515625 36.29999923706055,50.42399978637695 55.69300079345703,45.94200134277344 C75.08599853515625,41.45899963378906 101.2239990234375,32.65999984741211 101.2239990234375,32.65999984741211z"></path></g><g opacity="1" transform="matrix(1,0,0,1,171.19200134277344,108.20600128173828)"><path fill="#00AB42" fill-opacity="1" d=" M135.9720001220703,15.460000038146973 C135.9720001220703,15.460000038146973 129.32400512695312,14.437000274658203 122.73100280761719,8.970999717712402 C112.51699829101562,0.503000020980835 109.43299865722656,-6.374000072479248 102.58100128173828,-15.053000450134277 C97.05000305175781,-22.059999465942383 86.61100006103516,-30.9060001373291 76.19599914550781,-30.108999252319336 C68.29900360107422,-29.503999710083008 62.83599853515625,-25.215999603271484 58.492000579833984,-17.270000457763672 C54.319000244140625,-9.63700008392334 47.56999969482422,-9.73799991607666 44.20500183105469,-11.34000015258789 C40.840999603271484,-12.942999839782715 35.37099838256836,-19.429000854492188 31.933000564575195,-24.114999771118164 C31.933000564575195,-24.114999771118164 24.291000366210938,-36.10599899291992 19.85700035095215,-41.349998474121094 C15.42300033569336,-46.59299850463867 5.421999931335449,-56.25299835205078 -5.239999771118164,-56.53099822998047 C-14.857999801635742,-56.78099822998047 -21.89900016784668,-53.284000396728516 -27.83300018310547,-47.28200149536133 C-33.766998291015625,-41.279998779296875 -36.24399948120117,-36.35300064086914 -39.7400016784668,-34.165000915527344 C-43.236000061035156,-31.97800064086914 -47.15399932861328,-31.39699935913086 -50.733001708984375,-33.74700164794922 C-54.56700134277344,-36.26499938964844 -58.81800079345703,-41.582000732421875 -63.95899963378906,-47.0890007019043 C-68.4260025024414,-51.874000549316406 -80.1449966430664,-59.090999603271484 -90.50800323486328,-59.37699890136719 C-102.35099792480469,-59.702999114990234 -115.7040023803711,-56.32400131225586 -124.8280029296875,-44.5629997253418 C-129.156005859375,-38.983001708984375 -135.9720001220703,-28.158000946044922 -131.29400634765625,-11.449999809265137 C-126.61699676513672,5.258999824523926 -113.93900299072266,16.035999298095703 -101.69999694824219,23.37700080871582 C-89.46099853515625,30.7189998626709 -75.8550033569336,38.25199890136719 -50.659000396728516,45.25699996948242 C-23.233999252319336,52.880001068115234 49.14099884033203,59.70199966430664 91.7020034790039,42.025001525878906 C119.30400085449219,30.56100082397461 135.9720001220703,15.460000038146973 135.9720001220703,15.460000038146973z"></path></g><g opacity="1" transform="matrix(1,0,0,1,175.8260040283203,146.33799743652344)"><path fill="#A7D87C" fill-opacity="1" d=" M-79.18800354003906,55.270999908447266 C-92.79199981689453,52.757999420166016 -134.53599548339844,46.67499923706055 -156.53799438476562,19.17300033569336 C-175.5749969482422,-4.623000144958496 -152.02699279785156,-37.944000244140625 -134.53599548339844,-44.77000045776367 C-96.9489974975586,-59.4379997253418 -74.35299682617188,-35.57500076293945 -62.895999908447266,-25.472999572753906 C-52.02899932861328,-15.892000198364258 -41.71500015258789,-13.486000061035156 -41.71500015258789,-13.486000061035156 C-35.18299865722656,-10.392000198364258 -30.77199935913086,-15.527999877929688 -32.08300018310547,-21.395999908447266 C-33.49399948120117,-27.714000701904297 -35.650001525878906,-39.62699890136719 -27.499000549316406,-47.222999572753906 C-20.25200080871582,-53.97600173950195 -10.10200023651123,-56.409000396728516 0.2280000001192093,-50.84299850463867 C10.605999946594238,-45.25199890136719 15.26200008392334,-38.2400016784668 33.5620002746582,-24.724000930786133 C52.16699981689453,-10.982000350952148 74.30500030517578,-6.4079999923706055 98.35199737548828,-10.833000183105469 C115.83300018310547,-14.050999641418457 134.83099365234375,-26.243999481201172 147.44000244140625,-36.34000015258789 C154.0279998779297,-41.6150016784668 157.78900146484375,-45.694000244140625 160.3419952392578,-47.88800048828125 C162.89500427246094,-50.08300018310547 166.47799682617188,-51.59400177001953 169.1540069580078,-48.428001403808594 C171.82899475097656,-45.26300048828125 173.11099243164062,-43.64099884033203 174.05099487304688,-41.540000915527344 C174.99000549316406,-39.43899917602539 175.5749969482422,-36.48500061035156 169.6300048828125,-32.150001525878906 C163.6840057373047,-27.81599998474121 154.45599365234375,-21.142000198364258 135.52699279785156,-9.46500015258789 C113.8270034790039,3.921999931335449 74.31199645996094,32.66299819946289 45.49100112915039,41.52000045776367 C16.670000076293945,50.37699890136719 3.321000099182129,56.1879997253418 -22.347999572753906,58.020999908447266 C-42.20199966430664,59.43899917602539 -79.18800354003906,55.270999908447266 -79.18800354003906,55.270999908447266z"></path></g><g opacity="1" transform="matrix(1,0,0,1,206.3509979248047,219.93899536132812)"><path fill="#B71000" fill-opacity="1" d=" M-44.3489990234375,-72.4749984741211 C-44.3489990234375,-72.4749984741211 -64.33300018310547,-51.994998931884766 -70.447998046875,-33.02299880981445 C-75.5770034790039,-17.108999252319336 -80.24099731445312,-0.04500000178813934 -64.91400146484375,25.56800079345703 C-50.625,49.444000244140625 -26.52899932861328,65.45099639892578 -6.947999954223633,71.77300262451172 C9.291999816894531,77.01699829101562 26.066999435424805,75.59300231933594 41.57400131225586,66.88899993896484 C56.263999938964844,58.64400100708008 72.51399993896484,44.81700134277344 80.24099731445312,28.090999603271484 C15.82800006866455,-77.01699829101562 -44.3489990234375,-72.4749984741211 -44.3489990234375,-72.4749984741211z"></path></g><g opacity="1" transform="matrix(1,0,0,1,224.7779998779297,195.11099243164062)"><path fill="#FF3008" fill-opacity="1" d=" M-50.34600067138672,-57.56700134277344 C-55.099998474121094,-55.902000427246094 -68.2020034790039,-47.00299835205078 -67.5770034790039,-32.86800003051758 C-66.9530029296875,-18.733999252319336 -56.486000061035156,-1.590000033378601 -35.45899963378906,17.447999954223633 C-14.430999755859375,36.48699951171875 7.5229997634887695,53.803001403808594 29.14299964904785,59.12099838256836 C50.763999938964844,64.43900299072266 61.9900016784668,57.393001556396484 65.09600067138672,48.262001037597656 C68.2020034790039,39.13199996948242 67.77100372314453,15.781000137329102 52.189998626708984,-7.289999961853027 C34.472999572753906,-33.52399826049805 11.255000114440918,-51.32400131225586 -13.744000434875488,-58.358001708984375 C-35.358001708984375,-64.43900299072266 -45.39899826049805,-59.29999923706055 -50.34600067138672,-57.56700134277344z"></path></g><g opacity="1" transform="matrix(1,0,0,1,293.21600341796875,286.4620056152344)"><path fill="#6C87F8" fill-opacity="1" d=" M-280.6929931640625,-137.45799255371094 C-280.6929931640625,-137.45799255371094 -279.9150085449219,-100.96600341796875 -192.52200317382812,-73.45099639892578 C-105.0270004272461,-45.90399932861328 -59.14799880981445,-44.8129997253418 5.333000183105469,-44.8129997253418 C69.81300354003906,-44.8129997253418 161.88699340820312,-51.04399871826172 216.92100524902344,-80.08300018310547 C271.9549865722656,-109.12100219726562 279.3760070800781,-125.08399963378906 281.96600341796875,-142.17999267578125 C281.96600341796875,-142.17999267578125 276.1510009765625,-45.540000915527344 258.9389953613281,-1.6059999465942383 C241.62899780273438,42.57500076293945 213.46099853515625,88.73400115966797 137.43600463867188,115.45700073242188 C61.4119987487793,142.17999267578125 15.803999900817871,140.17599487304688 -7.5960001945495605,140.17599487304688 C-30.996000289916992,140.17599487304688 -96.26200103759766,138.61099243164062 -135.55999755859375,118.9739990234375 C-174.85800170898438,99.33799743652344 -218.77999877929688,71.9530029296875 -248.2729949951172,11.456999778747559 C-277.7669982910156,-49.03900146484375 -281.9670104980469,-120.09300231933594 -280.6929931640625,-137.45799255371094z"></path></g><g opacity="1" transform="matrix(1,0,0,1,231.25900268554688,191.74099731445312)"><path fill="#FFFFFF" fill-opacity="1" d=" M-26.229000091552734,-10.057000160217285 C-26.384000778198242,-8.975000381469727 -25.97800064086914,-6.802000045776367 -31.21299934387207,-4.056000232696533 C-35.64400100708008,-1.7319999933242798 -39.87099838256836,-0.5080000162124634 -37.71200180053711,5.730999946594238 C-36.11399841308594,10.350000381469727 -31.51300048828125,11.461999893188477 -26.363000869750977,11.630000114440918 C-21.21299934387207,11.79699993133545 -15.579999923706055,10.543999671936035 -12.079000473022461,14.225000381469727 C-8.57699966430664,17.906999588012695 -9.288000106811523,23.323999404907227 -8.295000076293945,27.058000564575195 C-7.301000118255615,30.79199981689453 -4.290999889373779,37.249000549316406 0.4480000138282776,37.95600128173828 C5.188000202178955,38.66299819946289 7.6519999504089355,34.74700164794922 9.295999526977539,31.910999298095703 C10.9399995803833,29.073999404907227 13.291999816894531,26.819000244140625 17.20400047302246,29.959999084472656 C17.20400047302246,29.959999084472656 28.36400032043457,41.73400115966797 35.0890007019043,36.611000061035156 C41.35300064086914,31.83799934387207 37.83399963378906,25.547000885009766 35.81399917602539,23.500999450683594 C33.792999267578125,21.454999923706055 26.54599952697754,15.142000198364258 27.642000198364258,13.25100040435791 C28.73900032043457,11.359999656677246 34.59700012207031,11.925000190734863 37.28099822998047,10.869999885559082 C40.678001403808594,9.53600025177002 42.18600082397461,5.644000053405762 38.69900131225586,0.7129999995231628 C35.641998291015625,-3.6089999675750732 30.67099952697754,-5.300000190734863 25.183000564575195,-5.46999979019165 C19.691999435424805,-5.638999938964844 17.6200008392334,-4.533999919891357 14.857000350952148,-7.058000087738037 C12.093999862670898,-9.583000183105469 12.628000259399414,-13.815999984741211 12.730999946594238,-19.440000534057617 C12.82699966430664,-24.711000442504883 11.607000350952148,-27.804000854492188 6.184999942779541,-29.476999282836914 C2.5999999046325684,-30.583999633789062 0.4909999966621399,-29.37700080871582 -2.2019999027252197,-26.784000396728516 C-4.4120001792907715,-24.6560001373291 -5.24399995803833,-22.499000549316406 -7.683000087738037,-22.649999618530273 C-10.708000183105469,-22.836999893188477 -12.803999900817871,-27.09600067138672 -16.44300079345703,-30.836999893188477 C-20.88800048828125,-35.404998779296875 -27.0310001373291,-41.73400115966797 -34.652000427246094,-39.86199951171875 C-42.18600082397461,-38.0099983215332 -41.652000427246094,-31.263999938964844 -39.84700012207031,-27.253999710083008 C-38.04199981689453,-23.243999481201172 -31.04800033569336,-17.724000930786133 -28.9060001373291,-15.494999885559082 C-26.48200035095215,-12.972999572753906 -25.981000900268555,-11.784000396728516 -26.229000091552734,-10.057000160217285z"></path></g></g></g></svg>