<svg xmlns:xlink="http://www.w3.org/1999/xlink" xmlns="http://www.w3.org/2000/svg" viewBox="0 0 760 760" width="760" height="760" preserveAspectRatio="xMidYMid meet" style="width: 100%; height: 100%; transform: translate3d(0px, 0px, 0px);"><defs><clipPath id="__lottie_element_56"><rect width="760" height="760" x="0" y="0"></rect></clipPath></defs><g clip-path="url(#__lottie_element_56)"><g transform="matrix(1,0,0,1,67.93801879882812,192.96600341796875)" opacity="1" style="display: block;"><g opacity="1" transform="matrix(1,0,0,1,324.3479919433594,289.9010009765625)"><path fill="#A7D87C" fill-opacity="1" d=" M-233.06900024414062,-141.66099548339844 C-233.06900024414062,-141.66099548339844 -235.0030059814453,-37.47100067138672 -174.39599609375,53.137001037597656 C-123.49199676513672,129.23800659179688 -41.99300003051758,141.66099548339844 27.0049991607666,136.45399475097656 C94.01200103759766,131.39700317382812 143.38299560546875,97.18199920654297 170.5970001220703,56.26100158691406 C205.76800537109375,3.375 235.0030059814453,-75.00700378417969 232.20599365234375,-136.45399475097656 C62.50600051879883,-136.45399475097656 -233.06900024414062,-141.66099548339844 -233.06900024414062,-141.66099548339844z"></path></g><g opacity="1" transform="matrix(1,0,0,1,57.27000045776367,171.0659942626953)"><path fill="#A7D87C" fill-opacity="1" d=" M-39.05500030517578,-35.540000915527344 C-57.02000045776367,-12.887999534606934 -49.20899963378906,11.326000213623047 -42.17900085449219,26.16699981689453 C-35.196998596191406,40.90700149536133 -13.538999557495117,58.45199966430664 10.675000190734863,66.26300048828125 C29.78700065612793,72.42900085449219 52.33399963378906,74.59500122070312 52.33399963378906,74.59500122070312 C52.33399963378906,74.59500122070312 57.02000045776367,-74.59500122070312 57.02000045776367,-74.59500122070312 C57.02000045776367,-74.59500122070312 27.33799934387207,-71.47000122070312 13.279000282287598,-66.78399658203125 C-0.781000018119812,-62.09700012207031 -21.55500030517578,-57.60499954223633 -39.05500030517578,-35.540000915527344z M38.845001220703125,28.364999771118164 C38.845001220703125,28.364999771118164 -9.472000122070312,32.00400161743164 -8.833000183105469,-0.6460000276565552 C-8.194999694824219,-33.18899917602539 38.79499816894531,-30.07200050354004 38.79499816894531,-30.07200050354004 C38.79499816894531,-30.07200050354004 38.845001220703125,28.257999420166016 38.845001220703125,28.257999420166016 C38.845001220703125,28.257999420166016 38.845001220703125,28.364999771118164 38.845001220703125,28.364999771118164z"></path></g><g opacity="1" transform="matrix(1,0,0,1,570.1909790039062,164.427001953125)"><path fill="#A7D87C" fill-opacity="1" d=" M-9.112000465393066,-64.57099914550781 C-24.21299934387207,-67.69499969482422 -54.9370002746582,-67.17400360107422 -54.9370002746582,-67.17400360107422 C-54.9370002746582,-67.17400360107422 -37.231998443603516,67.69499969482422 -37.231998443603516,67.69499969482422 C-37.231998443603516,67.69499969482422 -14.319000244140625,60.92599868774414 0.26100000739097595,56.23899841308594 C14.840999603271484,51.553001403808594 31.5049991607666,40.617000579833984 40.356998443603516,23.433000564575195 C45.90399932861328,12.666000366210938 54.9379997253418,-25.516000747680664 30.983999252319336,-46.345001220703125 C17.3439998626709,-58.20600128173828 5.988999843597412,-61.44599914550781 -9.112000465393066,-64.57099914550781z M-23.216999053955078,22.5310001373291 C-23.216999053955078,22.5310001373291 -23.216999053955078,-30.625999450683594 -23.216999053955078,-30.625999450683594 C-23.216999053955078,-30.625999450683594 14.906000137329102,-36.34299850463867 15.430000305175781,-5.210999965667725 C15.95300006866455,25.920000076293945 -23.216999053955078,22.5310001373291 -23.216999053955078,22.5310001373291z"></path></g><g opacity="1" transform="matrix(1,0,0,1,322.78399658203125,148.1439971923828)"><path fill="#404040" fill-opacity="1" d=" M233.38999938964844,3.4489998817443848 C233.38999938964844,74.76899719238281 148.56900024414062,147.8939971923828 0,147.8939971923828 C-148.56900024414062,147.8939971923828 -233.38999938964844,85.16999816894531 -233.38999938964844,3.4489998817443848 C-233.38999938964844,-78.27200317382812 -152.29400634765625,-147.8939971923828 0,-140.9949951171875 C128.7740020751953,-135.26400756835938 233.38999938964844,-78.27200317382812 233.38999938964844,3.4489998817443848z"></path></g><g opacity="1" transform="matrix(1,0,0,1,319.1610107421875,170.53199768066406)"><path fill="#FDBC43" fill-opacity="1" d=" M213.0760040283203,46.41699981689453 C213.0760040283203,46.41699981689453 206.17799377441406,54.77000045776367 200.76699829101562,60.16299819946289 C162.67300415039062,97.90899658203125 95.60800170898438,125.50700378417969 4.563000202178955,125.50700378417969 C-97.7300033569336,125.50700378417969 -167.4459991455078,97.48699951171875 -202.25100708007812,54.452999114990234 C-202.25100708007812,54.452999114990234 -219.9720001220703,34.99800109863281 -196.4149932861328,7.61299991607666 C-196.4149932861328,7.61299991607666 -185.59100341796875,-0.10599999874830246 -186.4409942626953,-17.233999252319336 C-187.5019989013672,-39.650001525878906 -165.43099975585938,-46.41699981689453 -165.43099975585938,-46.41699981689453 C-165.43099975585938,-46.41699981689453 -141.76699829101562,-53.395999908447266 -138.69000244140625,-66.50700378417969 C-135.61199951171875,-79.61799621582031 -121.18099975585938,-90.50800323486328 -103.6719970703125,-92.72799682617188 C-86.16400146484375,-94.947998046875 -79.26599884033203,-96.11199951171875 -71.30799865722656,-100.9749984741211 C-57.9379997253418,-109.11699676513672 -44.143001556396484,-117.9990005493164 -14.854999542236328,-113.66300201416016 C14.432000160217285,-109.3280029296875 32.89500045776367,-114.93199920654297 32.89500045776367,-114.93199920654297 C32.89500045776367,-114.93199920654297 65.26100158691406,-125.50599670410156 84.14800262451172,-102.77300262451172 C102.93000030517578,-80.04000091552734 152.06100463867188,-82.26200103759766 152.06100463867188,-82.26200103759766 C152.06100463867188,-82.26200103759766 175.7239990234375,-54.24100112915039 175.7239990234375,-54.24100112915039 C175.7239990234375,-54.24100112915039 218.1699981689453,-51.28099822998047 207.5570068359375,-12.793999671936035 C206.92100524902344,-10.362000465393066 205.96600341796875,-7.929999828338623 204.7989959716797,-5.603000164031982 C202.9949951171875,-1.7979999780654907 199.91799926757812,7.823999881744385 208.83200073242188,16.177000045776367 C219.97300720214844,26.645000457763672 215.09300231933594,39.6510009765625 213.0760040283203,46.41699981689453z"></path></g><g opacity="1" transform="matrix(1,0,0,1,344.9100036621094,217.88900756835938)"><path fill="#BB6500" fill-opacity="1" d=" M-42.82099914550781,-41.722999572753906 C-42.82099914550781,-41.722999572753906 39.88999938964844,-46.46699905395508 39.88999938964844,-46.46699905395508 C44.70600128173828,-46.46699905395508 48.58000183105469,-42.47800064086914 48.58000183105469,-37.51900100708008 C48.58000183105469,-37.51900100708008 54.965999603271484,37.19499969482422 54.965999603271484,37.19499969482422 C54.965999603271484,40.96900177001953 52.0359992980957,43.986000061035156 48.37099838256836,43.986000061035156 C48.37099838256836,43.986000061035156 -48.26599884033203,46.46699905395508 -48.26599884033203,46.46699905395508 C-52.03499984741211,46.46699905395508 -54.965999603271484,43.231998443603516 -54.86199951171875,39.45899963378906 C-54.86199951171875,39.45899963378906 -53.5,-31.156999588012695 -53.5,-31.156999588012695 C-53.29100036621094,-36.979000091552734 -48.683998107910156,-41.6150016784668 -42.92499923706055,-41.6150016784668 C-42.92499923706055,-41.6150016784668 -42.82099914550781,-41.722999572753906 -42.82099914550781,-41.722999572753906z"></path></g><g opacity="1" transform="matrix(1,0,0,1,343.8529968261719,203.10400390625)"><path fill="#FF8A00" fill-opacity="1" d=" M-42.249000549316406,-26.867000579833984 C-42.249000549316406,-26.867000579833984 41.50699996948242,-31.68199920654297 41.50699996948242,-31.68199920654297 C46.38399887084961,-31.68199920654297 50.305999755859375,-27.631999969482422 50.305999755859375,-22.597999572753906 C50.305999755859375,-22.597999572753906 53.90999984741211,22.270000457763672 53.90999984741211,22.270000457763672 C53.90999984741211,26.100000381469727 50.941001892089844,29.166000366210938 47.23099899291992,29.166000366210938 C47.23099899291992,29.166000366210938 -47.762001037597656,31.68199920654297 -47.762001037597656,31.68199920654297 C-51.577999114990234,31.68199920654297 -53.9109992980957,28.398000717163086 -53.80500030517578,24.56800079345703 C-53.80500030517578,24.56800079345703 -52.957000732421875,-16.141000747680664 -52.957000732421875,-16.141000747680664 C-52.744998931884766,-22.051000595092773 -48.08000183105469,-26.756999969482422 -42.249000549316406,-26.756999969482422 C-42.249000549316406,-26.756999969482422 -42.249000549316406,-26.867000579833984 -42.249000549316406,-26.867000579833984z"></path></g><g opacity="1" transform="matrix(1,0,0,1,211.89700317382812,149.2449951171875)"><path fill="#FF8A00" fill-opacity="1" d=" M-43.04100036621094,-5.901000022888184 C-43.04100036621094,-5.901000022888184 -46.465999603271484,39.93600082397461 -46.465999603271484,39.93600082397461 C-46.465999603271484,44.1510009765625 -43.04100036621094,47.52299880981445 -38.757999420166016,47.52299880981445 C-38.757999420166016,47.52299880981445 29.979000091552734,41.93899917602539 29.979000091552734,41.93899917602539 C39.07899856567383,41.93899917602539 46.465999603271484,34.667999267578125 46.465999603271484,25.711000442504883 C46.465999603271484,25.711000442504883 46.465999603271484,-41.095001220703125 46.465999603271484,-41.095001220703125 C46.465999603271484,-44.678001403808594 43.57600021362305,-47.52299880981445 39.93600082397461,-47.52299880981445 C39.93600082397461,-47.52299880981445 -9.42300033569336,-47.52299880981445 -9.42300033569336,-47.52299880981445 C-10.92199993133545,-47.52299880981445 -13.276000022888184,-46.57400131225586 -15.631999969482422,-43.729000091552734 C-15.631999969482422,-43.729000091552734 -39.6150016784668,-12.222999572753906 -39.6150016784668,-12.222999572753906 C-41.755001068115234,-10.852999687194824 -43.04100036621094,-8.430000305175781 -43.04100036621094,-5.901000022888184z"></path></g><g opacity="1" transform="matrix(1,0,0,1,211.80299377441406,122.84400177001953)"><path fill="#BB6500" fill-opacity="1" d=" M-41.117000579833984,15.710000038146973 C-41.117000579833984,15.710000038146973 -13.776000022888184,-18.312999725341797 -13.776000022888184,-18.312999725341797 C-11.980999946594238,-20.082000732421875 -9.553999900817871,-21.121999740600586 -7.019999980926514,-21.121999740600586 C-7.019999980926514,-21.121999740600586 39.112998962402344,-21.121999740600586 39.112998962402344,-21.121999740600586 C41.750999450683594,-21.121999740600586 43.229000091552734,-18.312999725341797 41.750999450683594,-16.128000259399414 C41.750999450683594,-16.128000259399414 20.533000946044922,13.317000389099121 20.533000946044922,13.317000389099121 C20.0049991607666,14.045999526977539 18.948999404907227,15.085000038146973 18.527000427246094,15.710000038146973 C14.831999778747559,20.18400001525879 11.13700008392334,21.121999740600586 4.908999919891357,21.121999740600586 C4.908999919891357,21.121999740600586 -38.9010009765625,21.121999740600586 -38.9010009765625,21.121999740600586 C-41.750999450683594,21.121999740600586 -43.229000091552734,17.791000366210938 -41.222999572753906,15.710000038146973 C-41.222999572753906,15.710000038146973 -41.117000579833984,15.710000038146973 -41.117000579833984,15.710000038146973z"></path></g><g opacity="1" transform="matrix(1,0,0,1,326.95599365234375,65.81600189208984)"><path fill="#FF8A00" fill-opacity="1" d=" M-30.264999389648438,-38.018001556396484 C-30.264999389648438,-38.018001556396484 34.520999908447266,-38.018001556396484 34.520999908447266,-38.018001556396484 C39.41400146484375,-38.018001556396484 43.349998474121094,-34.08300018310547 43.349998474121094,-29.191999435424805 C43.349998474121094,-29.191999435424805 43.349998474121094,31.31800079345703 43.349998474121094,31.31800079345703 C43.349998474121094,35.04100036621094 40.37200164794922,38.018001556396484 36.64899826049805,38.018001556396484 C36.64899826049805,38.018001556396484 -36.542999267578125,38.018001556396484 -36.542999267578125,38.018001556396484 C-40.37200164794922,38.018001556396484 -43.349998474121094,34.827999114990234 -43.24399948120117,31.106000900268555 C-43.24399948120117,31.106000900268555 -41.0099983215332,-27.59600067138672 -41.0099983215332,-27.59600067138672 C-40.797000885009766,-33.3390007019043 -36.11600112915039,-37.9119987487793 -30.264999389648438,-37.9119987487793 C-30.264999389648438,-37.9119987487793 -30.264999389648438,-38.018001556396484 -30.264999389648438,-38.018001556396484z"></path></g><g opacity="1" transform="matrix(1,0,0,1,326.95599365234375,56.3120002746582)"><path fill="#BB6500" fill-opacity="1" d=" M-30.812000274658203,-28.513999938964844 C-30.812000274658203,-28.513999938964844 34.45399856567383,-28.513999938964844 34.45399856567383,-28.513999938964844 C39.3849983215332,-28.513999938964844 43.35100173950195,-24.599000930786133 43.35100173950195,-19.73200035095215 C43.35100173950195,-19.73200035095215 43.35100173950195,21.847999572753906 43.35100173950195,21.847999572753906 C43.35100173950195,25.551000595092773 40.349998474121094,28.513999938964844 36.5989990234375,28.513999938964844 C36.5989990234375,28.513999938964844 -37.132999420166016,28.513999938964844 -37.132999420166016,28.513999938964844 C-40.992000579833984,28.513999938964844 -43.35100173950195,25.339000701904297 -43.24399948120117,21.63599967956543 C-43.24399948120117,21.63599967956543 -41.6349983215332,-18.250999450683594 -41.6349983215332,-18.250999450683594 C-41.41999816894531,-23.96500015258789 -36.70600128173828,-28.513999938964844 -30.812000274658203,-28.513999938964844z"></path></g><g opacity="1" transform="matrix(1,0,0,1,441.8450012207031,116.55799865722656)"><path fill="#BB6500" fill-opacity="1" d=" M-51.48899841308594,15.595999717712402 C-51.48899841308594,15.595999717712402 -36.354000091552734,46.46900177001953 -36.354000091552734,46.46900177001953 C-35.084999084472656,49.13999938964844 -32.33300018310547,50.74100112915039 -29.368999481201172,50.6349983215332 C-29.368999481201172,50.6349983215332 46.9370002746582,47.323001861572266 46.9370002746582,47.323001861572266 C50.32400131225586,47.215999603271484 53.07600021362305,44.332000732421875 53.07600021362305,40.91400146484375 C53.07600021362305,40.91400146484375 53.07600021362305,-34.930999755859375 53.07600021362305,-34.930999755859375 C53.07600021362305,-38.02899932861328 50.95899963378906,-40.70000076293945 47.994998931884766,-41.340999603271484 C47.994998931884766,-41.340999603271484 -10.63599967956543,-50.74100112915039 -10.63599967956543,-50.74100112915039 C-10.63599967956543,-50.74100112915039 -50.74800109863281,5.020999908447266 -50.74800109863281,5.020999908447266 C-52.8650016784668,8.119999885559082 -53.07600021362305,12.177000045776367 -51.48899841308594,15.595999717712402z"></path></g><g opacity="1" transform="matrix(1,0,0,1,442.00299072265625,92.6729965209961)"><path fill="#FF8A00" fill-opacity="1" d=" M-24.16699981689453,-33.58700180053711 C-24.16699981689453,-33.58700180053711 -52.19300079345703,32.41400146484375 -52.19300079345703,32.41400146484375 C-53.8849983215332,36.35900115966797 -51.029998779296875,40.731998443603516 -46.79899978637695,40.731998443603516 C-46.79899978637695,40.731998443603516 24.483999252319336,40.731998443603516 24.483999252319336,40.731998443603516 C26.704999923706055,40.731998443603516 28.819000244140625,39.45199966430664 29.770999908447266,37.42599868774414 C29.770999908447266,37.42599868774414 52.297000885009766,-8.423999786376953 52.297000885009766,-8.423999786376953 C53.88399887084961,-11.623000144958496 52.297000885009766,-15.461000442504883 49.01900100708008,-16.634000778198242 C49.01900100708008,-16.634000778198242 -11.687000274658203,-38.91899871826172 -11.687000274658203,-38.91899871826172 C-16.658000946044922,-40.73099899291992 -22.158000946044922,-38.387001037597656 -24.273000717163086,-33.481998443603516 C-24.273000717163086,-33.481998443603516 -24.16699981689453,-33.58700180053711 -24.16699981689453,-33.58700180053711z"></path></g></g></g></svg>