<svg xmlns:xlink="http://www.w3.org/1999/xlink" xmlns="http://www.w3.org/2000/svg" viewBox="0 0 760 760" width="760" height="760" preserveAspectRatio="xMidYMid meet" style="width: 100%; height: 100%; transform: translate3d(0px, 0px, 0px);"><defs><clipPath id="__lottie_element_120"><rect width="760" height="760" x="0" y="0"></rect></clipPath></defs><g clip-path="url(#__lottie_element_120)"><g transform="matrix(1.100000023841858,0,0,1.100000023841858,-38,-6)" opacity="1" style="display: block;"><g opacity="1" transform="matrix(1,0,0,1,379.1570129394531,511.81201171875)"><path fill="#B10034" fill-opacity="1" d=" M-85.58899688720703,-18.2810001373291 C-153.07699584960938,-27.680999755859375 -189.2050018310547,-54.14500045776367 -209.21499633789062,-79.31999969482422 C-195.85000610351562,-21.711999893188477 -157.19700622558594,53.2400016784668 -38.58700180053711,64.06500244140625 C128.55599975585938,79.31999969482422 170.08399963378906,19.993999481201172 193.81399536132812,-31.702999114990234 C199.37899780273438,-43.82500076293945 204.67599487304688,-58.165000915527344 209.21499633789062,-73.98799896240234 C140.97799682617188,-12.347000122070312 13.74899959564209,-4.443999767303467 -85.58899688720703,-18.2810001373291z"></path></g><g opacity="1" transform="matrix(1,0,0,1,382.0580139160156,430.90399169921875)"><path fill="#A273D3" fill-opacity="1" d=" M-220.08099365234375,-76.46499633789062 C-220.1490020751953,-69.23699951171875 -220.0070037841797,-62.03200149536133 -219.56700134277344,-54.83599853515625 C-218.8209991455078,-42.65299987792969 -217.5850067138672,-21.983999252319336 -212.11599731445312,1.5889999866485596 C-192.1060028076172,26.763999938964844 -155.97799682617188,53.22800064086914 -88.48999786376953,62.62799835205078 C10.847999572753906,76.46499633789062 138.0760040283203,68.56199645996094 206.31300354003906,6.921000003814697 C213.48899841308594,-18.097000122070312 218.76100158691406,-46.83599853515625 220.1490020751953,-76.46499633789062 C220.1490020751953,-76.46499633789062 -220.08099365234375,-76.46499633789062 -220.08099365234375,-76.46499633789062z"></path></g><g opacity="1" transform="matrix(1,0,0,1,382.83099365234375,267.9440002441406)"><path fill="#B10034" fill-opacity="1" d=" M208.21299743652344,-7.735000133514404 C183.4600067138672,-84.45999908447266 10.680000305175781,-86.49400329589844 -62.20500183105469,-78.86699676513672 C-135.09100341796875,-71.23899841308594 -211.72000122070312,-43.83599853515625 -216.38499450683594,16.106000900268555 C-218.2570037841797,40.15999984741211 -220.63600158691406,63.45000076293945 -220.85299682617188,86.49400329589844 C-220.85299682617188,86.49400329589844 219.37600708007812,86.49400329589844 219.37600708007812,86.49400329589844 C220.85299682617188,54.94200134277344 217.93099975585938,22.38800048828125 208.21299743652344,-7.735000133514404z"></path></g><g opacity="1" transform="matrix(1,0,0,1,379.4010009765625,350.2659912109375)"><path fill="#D55700" fill-opacity="1" d=" M7.065999984741211,-114.08100128173828 C62.297000885009766,-115.375 222.6510009765625,-98.32499694824219 222.6009979248047,5.359000205993652 C222.55999755859375,91.89399719238281 70.98699951171875,115.04299926757812 -8.807999610900879,115.21099853515625 C-87.21800231933594,115.375 -222.6510009765625,74.41400146484375 -217.28599548339844,-1.0829999446868896 C-211.9219970703125,-76.58000183105469 -130.1479949951172,-110.86699676513672 7.065999984741211,-114.08100128173828z"></path></g><g opacity="1" transform="matrix(1,0,0,1,502.0690002441406,243.8560028076172)"><path fill="#00AF00" fill-opacity="1" d=" M-63.91999816894531,8.437000274658203 C-70.5989990234375,-14.718000411987305 -77.95899963378906,-38.928001403808594 -66.95500183105469,-43.45899963378906 C-55.95000076293945,-47.9900016784668 -52.7130012512207,-31.482999801635742 -45.26900100708008,-32.45399856567383 C-37.82500076293945,-33.42499923706055 -33.941001892089844,-64.82099914550781 -19.375999450683594,-64.82099914550781 C-8.371999740600586,-64.82099914550781 -13.22700023651123,-47.9900016784668 -4.164000034332275,-47.66600036621094 C4.89900016784668,-47.34299850463867 23.250999450683594,-74.11900329589844 37.42599868774414,-67.28399658203125 C52.013999938964844,-60.250999450683594 34.53499984741211,-42.86399841308594 40.222999572753906,-36.143001556396484 C44.992000579833984,-30.507999420166016 63.6510009765625,-36.779998779296875 66.70700073242188,-24.32900047302246 C69.41100311279297,-13.3100004196167 50.30799865722656,-12.128000259399414 49.409000396728516,-4.242000102996826 C48.51100158691406,3.6440000534057617 67.97599792480469,7.5370001792907715 72.96700286865234,16.121999740600586 C77.95899963378906,24.707000732421875 68.1760025024414,32.59299850463867 61.28799819946289,33.49100112915039 C54.400001525878906,34.38999938964844 46.1150016784668,34.98899841308594 44.31800079345703,39.880001068115234 C42.520999908447266,44.770999908447266 56.49700164794922,49.86199951171875 55.79800033569336,61.141998291015625 C55.0989990234375,72.4219970703125 43.619998931884766,74.11900329589844 34.73500061035156,71.7239990234375 C25.85099983215332,69.3280029296875 20.610000610351562,64.93599700927734 -3.197000026702881,69.72699737548828 C-3.197000026702881,69.72699737548828 -63.91999816894531,8.437000274658203 -63.91999816894531,8.437000274658203z"></path></g><g opacity="1" transform="matrix(1,0,0,1,370.7380065917969,375.45098876953125)"><path fill="#FFFFFF" fill-opacity="1" d=" M2.7699999809265137,-28.302000045776367 C-22.45199966430664,-39.619998931884766 -45.99300003051758,-39.51100158691406 -63.391998291015625,-9.630000114440918 C-63.391998291015625,-9.630000114440918 -32.005001068115234,8.62399959564209 -32.005001068115234,8.62399959564209 C-31.163000106811523,9.11400032043457 -30.270999908447266,9.505000114440918 -29.340999603271484,9.795000076293945 C-10.593999862670898,15.64900016784668 23.958999633789062,39.05099868774414 51.51100158691406,39.5620002746582 C54.64500045776367,39.619998931884766 58.6879997253418,39.608001708984375 63.391998291015625,39.54199981689453 C53.19300079345703,16.14699935913086 32.12900161743164,-15.128000259399414 2.7699999809265137,-28.302000045776367z"></path></g><g opacity="1" transform="matrix(1,0,0,1,376.0830078125,351.2969970703125)"><path fill="#C9DDFF" fill-opacity="1" d=" M10.38599967956543,-47.327999114990234 C-18.610000610351562,-60.053001403808594 -71.37200164794922,-63.69599914550781 -101.1259994506836,-4.314000129699707 C-101.1259994506836,-4.314000129699707 -68.73699951171875,14.52299976348877 -68.73699951171875,14.52299976348877 C-51.3380012512207,-15.357000350952148 -27.797000885009766,-15.465999603271484 -2.575000047683716,-4.1479997634887695 C26.784000396728516,9.024999618530273 47.847999572753906,40.29999923706055 58.047000885009766,63.69599914550781 C69.58499908447266,63.534000396728516 85.12100219726562,63.04499816894531 101.1259994506836,62.44300079345703 C89.32499694824219,32.38999938964844 52.67399978637695,-28.768999099731445 10.38599967956543,-47.327999114990234z"></path></g><g opacity="1" transform="matrix(1,0,0,1,386.3389892578125,315.3819885253906)"><path fill="#C9DDFF" fill-opacity="1" d=" M162.9429931640625,80.15399932861328 C139.4320068359375,-34.492000579833984 64.35900115966797,-91.91600036621094 -27.17799949645996,-94.45899963378906 C-112.11100006103516,-96.81800079345703 -147.1719970703125,-43.529998779296875 -161.7969970703125,-11.22599983215332 C-164.5489959716797,-5.1479997634887695 -162.23199462890625,2.0260000228881836 -156.46499633789062,5.38100004196167 C-156.46499633789062,5.38100004196167 -140.76199340820312,14.512999534606934 -140.76199340820312,14.512999534606934 C-108.68099975585938,-57.86800003051758 -45.09700012207031,-74.09200286865234 14.680000305175781,-51.694000244140625 C70.54199981689453,-30.76300048828125 114.79199981689453,58.87099838256836 128.1790008544922,96.81700134277344 C136.79299926757812,96.43499755859375 144.58099365234375,96.07499694824219 150.7949981689453,95.78099822998047 C158.77999877929688,95.40299987792969 164.5489959716797,87.98500061035156 162.9429931640625,80.15399932861328z"></path></g><g opacity="1" transform="matrix(1,0,0,1,380.0480041503906,327.5150146484375)"><path fill="#FFFFFF" fill-opacity="1" d=" M20.972000122070312,-63.82699966430664 C-38.80500030517578,-86.2249984741211 -102.38899993896484,-70.0009994506836 -134.47000122070312,2.380000114440918 C-134.47000122070312,2.380000114440918 -105.08999633789062,19.468000411987305 -105.08999633789062,19.468000411987305 C-75.33599853515625,-39.91400146484375 -22.573999404907227,-36.270999908447266 6.421999931335449,-23.54599952697754 C48.709999084472656,-4.986999988555908 85.36100006103516,56.172000885009766 97.16200256347656,86.2249984741211 C109.9000015258789,85.74600219726562 122.9280014038086,85.19599914550781 134.4709930419922,84.68399810791016 C121.08399963378906,46.737998962402344 76.83399963378906,-42.895999908447266 20.972000122070312,-63.82699966430664z"></path></g><g opacity="1" transform="matrix(1,0,0,1,288.61700439453125,363.87298583984375)"><path fill="#00AF00" fill-opacity="1" d=" M46.409000396728516,69.06400299072266 C46.409000396728516,69.06400299072266 67.3219985961914,-3.5160000324249268 27.91900062561035,-36.28900146484375 C-11.482999801635742,-69.06300354003906 -61.1619987487793,-51.53499984741211 -67.3219985961914,-47.875 C-67.3219985961914,-47.875 0.20200000703334808,16.827999114990234 0.20200000703334808,16.827999114990234 C0.20200000703334808,16.827999114990234 46.409000396728516,69.06400299072266 46.409000396728516,69.06400299072266z"></path></g><g opacity="1" transform="matrix(1,0,0,1,266.30999755859375,368.885009765625)"><path fill="#82DA5F" fill-opacity="1" d=" M-67.26200103759766,-0.2639999985694885 C-40.72800064086914,22.46500015258789 49.15999984741211,58.19200134277344 66.74500274658203,65.06099700927734 C67.9260025024414,65.52300262451172 69.10099792480469,64.37999725341797 68.66799926757812,63.1879997253418 C62.32400131225586,45.691001892089844 28.433000564575195,-41.89899826049805 -18.26799964904785,-53.823001861572266 C-64.09200286865234,-65.52300262451172 -68.61299896240234,-16.128000259399414 -69.04299926757812,-4.364999771118164 C-69.10099792480469,-2.796999931335449 -68.4530029296875,-1.284999966621399 -67.26200103759766,-0.2639999985694885z"></path></g><g opacity="1" transform="matrix(1,0,0,1,223.7570037841797,356.3330078125)"><path fill="#FFFFFF" fill-opacity="1" d=" M5.689000129699707,13.784000396728516 C8.965999603271484,16.285999298095703 7.986000061035156,5.414999961853027 7.748000144958496,-0.9049999713897705 C7.511000156402588,-7.223999977111816 4.952000141143799,-16.28499984741211 -2.006999969482422,-15.35099983215332 C-8.965999603271484,-14.418000221252441 -8.335000038146973,-6.074999809265137 -4.578000068664551,0.07800000160932541 C-0.8209999799728394,6.230000019073486 3.9200000762939453,12.434000015258789 5.689000129699707,13.784000396728516z"></path></g><g opacity="1" transform="matrix(1,0,0,1,258.0840148925781,362.4440002441406)"><path fill="#FFFFFF" fill-opacity="1" d=" M-6.910999774932861,13.90999984741211 C-5.460999965667725,17.770000457763672 -0.5230000019073486,8.03499984741211 2.630000114440918,2.552999973297119 C5.7820000648498535,-2.928999900817871 8.420000076293945,-11.967000007629395 2.0269999504089355,-14.869000434875488 C-4.367000102996826,-17.770000457763672 -8.258000373840332,-10.36400032043457 -8.33899974822998,-3.1559998989105225 C-8.420000076293945,4.052999973297119 -7.693999767303467,11.82699966430664 -6.910999774932861,13.90999984741211z"></path></g><g opacity="1" transform="matrix(1,0,0,1,282.9670104980469,389.85699462890625)"><path fill="#FFFFFF" fill-opacity="1" d=" M-13.58899974822998,4.034999847412109 C-16.405000686645508,7.046999931335449 -5.489999771118164,7.15500020980835 0.8220000267028809,7.547999858856201 C7.132999897003174,7.940999984741211 16.40399932861328,6.296999931335449 16.167999267578125,-0.7200000286102295 C15.932000160217285,-7.736999988555908 7.567999839782715,-7.940000057220459 1.0720000267028809,-4.815000057220459 C-5.423999786376953,-1.6890000104904175 -12.069000244140625,2.4089999198913574 -13.58899974822998,4.034999847412109z"></path></g></g></g></svg>