<svg xmlns:xlink="http://www.w3.org/1999/xlink" xmlns="http://www.w3.org/2000/svg" viewBox="0 0 760 760" width="760" height="760" preserveAspectRatio="xMidYMid meet" style="width: 100%; height: 100%; transform: translate3d(0px, 0px, 0px);"><defs><clipPath id="__lottie_element_22"><rect width="760" height="760" x="0" y="0"></rect></clipPath></defs><g clip-path="url(#__lottie_element_22)"><g transform="matrix(1,0,0,1,185.40499877929688,133.89500427246094)" opacity="1" style="display: block;"><g opacity="1" transform="matrix(1,0,0,1,192.15699768066406,285.0780029296875)"><path fill="#FDBC43" fill-opacity="1" d=" M-191.64500427246094,-217.5399932861328 C-191.8209991455078,-136.8679962158203 -191.5570068359375,187.76300048828125 -191.5570068359375,187.76300048828125 C-191.5570068359375,207.2899932861328 -168.66799926757812,217.5399932861328 -137.85800170898438,187.76300048828125 C-137.85800170898438,187.76300048828125 191.8209991455078,-217.5399932861328 191.8209991455078,-217.5399932861328 C191.8209991455078,-217.5399932861328 -191.64500427246094,-217.5399932861328 -191.64500427246094,-217.5399932861328z"></path></g><g opacity="1" transform="matrix(1,0,0,1,213.18800354003906,33.893001556396484)"><path fill="#FF8A00" fill-opacity="1" d=" M160.4239959716797,-33.202999114990234 C160.4239959716797,-33.202999114990234 -182.91900634765625,-33.202999114990234 -182.91900634765625,-33.202999114990234 C-209.20799255371094,-33.202999114990234 -211.41299438476562,-20.69700050354004 -212.6479949951172,15.940999984741211 C-212.6479949951172,17.173999786376953 -212.6479949951172,23.427000045776367 -212.73599243164062,33.643001556396484 C-212.73599243164062,33.643001556396484 171.53799438476562,33.643001556396484 171.53799438476562,33.643001556396484 C171.53799438476562,33.643001556396484 197.82699584960938,1.496000051498413 197.82699584960938,1.496000051498413 C204.0919952392578,-7.046000003814697 212.73699951171875,-19.11199951171875 204.0919952392578,-27.566999435424805 C197.91600036621094,-33.64400100708008 186.88900756835938,-33.202999114990234 160.4239959716797,-33.202999114990234z"></path></g><g opacity="1" transform="matrix(1,0,0,1,258.24700927734375,186.36599731445312)"><path fill="#FF3008" fill-opacity="1" d=" M26.086999893188477,-73.37200164794922 C-17.73699951171875,-80.23999786376953 -57.86000061035156,-52.08000183105469 -65.38300323486328,-8.47599983215332 C-70.85900115966797,23.26300048828125 -58.358001708984375,61.099998474121094 -36.194000244140625,80.23999786376953 C-36.194000244140625,80.23999786376953 70.85900115966797,-51.37099838256836 70.85900115966797,-51.37099838256836 C58.78200149536133,-62.60599899291992 42.770999908447266,-70.75700378417969 26.086999893188477,-73.37200164794922z"></path></g><g opacity="1" transform="matrix(1,0,0,1,70.80500030517578,202.19700622558594)"><path fill="#FF3008" fill-opacity="1" d=" M66.76399993896484,-1.0490000247955322 C70.55400085449219,-48.242000579833984 30.079999923706055,-84.08999633789062 -15.402000427246094,-82.2750015258789 C-40.18000030517578,-81.28600311279297 -62.02799987792969,-73.427001953125 -70.53600311279297,-64.5780029296875 C-70.55500030517578,-31.981000900268555 -70.20899963378906,24.993999481201172 -70.19599914550781,69.85399627685547 C-54.20000076293945,81.42500305175781 -28.746000289916992,84.08999633789062 -7.573999881744385,82.10700225830078 C36.012001037597656,78.02300262451172 63.21200180053711,43.17900085449219 66.76399993896484,-1.0490000247955322z"></path></g><g opacity="1" transform="matrix(1,0,0,1,127.43000030517578,363.7090148925781)"><path fill="#FF3008" fill-opacity="1" d=" M20.270999908447266,-68.44100189208984 C-24.08799934387207,-68.44100189208984 -60.729000091552734,-37.24700164794922 -60.729000091552734,7.111999988555908 C-60.729000091552734,29.031999588012695 -53.15700149536133,51.58300018310547 -40.03200149536133,68.44100189208984 C-40.03200149536133,68.44100189208984 60.729000091552734,-55.433998107910156 60.729000091552734,-55.433998107910156 C49.39099884033203,-63.61899948120117 35.66699981689453,-68.44100189208984 20.270999908447266,-68.44100189208984z"></path></g></g></g></svg>