<svg xmlns:xlink="http://www.w3.org/1999/xlink" xmlns="http://www.w3.org/2000/svg" viewBox="0 0 760 760" width="760" height="760" preserveAspectRatio="xMidYMid meet" style="width: 100%; height: 100%; transform: translate3d(0px, 0px, 0px);"><defs><clipPath id="__lottie_element_174"><rect width="760" height="760" x="0" y="0"></rect></clipPath></defs><g clip-path="url(#__lottie_element_174)"><g transform="matrix(1,0,0,1,223.88499450683594,226.5389862060547)" opacity="1" style="display: block;"><g opacity="1" transform="matrix(1,0,0,1,157.86700439453125,269.9230041503906)"><path fill="#CFDCFF" fill-opacity="1" d=" M17.222999572753906,-139.11399841308594 C17.222999572753906,-139.11399841308594 0.2619999945163727,-143.4600067138672 0.2619999945163727,-143.4600067138672 C0.2619999945163727,-143.4600067138672 -16.31399917602539,-139.11399841308594 -16.31399917602539,-139.11399841308594 C-16.31399917602539,-139.11399841308594 -129.11500549316406,-133.89599609375 -129.11500549316406,-133.89599609375 C-129.11500549316406,-133.89599609375 -128.93600463867188,72.96700286865234 -128.93600463867188,72.96700286865234 C-128.92999267578125,79.11199951171875 -126.38200378417969,84.75900268554688 -121.89099884033203,88.57099914550781 C-121.89099884033203,88.57099914550781 -111.63500213623047,97.2770004272461 -111.63500213623047,97.2770004272461 C-108.25599670410156,100.1449966430664 -106.14399719238281,104.24199676513672 -105.69000244140625,108.80500030517578 C-105.69000244140625,108.80500030517578 -103.09200286865234,134.93499755859375 -103.09200286865234,134.93499755859375 C-102.60099792480469,139.8780059814453 -98.62300109863281,143.46099853515625 -93.6240005493164,143.46099853515625 C-93.6240005493164,143.46099853515625 -84.26399993896484,143.46099853515625 -84.26399993896484,143.46099853515625 C-84.26399993896484,143.46099853515625 36.027000427246094,143.46099853515625 36.027000427246094,143.46099853515625 C36.027000427246094,143.46099853515625 45.3849983215332,143.46099853515625 45.3849983215332,143.46099853515625 C50.3849983215332,143.46099853515625 54.987998962402344,139.8780059814453 56.3390007019043,134.93499755859375 C56.3390007019043,134.93499755859375 63.47999954223633,108.80500030517578 63.47999954223633,108.80500030517578 C64.72699737548828,104.24199676513672 67.5530014038086,100.1449966430664 71.43099975585938,97.2770004272461 C71.43099975585938,97.2770004272461 83.1989974975586,88.57099914550781 83.1989974975586,88.57099914550781 C88.35199737548828,84.75900268554688 91.88500213623047,79.11199951171875 92.95999908447266,72.96700286865234 C92.95999908447266,72.96700286865234 129.11500549316406,-133.89599609375 129.11500549316406,-133.89599609375 C129.11500549316406,-133.89599609375 17.222999572753906,-139.11399841308594 17.222999572753906,-139.11399841308594z"></path></g><g opacity="1" transform="matrix(1,0,0,1,124.68000030517578,190.76600646972656)"><path fill="#FF3008" fill-opacity="1" d=" M36.41699981689453,-43.11800003051758 C36.41699981689453,-43.11800003051758 11.060999870300293,46.87200164794922 11.060999870300293,46.87200164794922 C11.060999870300293,46.87200164794922 -36.41699981689453,41.867000579833984 -36.41699981689453,41.867000579833984 C-36.41699981689453,41.867000579833984 -15.133999824523926,-46.87200164794922 -15.133999824523926,-46.87200164794922 C-15.133999824523926,-46.87200164794922 36.41699981689453,-43.11800003051758 36.41699981689453,-43.11800003051758z"></path></g><g opacity="1" transform="matrix(1,0,0,1,156.92100524902344,74.69400024414062)"><path fill="#6C86F7" fill-opacity="1" d=" M146.45199584960938,74.44400024414062 C146.45199584960938,74.44400024414062 -149.41700744628906,74.44400024414062 -149.41700744628906,74.44400024414062 C-153.68699645996094,74.44400024414062 -156.6699981689453,70.68299865722656 -155.71600341796875,66.4530029296875 C-153.11000061035156,54.90999984741211 -146.88299560546875,43.73400115966797 -128.7209930419922,33.39500045776367 C-123.55899810791016,30.457000732421875 -119.60600280761719,25.676000595092773 -118.0530014038086,20.05699920654297 C-111.61799621582031,-3.2130000591278076 -78.27400207519531,-67.03900146484375 10.333999633789062,-70.68800354003906 C101.54900360107422,-74.44400024414062 117.08499908447266,-22.816999435424805 127.1050033569336,14.776000022888184 C128.37399291992188,19.535999298095703 130.86199951171875,23.777999877929688 134.87899780273438,26.49799919128418 C142.77200317382812,31.844999313354492 156.67100524902344,45.70500183105469 153.93099975585938,65.01399993896484 C153.23899841308594,69.88500213623047 151.3300018310547,74.44400024414062 146.45199584960938,74.44400024414062z"></path></g><g opacity="1" transform="matrix(1,0,0,1,151.2729949951172,312.6210021972656)"><path fill="#FBBA43" fill-opacity="1" d=" M-122.4540023803711,-98.42900085449219 C-122.4540023803711,-98.42900085449219 -122.34300231933594,30.268999099731445 -122.34300231933594,30.268999099731445 C-122.33799743652344,36.415000915527344 -119.78800201416016,42.0620002746582 -115.2979965209961,45.874000549316406 C-115.2979965209961,45.874000549316406 -105.04199981689453,54.57899856567383 -105.04199981689453,54.57899856567383 C-101.66300201416016,57.446998596191406 -99.5510025024414,61.54399871826172 -99.09700012207031,66.10600280761719 C-99.09700012207031,66.10600280761719 -96.5,92.23600006103516 -96.5,92.23600006103516 C-96.00800323486328,97.18000030517578 -92.02999877929688,100.76200103759766 -87.02999877929688,100.76200103759766 C-87.02999877929688,100.76200103759766 -77.6709976196289,100.76200103759766 -77.6709976196289,100.76200103759766 C-77.6709976196289,100.76200103759766 42.61899948120117,100.76200103759766 42.61899948120117,100.76200103759766 C42.61899948120117,100.76200103759766 51.979000091552734,100.76200103759766 51.979000091552734,100.76200103759766 C56.979000091552734,100.76200103759766 61.58000183105469,97.18000030517578 62.93199920654297,92.23600006103516 C62.93199920654297,92.23600006103516 70.072998046875,66.10600280761719 70.072998046875,66.10600280761719 C71.32099914550781,61.54399871826172 74.1449966430664,57.446998596191406 78.02300262451172,54.57899856567383 C78.02300262451172,54.57899856567383 89.79299926757812,45.874000549316406 89.79299926757812,45.874000549316406 C94.94599914550781,42.0620002746582 98.47799682617188,36.415000915527344 99.552001953125,30.268999099731445 C99.552001953125,30.268999099731445 122.4540023803711,-100.76200103759766 122.4540023803711,-100.76200103759766 C122.4540023803711,-100.76200103759766 24.197999954223633,-98.20800018310547 -122.4540023803711,-98.42900085449219z"></path></g></g><g transform="matrix(1,0,0,1,333.0740051269531,493.85699462890625)" opacity="1" style="display: block;"><g opacity="1" transform="matrix(1,0,0,1,30.30699920654297,31.05699920654297)"><path fill="#404040" fill-opacity="1" d=" M21.923999786376953,11.348999977111816 C13.817999839782715,24.886999130249023 -2.9749999046325684,30.780000686645508 -15.583000183105469,24.511999130249023 C-28.19099998474121,18.243999481201172 -30.030000686645508,3.0889999866485596 -21.923999786376953,-10.449000358581543 C-13.817999839782715,-23.98699951171875 1.1629999876022339,-30.780000686645508 13.770999908447266,-24.511999130249023 C26.378999710083008,-18.243999481201172 30.030000686645508,-2.188999891281128 21.923999786376953,11.348999977111816z"></path><path stroke-linecap="butt" stroke-linejoin="miter" fill-opacity="0" stroke-miterlimit="10" stroke="#404040" stroke-opacity="1" stroke-width="0.111px" d=" M21.923999786376953,11.348999977111816 C13.817999839782715,24.886999130249023 -2.9749999046325684,30.780000686645508 -15.583000183105469,24.511999130249023 C-28.19099998474121,18.243999481201172 -30.030000686645508,3.0889999866485596 -21.923999786376953,-10.449000358581543 C-13.817999839782715,-23.98699951171875 1.1629999876022339,-30.780000686645508 13.770999908447266,-24.511999130249023 C26.378999710083008,-18.243999481201172 30.030000686645508,-2.188999891281128 21.923999786376953,11.348999977111816z"></path></g></g><g transform="matrix(1,0,0,1,406.09600830078125,510.3599853515625)" opacity="1" style="display: block;"><g opacity="1" transform="matrix(1,0,0,1,28.211000442504883,26.86199951171875)"><path fill="#404040" fill-opacity="1" d=" M24.246000289916992,1.9639999866485596 C20.558000564575195,16.047000885009766 6.264999866485596,26.583999633789062 -7.678999900817871,25.499000549316406 C-21.621999740600586,24.415000915527344 -27.933000564575195,12.274999618530273 -24.2450008392334,-1.809000015258789 C-20.55699920654297,-15.892000198364258 -8.267000198364258,-26.584999084472656 5.677000045776367,-25.500999450683594 C19.6200008392334,-24.416000366210938 27.93400001525879,-12.119000434875488 24.246000289916992,1.9639999866485596z"></path><path stroke-linecap="butt" stroke-linejoin="miter" fill-opacity="0" stroke-miterlimit="10" stroke="#404040" stroke-opacity="1" stroke-width="0.111px" d=" M24.246000289916992,1.9639999866485596 C20.558000564575195,16.047000885009766 6.264999866485596,26.583999633789062 -7.678999900817871,25.499000549316406 C-21.621999740600586,24.415000915527344 -27.933000564575195,12.274999618530273 -24.2450008392334,-1.809000015258789 C-20.55699920654297,-15.892000198364258 -8.267000198364258,-26.584999084472656 5.677000045776367,-25.500999450683594 C19.6200008392334,-24.416000366210938 27.93400001525879,-12.119000434875488 24.246000289916992,1.9639999866485596z"></path></g></g><g transform="matrix(1,0,0,1,360.5269775390625,565.93701171875)" opacity="1" style="display: block;"><g opacity="1" transform="matrix(1,0,0,1,28.246999740600586,27.702999114990234)"><path fill="#404040" fill-opacity="1" d=" M24.2450008392334,1.9639999866485596 C20.520999908447266,16.511999130249023 6.199999809265137,27.426000595092773 -7.74399995803833,26.340999603271484 C-21.687000274658203,25.256999969482422 -27.9689998626709,12.739999771118164 -24.2450008392334,-1.8079999685287476 C-20.520999908447266,-16.356000900268555 -8.201000213623047,-27.426000595092773 5.742000102996826,-26.340999603271484 C19.684999465942383,-25.256999969482422 27.9689998626709,-12.583999633789062 24.2450008392334,1.9639999866485596z"></path><path stroke-linecap="butt" stroke-linejoin="miter" fill-opacity="0" stroke-miterlimit="10" stroke="#404040" stroke-opacity="1" stroke-width="0.111px" d=" M24.2450008392334,1.9639999866485596 C20.520999908447266,16.511999130249023 6.199999809265137,27.426000595092773 -7.74399995803833,26.340999603271484 C-21.687000274658203,25.256999969482422 -27.9689998626709,12.739999771118164 -24.2450008392334,-1.8079999685287476 C-20.520999908447266,-16.356000900268555 -8.201000213623047,-27.426000595092773 5.742000102996826,-26.340999603271484 C19.684999465942383,-25.256999969482422 27.9689998626709,-12.583999633789062 24.2450008392334,1.9639999866485596z"></path></g></g><g transform="matrix(1,0,0,1,351.0069885253906,143.7989959716797)" opacity="1" style="display: block;"><g opacity="1" transform="matrix(1,0,0,1,35.57500076293945,70.17400360107422)"><path fill="#FF3008" fill-opacity="1" d=" M16.30500030517578,45.64799880981445 C16.30500030517578,45.64799880981445 35.32500076293945,-44.59400177001953 35.32500076293945,-44.59400177001953 C35.32500076293945,-44.59400177001953 -12.263999938964844,-48.39099884033203 -12.263999938964844,-48.39099884033203 C-12.263999938964844,-48.39099884033203 -35.32500076293945,43.20600128173828 -35.32500076293945,43.20600128173828 C-35.32500076293945,43.20600128173828 -29.347000122070312,46.016998291015625 -12.128000259399414,47.20399856567383 C5.091000080108643,48.39099884033203 16.30500030517578,45.64799880981445 16.30500030517578,45.64799880981445z"></path></g><g opacity="1" transform="matrix(1,0,0,1,46.80400085449219,25.26799964904785)"><path fill="#404040" fill-opacity="1" d=" M23.999000549316406,0 C22.79199981689453,13.802000045776367 10.62399959564209,24.989999771118164 -3.177000045776367,24.989999771118164 C-16.979000091552734,24.989999771118164 -25.20599937438965,13.802000045776367 -23.99799919128418,0 C-22.791000366210938,-13.802000045776367 -12.605999946594238,-24.989999771118164 1.1950000524520874,-24.989999771118164 C14.996999740600586,-24.989999771118164 25.20599937438965,-13.802000045776367 23.999000549316406,0z"></path><path stroke-linecap="butt" stroke-linejoin="miter" fill-opacity="0" stroke-miterlimit="10" stroke="#404040" stroke-opacity="1" stroke-width="0.111px" d=" M23.999000549316406,0 C22.79199981689453,13.802000045776367 10.62399959564209,24.989999771118164 -3.177000045776367,24.989999771118164 C-16.979000091552734,24.989999771118164 -25.20599937438965,13.802000045776367 -23.99799919128418,0 C-22.791000366210938,-13.802000045776367 -12.605999946594238,-24.989999771118164 1.1950000524520874,-24.989999771118164 C14.996999740600586,-24.989999771118164 25.20599937438965,-13.802000045776367 23.999000549316406,0z"></path></g></g><g transform="matrix(1,0,0,1,331.58099365234375,229.02999877929688)" opacity="1" style="display: block;"><g opacity="1" transform="matrix(1,0,0,1,58.46200180053711,17.319000244140625)"><path fill="#A6E9E9" fill-opacity="1" d=" M58.21200180053711,-9.196999549865723 C43.573001861572266,-14.37399959564209 25.12299919128418,-17.069000244140625 1.6710000038146973,-16.10300064086914 C-22.077999114990234,-15.12600040435791 -41.856998443603516,-9.824999809265137 -58.21200180053711,-2.140000104904175 C-58.21200180053711,-2.140000104904175 -42.159000396728516,17.069000244140625 0,14.246000289916992 C42.159000396728516,11.42300033569336 58.21200180053711,-9.196999549865723 58.21200180053711,-9.196999549865723z"></path></g></g></g></svg>