<svg xmlns:xlink="http://www.w3.org/1999/xlink" xmlns="http://www.w3.org/2000/svg" viewBox="0 0 760 760" width="760" height="760" preserveAspectRatio="xMidYMid meet" style="width: 100%; height: 100%; transform: translate3d(0px, 0px, 0px);"><defs><clipPath id="__lottie_element_169"><rect width="760" height="760" x="0" y="0"></rect></clipPath></defs><g clip-path="url(#__lottie_element_169)"><g transform="matrix(1,0,0,1,0,30)" opacity="1" style="display: block;"><g opacity="1" transform="matrix(1,0,0,1,468.1059875488281,380.43499755859375)"><path fill="#404040" fill-opacity="1" d=" M-130.5489959716797,-227.68299865722656 C-130.5489959716797,-227.68299865722656 -73.80500030517578,-229.5469970703125 -10.930999755859375,-227.68299865722656 C51.944000244140625,-225.81900024414062 85.45899963378906,-193.85400390625 105.35199737548828,-149.58700561523438 C124.95800018310547,-105.95800018310547 151.55299377441406,43.23899841308594 92.625,138.76199340820312 C36.619998931884766,229.54600524902344 -119.11699676513672,206.53500366210938 -151.55299377441406,206.86500549316406 C-150.18600463867188,162.14700317382812 -130.5489959716797,-227.68299865722656 -130.5489959716797,-227.68299865722656z"></path></g><g opacity="1" transform="matrix(1,0,0,1,315.53900146484375,369.85400390625)"><path fill="#C9DDFF" fill-opacity="1" d=" M13.859000205993652,-217.26600646972656 C106.4800033569336,-217.44700622558594 174.76300048828125,-150.3350067138672 174.76300048828125,18.68199920654297 C174.76300048828125,187.69900512695312 91.60700225830078,217.44700622558594 1.0140000581741333,217.44700622558594 C-89.5790023803711,217.44700622558594 -174.76400756835938,143.0780029296875 -156.50999450683594,-10.388999938964844 C-138.25599670410156,-163.85699462890625 -75.4739990234375,-217.09100341796875 13.859000205993652,-217.26600646972656z"></path></g><g opacity="1" transform="matrix(1,0,0,1,279.0889892578125,297.5199890136719)"><path fill="#FFFFFF" fill-opacity="1" d=" M-46.28499984741211,-45.06700134277344 C-46.28499984741211,-45.06700134277344 -46.28499984741211,46.79399871826172 -46.28499984741211,46.79399871826172 C-46.28499984741211,55.30500030517578 -39.38600158691406,62.20399856567383 -30.875,62.20399856567383 C-30.875,62.20399856567383 29.645999908447266,62.20399856567383 29.645999908447266,62.20399856567383 C38.08399963378906,62.20399856567383 44.952999114990234,55.41699981689453 45.05500030517578,46.97999954223633 C45.05500030517578,46.97999954223633 46.17900085449219,-46.39799880981445 46.17900085449219,-46.39799880981445 C46.284000396728516,-55.12900161743164 39.119998931884766,-62.20500183105469 30.391000747680664,-61.9900016784668 C30.391000747680664,-61.9900016784668 -31.253999710083008,-60.47100067138672 -31.253999710083008,-60.47100067138672 C-39.6150016784668,-60.26499938964844 -46.28499984741211,-53.43000030517578 -46.28499984741211,-45.06700134277344z"></path></g><g opacity="1" transform="matrix(1,0,0,1,374.8630065917969,297.6549987792969)"><path fill="#D55700" fill-opacity="1" d=" M-49.02399826049805,-45.15299987792969 C-49.02399826049805,-45.15299987792969 -50.356998443603516,44.165000915527344 -50.356998443603516,44.165000915527344 C-50.494998931884766,53.382999420166016 -42.56800079345703,60.974998474121094 -32.652000427246094,61.12300109863281 C-32.652000427246094,61.12300109863281 27.10700035095215,62.01499938964844 27.10700035095215,62.01499938964844 C36.784000396728516,62.15999984741211 44.82600021362305,55.150001525878906 45.29199981689453,46.165000915527344 C45.29199981689453,46.165000915527344 49.99800109863281,-44.547000885009766 49.99800109863281,-44.547000885009766 C50.49599838256836,-54.13999938964844 42.20199966430664,-62.1609992980957 31.8700008392334,-62.07899856567383 C31.8700008392334,-62.07899856567383 -31.261999130249023,-61.57699966430664 -31.261999130249023,-61.57699966430664 C-41.00699996948242,-61.499000549316406 -48.888999938964844,-54.21099853515625 -49.02399826049805,-45.15299987792969z"></path></g><g opacity="1" transform="matrix(1,0,0,1,279.2070007324219,490.2200012207031)"><path fill="#FF7800" fill-opacity="1" d=" M-34.000999450683594,-36.88199996948242 C-10.859000205993652,-36.770999908447266 24.520999908447266,-37.60499954223633 33.47999954223633,-36.88199996948242 C42.4379997253418,-36.159000396728516 45.090999603271484,-30.614999771118164 45.81399917602539,-20.007999420166016 C46.5369987487793,-9.402000427246094 45.54800033569336,19.04400062561035 45.064998626708984,23.864999771118164 C44.58300018310547,28.68600082397461 41.20800018310547,35.91699981689453 28.67300033569336,36.15800094604492 C16.13800048828125,36.39899826049805 -18.572999954223633,37.604000091552734 -30.625999450683594,36.15800094604492 C-42.67900085449219,34.71200180053711 -46.05400085449219,26.274999618530273 -46.29499816894531,18.31999969482422 C-46.5359992980957,10.364999771118164 -46.29499816894531,-15.428000450134277 -46.29499816894531,-21.937000274658203 C-46.29499816894531,-28.44499969482422 -42.196998596191406,-36.92100143432617 -34.000999450683594,-36.88199996948242z"></path></g><g opacity="1" transform="matrix(1,0,0,1,370.906005859375,490.2200012207031)"><path fill="#FFB300" fill-opacity="1" d=" M-34.000999450683594,-36.88199996948242 C-10.859000205993652,-36.770999908447266 24.520999908447266,-37.60499954223633 33.47999954223633,-36.88199996948242 C42.4379997253418,-36.159000396728516 45.090999603271484,-30.614999771118164 45.81399917602539,-20.007999420166016 C46.5369987487793,-9.402000427246094 45.547000885009766,19.04400062561035 45.06399917602539,23.864999771118164 C44.582000732421875,28.68600082397461 41.20800018310547,35.91699981689453 28.67300033569336,36.15800094604492 C16.13800048828125,36.39899826049805 -18.572999954223633,37.604000091552734 -30.625999450683594,36.15800094604492 C-42.67900085449219,34.71200180053711 -46.05500030517578,26.274999618530273 -46.29600143432617,18.31999969482422 C-46.5369987487793,10.364999771118164 -46.29600143432617,-15.428000450134277 -46.29600143432617,-21.937000274658203 C-46.29600143432617,-28.44499969482422 -42.196998596191406,-36.92100143432617 -34.000999450683594,-36.88199996948242z"></path></g><g opacity="1" transform="matrix(1,0,0,1,278.65399169921875,406.531005859375)"><path fill="#00AF00" fill-opacity="1" d=" M-32.244998931884766,-46.80699920654297 C-32.244998931884766,-46.80699920654297 33.224998474121094,-46.80699920654297 33.224998474121094,-46.80699920654297 C41.007999420166016,-46.80699920654297 48.15299987792969,-42.70600128173828 48.15299987792969,-31.10099983215332 C48.15299987792969,-19.496000289916992 46.6150016784668,31.082000732421875 46.6150016784668,37.183998107910156 C46.6150016784668,43.2859992980957 43.316001892089844,46.80799865722656 35.69499969482422,46.80799865722656 C35.69499969482422,46.80799865722656 -33.44900131225586,46.80799865722656 -33.44900131225586,46.80799865722656 C-41.09400177001953,46.80799865722656 -48.15299987792969,44.52799987792969 -47.48699951171875,33.987998962402344 C-46.64099884033203,20.6200008392334 -45.849998474121094,-26.742000579833984 -45.849998474121094,-33.42599868774414 C-45.849998474121094,-40.10900115966797 -41.73099899291992,-46.80699920654297 -32.244998931884766,-46.80699920654297z"></path></g><g opacity="1" transform="matrix(1,0,0,1,368.98699951171875,405.7439880371094)"><path fill="#404040" fill-opacity="1" d=" M44.362998962402344,-38.7760009765625 C44.487998962402344,-43.141998291015625 42.742000579833984,-46.23400115966797 37.37799835205078,-46.23400115966797 C32.013999938964844,-46.23400115966797 26.440000534057617,-46.310001373291016 20.570999145507812,-46.38600158691406 C16.333999633789062,-46.441001892089844 13.336000442504883,-43.39099884033203 13.279999732971191,-39.650001525878906 C13.267999649047852,-38.89099884033203 13.154000282287598,-34.87900161743164 13.00100040435791,-29.55299949645996 C12.973999977111816,-29.594999313354492 12.949000358581543,-29.63599967956543 12.92300033569336,-29.67799949645996 C10.02299976348877,-34.31700134277344 7.730999946594238,-37.3129997253418 3.1600000858306885,-42.875999450683594 C-1.4110000133514404,-48.4379997253418 -5.0289998054504395,-46.10599899291992 -8.312000274658203,-44.540000915527344 C-11.595999717712402,-42.9739990234375 -33.202999114990234,-29.23200035095215 -37.79100036621094,-26.200000762939453 C-43.34600067138672,-22.530000686645508 -42.89099884033203,-18.801000595092773 -41.39699935913086,-16.11199951171875 C-36.763999938964844,-7.769999980926514 -32.20500183105469,-0.8450000286102295 -29.764999389648438,2.0859999656677246 C-29.51099967956543,2.3910000324249268 -29.26300048828125,2.671999931335449 -29.016000747680664,2.938999891281128 C-29.77400016784668,2.822999954223633 -30.34600067138672,2.7300000190734863 -30.687999725341797,2.6659998893737793 C-35.63600158691406,1.7339999675750732 -39.472999572753906,3.1619999408721924 -40.444000244140625,9.269000053405762 C-41.415000915527344,15.37600040435791 -42.5099983215332,21.708999633789062 -43.659000396728516,28.37700080871582 C-44.487998962402344,33.191001892089844 -41.558998107910156,37.15700149536133 -37.310001373291016,37.89699935913086 C-34.472999572753906,38.391998291015625 19.21299934387207,46.632999420166016 23.774999618530273,47.36399841308594 C30.479999542236328,48.4379997253418 32.685001373291016,45.597999572753906 33.20500183105469,42.332000732421875 C33.7239990234375,39.064998626708984 37.53499984741211,23.08799934387207 37.87699890136719,18.191999435424805 C38.053001403808594,15.673999786376953 37.2599983215332,13.892999649047852 35.847999572753906,12.694999694824219 C37.138999938964844,12.706999778747559 38.233001708984375,12.687999725341797 39,12.619999885559082 C43.24100112915039,12.246000289916992 44.34600067138672,9.135000228881836 44.369998931884766,5.261000156402588 C44.39699935913086,0.7519999742507935 44.23899841308594,-34.40999984741211 44.362998962402344,-38.7760009765625z M-19.165000915527344,3.078000068664551 C-13.17300033569336,-0.296999990940094 5.190999984741211,-13.053999900817871 11.182999610900879,-17.5 C11.3100004196167,-17.5939998626709 11.434000015258789,-17.687999725341797 11.553999900817871,-17.7810001373291 C12.006999969482422,-18.131000518798828 12.661999702453613,-17.791000366210938 12.645999908447266,-17.2189998626709 C12.362000465393066,-7.293000221252441 12.09000015258789,2.568000078201294 12.088000297546387,4.51200008392334 C12.086999893188477,5.710999965667725 12.201000213623047,6.7220001220703125 12.406999588012695,7.578000068664551 C12.517000198364258,8.038999557495117 12.131999969482422,8.46399974822998 11.661999702453613,8.402999877929688 C1.6749999523162842,7.116000175476074 -10.241000175476074,5.547999858856201 -18.951000213623047,4.361000061035156 C-19.60099983215332,4.271999835968018 -19.757999420166016,3.4110000133514404 -19.18600082397461,3.0899999141693115 C-19.179000854492188,3.0859999656677246 -19.172000885009766,3.0820000171661377 -19.165000915527344,3.078000068664551z"></path></g></g></g></svg>