<svg xmlns:xlink="http://www.w3.org/1999/xlink" xmlns="http://www.w3.org/2000/svg" viewBox="0 0 760 760" width="760" height="760" preserveAspectRatio="xMidYMid meet" style="width: 100%; height: 100%; transform: translate3d(0px, 0px, 0px);"><defs><clipPath id="__lottie_element_17"><rect width="760" height="760" x="0" y="0"></rect></clipPath></defs><g clip-path="url(#__lottie_element_17)"><g transform="matrix(1.0150647163391113,-0.4733324646949768,0.4733324646949768,1.0150647163391113,-195.5909423828125,196.14173889160156)" opacity="1" style="display: block;"><g opacity="1" transform="matrix(1,0,0,1,382.2049865722656,429.82598876953125)"><path fill="#CEDDFF" fill-opacity="1" d=" M-212.53700256347656,-9.484999656677246 C-210.13900756835938,19.89299964904785 -208.23199462890625,75.12899780273438 -119.00900268554688,80.44599914550781 C-42.1349983215332,85.0270004272461 93.75599670410156,83.02899932861328 135.79600524902344,76.8489990234375 C169.60699462890625,71.87899780273438 212.53700256347656,35.48099899291992 204.14300537109375,-17.27899932861328 C204.14300537109375,-17.27899932861328 75.24199676513672,-85.0270004272461 -7.494999885559082,-79.63099670410156 C-90.23200225830078,-74.23500061035156 -212.53700256347656,-9.484999656677246 -212.53700256347656,-9.484999656677246z"></path></g><g opacity="1" transform="matrix(1,0,0,1,320.59600830078125,442.3659973144531)"><path fill="#FFFFFF" fill-opacity="1" d=" M-24.298999786376953,-23.53700065612793 C-17.104000091552734,-30.761999130249023 0.6840000152587891,-20.788000106811523 11.293999671936035,-8.760000228881836 C21.902999877929688,3.2679998874664307 31.143999099731445,18.388999938964844 23.27199935913086,24.575000762939453 C15.401000022888184,30.76099967956543 -5.47599983215332,24.917999267578125 -16.086000442504883,8.767000198364258 C-26.695999145507812,-7.385000228881836 -31.143999099731445,-16.663999557495117 -24.298999786376953,-23.53700065612793z"></path></g><g opacity="1" transform="matrix(1,0,0,1,481.3219909667969,456.4599914550781)"><path fill="#FFFFFF" fill-opacity="1" d=" M-28.750999450683594,18.659000396728516 C-34.441001892089844,10.196999549865723 -21.201000213623047,-5.314000129699707 -7.3420000076293945,-13.385000228881836 C6.51800012588501,-21.457000732421875 21.729999542236328,-26.708999633789062 27.684999465942383,-18.660999298095703 C34.441001892089844,-9.529999732971191 24.368999481201172,5.414999961853027 4.5329999923706055,16.875999450683594 C-12.199999809265137,26.54400062561035 -23.33799934387207,26.708999633789062 -28.750999450683594,18.659000396728516z"></path></g><g opacity="1" transform="matrix(1,0,0,1,207.5760040283203,364.3420104980469)"><path fill="#FF0000" fill-opacity="1" d=" M52.92300033569336,-96.0989990234375 C-3.9119999408721924,-72.81999969482422 -37.435001373291016,-32.042999267578125 -45.6609992980957,22.386999130249023 C-52.92300033569336,70.44400024414062 -29.538000106811523,96.0989990234375 19.8700008392334,70.6989974975586 C0.6039999723434448,4.2769999504089355 26.114999771118164,-59.93600082397461 52.92300033569336,-96.0989990234375z"></path></g><g opacity="1" transform="matrix(1,0,0,1,365.6340026855469,320.14801025390625)"><path fill="#FF0000" fill-opacity="1" d=" M35.9739990234375,-13.633999824523926 C48.68199920654297,-43.70899963378906 62.5620002746582,-62.944000244140625 81.86499786376953,-71.54900360107422 C65.05599975585938,-73.30899810791016 46.74700164794922,-74.13200378417969 26.834999084472656,-74.1050033569336 C13.425000190734863,-74.08699798583984 0.5730000138282776,-73.56700134277344 -11.727999687194824,-72.572998046875 C-47.92499923706055,-45.150001525878906 -81.86499786376953,32.7859992980957 -58.402000427246094,74.13200378417969 C-30.51099967956543,65.18800354003906 1.1490000486373901,59.79199981689453 33.13100051879883,59.78099822998047 C25.469999313354492,47.6619987487793 21.165000915527344,21.413000106811523 35.9739990234375,-13.633999824523926z"></path></g><g opacity="1" transform="matrix(1,0,0,1,281.0429992675781,341.3080139160156)"><path fill="#FF8100" fill-opacity="1" d=" M72.86299896240234,-93.73300170898438 C36.88600158691406,-90.8270034790039 5.688000202178955,-83.80899810791016 -20.54400062561035,-73.06500244140625 C-47.35300064086914,-36.902000427246094 -72.86199951171875,27.31100082397461 -53.59700012207031,93.73300170898438 C-47.16600036621094,90.427001953125 -40.29999923706055,86.26699829101562 -32.99700164794922,81.16799926757812 C-17.083999633789062,70.05500030517578 3.2820000648498535,60.31800079345703 26.18899917602539,52.97200012207031 C2.7260000705718994,11.62600040435791 36.665000915527344,-66.30899810791016 72.86299896240234,-93.73300170898438z"></path></g><g opacity="1" transform="matrix(1,0,0,1,464.26800537109375,322.63800048828125)"><path fill="#FF8100" fill-opacity="1" d=" M77.46900177001953,-44.77899932861328 C53.70600128173828,-60.604000091552734 22.621999740600586,-69.91500091552734 -16.768999099731445,-74.03900146484375 C-36.071998596191406,-65.43399810791016 -49.95199966430664,-46.198001861572266 -62.65999984741211,-16.12299919128418 C-77.46900177001953,18.923999786376953 -73.16400146484375,45.17300033569336 -65.50299835205078,57.29199981689453 C-34.571998596191406,57.28200149536133 -3.3420000076293945,62.31100082397461 25.073999404907227,74.03900146484375 C18.878000259399414,48.42900085449219 22.610000610351562,-21.81100082397461 77.46900177001953,-44.77899932861328z"></path></g><g opacity="1" transform="matrix(1,0,0,1,573.5919799804688,392.6400146484375)"><path fill="#FF8100" fill-opacity="1" d=" M17.43899917602539,-49.452999114990234 C-21.639999389648438,-47.814998626708984 -32.18899917602539,10.748000144958496 -27.01799964904785,35.279998779296875 C9.010000228881836,49.452999114990234 32.18899917602539,29.85700035095215 28.4060001373291,-0.7889999747276306 C26.166000366210938,-18.93899917602539 22.54400062561035,-35.104000091552734 17.43899917602539,-49.452999114990234z"></path></g><g opacity="1" transform="matrix(1,0,0,1,537.0880126953125,352.8890075683594)"><path fill="#FF0000" fill-opacity="1" d=" M53.94300079345703,-9.70199966430664 C43.74800109863281,-38.35900115966797 27.61400032043457,-59.73699951171875 4.64900016784668,-75.03099822998047 C-50.209999084472656,-52.0629997253418 -53.94300079345703,18.177000045776367 -47.74700164794922,43.78799819946289 C-35.5989990234375,48.801998138427734 -23.96500015258789,55.0369987487793 -13.090999603271484,62.630001068115234 C-5.140999794006348,68.18099975585938 2.4170000553131104,72.2509994506836 9.484999656677246,75.03099822998047 C4.314000129699707,50.499000549316406 14.86400032043457,-8.064000129699707 53.94300079345703,-9.70199966430664z"></path></g></g></g></svg>