<svg xmlns:xlink="http://www.w3.org/1999/xlink" xmlns="http://www.w3.org/2000/svg" viewBox="0 0 760 760" width="760" height="760" preserveAspectRatio="xMidYMid meet" style="width: 100%; height: 100%; transform: translate3d(0px, 0px, 0px);"><defs><clipPath id="__lottie_element_90"><rect width="760" height="760" x="0" y="0"></rect></clipPath></defs><g clip-path="url(#__lottie_element_90)"><g transform="matrix(1.1200000047683716,0,0,1.1200000047683716,-45.600006103515625,-35.600006103515625)" opacity="1" style="display: block;"><g opacity="1" transform="matrix(1,0,0,1,291.3450012207031,272.0450134277344)"><path fill="#00AD2E" fill-opacity="1" d=" M-20.072999954223633,7.736999988555908 C-15.177000045776367,14.333999633789062 -10.618000030517578,22.089000701904297 -4.242000102996826,16.39299964904785 C2.134000062942505,10.696000099182129 12.083000183105469,2.1570000648498535 17.447999954223633,-2.921999931335449 C22.812000274658203,-8.00100040435791 19.072999954223633,-10.88700008392334 16.125999450683594,-13.668000221252441 C13.178999900817871,-16.448999404907227 8.050000190734863,-22.089000701904297 1.9819999933242798,-17.256999969482422 C-4.085999965667725,-12.425999641418457 -16.711999893188477,-2.180999994277954 -18.81100082397461,-0.4490000009536743 C-20.90999984741211,1.2829999923706055 -22.81100082397461,4.046999931335449 -20.072999954223633,7.736999988555908z"></path></g><g opacity="1" transform="matrix(1,0,0,1,351.59600830078125,419.68499755859375)"><path fill="#FFB809" fill-opacity="1" d=" M-111.32099914550781,157.87399291992188 C-111.32099914550781,157.87399291992188 164.64300537109375,-26.19099998474121 164.64300537109375,-26.19099998474121 C164.64300537109375,-26.19099998474121 54.59299850463867,-157.87399291992188 54.59299850463867,-157.87399291992188 C54.59299850463867,-157.87399291992188 -164.64300537109375,-13.802000045776367 -164.64300537109375,-13.802000045776367 C-164.64300537109375,-13.802000045776367 -111.32099914550781,157.87399291992188 -111.32099914550781,157.87399291992188z"></path></g><g opacity="1" transform="matrix(1,0,0,1,213.4739990234375,490.9389953613281)"><path fill="#FFB809" fill-opacity="1" d=" M-0.8349999785423279,-92.15699768066406 C31.184999465942383,-92.37100219726562 56.4370002746582,-54.55699920654297 56.4370002746582,0.10599999874830246 C56.4370002746582,54.76900100708008 42.15800094604492,92.37000274658203 4.333000183105469,92.302001953125 C-39.821998596191406,92.2229995727539 -54.902000427246094,40.8390007019043 -55.691001892089844,0.2619999945163727 C-56.4370002746582,-38.12099838256836 -48.17599868774414,-91.83999633789062 -0.8349999785423279,-92.15699768066406z"></path></g><g opacity="1" transform="matrix(1,0,0,1,418.74200439453125,311.4469909667969)"><path fill="#FF8100" fill-opacity="1" d=" M-184.65499877929688,63.303001403808594 C-144.56199645996094,48.566001892089844 -95.66699981689453,41.53900146484375 -56.611000061035156,76.4020004272461 C-17.554000854492188,111.26599884033203 34.742000579833984,133.88699340820312 97.49600219726562,82.0469970703125 C160.25100708007812,30.20800018310547 184.656005859375,6.675000190734863 176.81100463867188,-57.823001861572266 C168.9669952392578,-122.32099914550781 108.4280014038086,-133.88699340820312 56.13199996948242,-96.40899658203125 C3.8369998931884766,-58.93000030517578 -184.65499877929688,63.303001403808594 -184.65499877929688,63.303001403808594z"></path></g><g opacity="1" transform="matrix(1,0,0,1,219.78599548339844,492.41900634765625)"><path fill="#A20037" fill-opacity="1" d=" M50.125,-1.3730000257492065 C50.125,-44.803001403808594 34.183998107910156,-77.59400177001953 11.574000358581543,-89.13099670410156 C6.150000095367432,-89.91100311279297 1.4240000247955322,-89.80999755859375 -3.5450000762939453,-86.53500366210938 C-13.045999526977539,-80.2750015258789 -10.802000045776367,-76.2249984741211 -21.979000091552734,-68.4010009765625 C-33.15700149536133,-60.57699966430664 -37.17499923706055,-60.652000427246094 -41.68899917602539,-48.808998107910156 C-45.542999267578125,-38.69900131225586 -40.064998626708984,-35.527000427246094 -45.095001220703125,-19.94499969482422 C-50.125,-4.363999843597412 -42.09299850463867,4.605999946594238 -40.97600173950195,14.666000366210938 C-39.858001708984375,24.72599983215332 -46.750999450683594,39.95600128173828 -34.382999420166016,50.76100158691406 C-25.527999877929688,58.49700164794922 -30.371000289916992,76.76899719238281 -16.39900016784668,78.44599914550781 C-4.1620001792907715,79.91400146484375 -5.2729997634887695,87.08200073242188 7.806000232696533,89.91100311279297 C38.33399963378906,83.87300109863281 50.125,48.29399871826172 50.125,-1.3730000257492065z"></path></g><g opacity="1" transform="matrix(1,0,0,1,385.0979919433594,294.08099365234375)"><path fill="#CEDDFF" fill-opacity="1" d=" M-12.494000434875488,-62.16699981689453 C-49.191001892089844,-42.77000045776367 -91.91600036621094,-25.107999801635742 -106.65699768066406,-4.171000003814697 C-121.39900207519531,16.766000747680664 -134.62899780273438,64.19000244140625 -80.15399932861328,81.7229995727539 C-25.68000030517578,99.25700378417969 17.89900016784668,53.03900146484375 49.027000427246094,34.513999938964844 C80.15499877929688,15.98900032043457 126.84700012207031,-6.067999839782715 130.73800659179688,-35.117000579833984 C134.62899780273438,-64.16600036621094 110.05899810791016,-99.25700378417969 66.49199676513672,-95.83899688720703 C31.15999984741211,-93.06600189208984 9.640000343322754,-73.86599731445312 -12.494000434875488,-62.16699981689453z"></path></g><g opacity="1" transform="matrix(1,0,0,1,392.8240051269531,218.2550048828125)"><path fill="#00AD2E" fill-opacity="1" d=" M-21.740999221801758,3.322999954223633 C-18.450000762939453,10.850000381469727 -15.748000144958496,19.430999755859375 -8.255999565124512,15.310999870300293 C-0.7639999985694885,11.1899995803833 10.847000122070312,5.10099983215332 17.21500015258789,1.3550000190734863 C23.582000732421875,-2.390000104904175 20.586999893188477,-6.041999816894531 18.339000701904297,-9.413000106811523 C16.091999053955078,-12.784000396728516 12.357000350952148,-19.430999755859375 5.360000133514404,-16.084999084472656 C-1.6369999647140503,-12.73799991607666 -16.239999771118164,-5.5879998207092285 -18.673999786376953,-4.370999813079834 C-21.107999801635742,-3.1540000438690186 -23.582000732421875,-0.8870000243186951 -21.740999221801758,3.322999954223633z"></path></g><g opacity="1" transform="matrix(1,0,0,1,374.97698974609375,282.8500061035156)"><path fill="#00AD2E" fill-opacity="1" d=" M11.019000053405762,17.97599983215332 C16.617000579833984,11.96399974822998 23.416000366210938,6.072999954223633 16.6560001373291,0.8370000123977661 C9.897000312805176,-4.39900016784668 -0.3050000071525574,-12.633000373840332 -6.27400016784668,-16.986000061035156 C-12.243000030517578,-21.34000015258789 -14.402000427246094,-17.139999389648438 -16.601999282836914,-13.737000465393066 C-18.801000595092773,-10.335000038146973 -23.416000366210938,-4.263999938964844 -17.56399917602539,0.8259999752044678 C-11.711000442504883,5.915999889373779 0.6549999713897705,16.472000122070312 2.739000082015991,18.22100067138672 C4.822999954223633,19.969999313354492 7.888000011444092,21.339000701904297 11.019000053405762,17.97599983215332z"></path></g><g opacity="1" transform="matrix(1,0,0,1,307.0469970703125,331.75201416015625)"><path fill="#00AD2E" fill-opacity="1" d=" M6.973999977111816,-19.031999588012695 C-1.1549999713897705,-20.218000411987305 -9.866999626159668,-22.459999084472656 -10.329999923706055,-13.92300033569336 C-10.793000221252441,-5.385000228881836 -11.763999938964844,7.689000129699707 -11.951000213623047,15.074999809265137 C-12.137999534606934,22.459999084472656 -7.454999923706055,21.847999572753906 -3.4049999713897705,21.722000122070312 C0.6449999809265137,21.597000122070312 8.26200008392334,21.94099998474121 9.119999885559082,14.232000350952148 C9.979000091552734,6.52400016784668 11.630999565124512,-9.651000022888184 11.883999824523926,-12.359999656677246 C12.137999534606934,-15.069999694824219 11.520999908447266,-18.368999481201172 6.973999977111816,-19.031999588012695z"></path></g><g opacity="1" transform="matrix(1,0,0,1,476.6260070800781,257.552001953125)"><path fill="#00AD2E" fill-opacity="1" d=" M-12.180999755859375,16.322999954223633 C-4.583000183105469,19.44700050354004 3.322000026702881,23.73699951171875 5.843999862670898,15.567000389099121 C8.366000175476074,7.3979997634887695 12.482000350952148,-5.050000190734863 14.456999778747559,-12.168999671936035 C16.430999755859375,-19.288000106811523 11.739999771118164,-19.83099937438965 7.78000020980835,-20.691999435424805 C3.821000099182129,-21.554000854492188 -3.4839999675750732,-23.73699951171875 -6.188000202178955,-16.466999053955078 C-8.892999649047852,-9.197999954223633 -14.42199993133545,6.0920000076293945 -15.326000213623047,8.659000396728516 C-16.229999542236328,11.225000381469727 -16.430999755859375,14.576000213623047 -12.180999755859375,16.322999954223633z"></path></g></g></g></svg>