<svg xmlns:xlink="http://www.w3.org/1999/xlink" xmlns="http://www.w3.org/2000/svg" viewBox="0 0 760 760" width="760" height="760" preserveAspectRatio="xMidYMid meet" style="width: 100%; height: 100%; transform: translate3d(0px, 0px, 0px);"><defs><clipPath id="__lottie_element_85"><rect width="760" height="760" x="0" y="0"></rect></clipPath></defs><g clip-path="url(#__lottie_element_85)"><g transform="matrix(1,0,0,1,144.08099365234375,162.1439971923828)" opacity="1" style="display: block;"><g opacity="1" transform="matrix(1,0,0,1,229.05999755859375,262.5559997558594)"><path fill="#951C39" fill-opacity="1" d=" M-228.80999755859375,-14.875 C-228.80999755859375,-14.875 -228.80999755859375,148.69700622558594 -228.80999755859375,148.69700622558594 C-228.80999755859375,170.9040069580078 -210.80799865722656,188.906005859375 -188.60000610351562,188.906005859375 C-188.60000610351562,188.906005859375 170.81300354003906,188.906005859375 170.81300354003906,188.906005859375 C190.74200439453125,188.906005859375 207.72000122070312,174.41099548339844 210.81500244140625,154.72300720214844 C217.66600036621094,111.13999938964844 228.80999755859375,26.770000457763672 218.89300537109375,-29.742000579833984 C217.5919952392578,-37.15399932861328 213.70700073242188,-43.86399841308594 207.9510040283203,-48.7130012512207 C207.9510040283203,-48.7130012512207 41.42499923706055,-178.82699584960938 41.42499923706055,-178.82699584960938 C30.611000061035156,-187.93699645996094 15.118000030517578,-188.906005859375 3.253000020980835,-181.21400451660156 C-39.5629997253418,-153.45399475097656 -141.50599670410156,-88.28800201416016 -203.51800537109375,-56.30799865722656 C-219.03599548339844,-48.30500030517578 -228.80999755859375,-32.33599853515625 -228.80999755859375,-14.875z"></path></g><g opacity="1" transform="matrix(1,0,0,1,327.260009765625,139.64300537109375)"><path fill="#FDBC43" fill-opacity="1" d=" M53.3849983215332,25.2549991607666 C53.3849983215332,25.2549991607666 54.257999420166016,26.74799919128418 54.257999420166016,26.74799919128418 C54.257999420166016,26.74799919128418 53.2400016784668,27.32900047302246 53.2400016784668,27.32900047302246 C53.2400016784668,27.32900047302246 52.7599983215332,28.17099952697754 52.7599983215332,28.17099952697754 C52.7599983215332,28.17099952697754 52.0890007019043,28.90999984741211 52.0890007019043,28.90999984741211 C52.0890007019043,28.90999984741211 52.33599853515625,30.152999877929688 52.33599853515625,30.152999877929688 C52.33599853515625,30.152999877929688 51.10900115966797,30.57200050354004 51.10900115966797,30.57200050354004 C51.10900115966797,30.57200050354004 50.1879997253418,31.145000457763672 50.1879997253418,31.145000457763672 C50.1879997253418,31.145000457763672 50.7599983215332,32.62099838256836 50.7599983215332,32.62099838256836 C50.7599983215332,32.62099838256836 49.3120002746582,32.856998443603516 49.3120002746582,32.856998443603516 C49.3120002746582,32.856998443603516 49.33300018310547,34.016998291015625 49.33300018310547,34.016998291015625 C49.33300018310547,34.016998291015625 48.56700134277344,34.66699981689453 48.56700134277344,34.66699981689453 C48.56700134277344,34.66699981689453 48.382999420166016,35.7130012512207 48.382999420166016,35.7130012512207 C48.382999420166016,35.7130012512207 47.323001861572266,36.14699935913086 47.323001861572266,36.14699935913086 C47.323001861572266,36.14699935913086 46.479000091552734,36.72100067138672 46.479000091552734,36.72100067138672 C46.479000091552734,36.72100067138672 46.327999114990234,37.80699920654297 46.327999114990234,37.80699920654297 C46.327999114990234,37.80699920654297 45.14099884033203,38.10200119018555 45.14099884033203,38.10200119018555 C45.14099884033203,38.10200119018555 44.702999114990234,38.972999572753906 44.702999114990234,38.972999572753906 C44.702999114990234,38.972999572753906 44.9630012512207,40.43000030517578 44.9630012512207,40.43000030517578 C44.9630012512207,40.43000030517578 44.05799865722656,40.93600082397461 44.05799865722656,40.93600082397461 C44.05799865722656,40.93600082397461 42.73699951171875,41.0620002746582 42.73699951171875,41.0620002746582 C42.73699951171875,41.0620002746582 43.25199890136719,42.81100082397461 43.25199890136719,42.81100082397461 C43.25199890136719,42.81100082397461 41.91899871826172,42.90599822998047 41.91899871826172,42.90599822998047 C41.91899871826172,42.90599822998047 40.75299835205078,43.12099838256836 40.75299835205078,43.12099838256836 C40.75299835205078,43.12099838256836 40.742000579833984,44.44599914550781 40.742000579833984,44.44599914550781 C40.742000579833984,44.44599914550781 40.060001373291016,45.130001068115234 40.060001373291016,45.130001068115234 C40.060001373291016,45.130001068115234 39.1609992980957,45.5880012512207 39.1609992980957,45.5880012512207 C39.1609992980957,45.5880012512207 38.45800018310547,46.24300003051758 38.45800018310547,46.24300003051758 C38.45800018310547,46.24300003051758 37.540000915527344,46.6609992980957 37.540000915527344,46.6609992980957 C37.540000915527344,46.6609992980957 37.750999450683594,48.349998474121094 37.750999450683594,48.349998474121094 C37.750999450683594,48.349998474121094 36.47200012207031,48.35499954223633 36.47200012207031,48.35499954223633 C36.47200012207031,48.35499954223633 35.54899978637695,48.75299835205078 35.54899978637695,48.75299835205078 C35.54899978637695,48.75299835205078 35.5,50.224998474121094 35.5,50.224998474121094 C35.5,50.224998474121094 34.297000885009766,50.27000045776367 34.297000885009766,50.27000045776367 C34.297000885009766,50.27000045776367 33.645999908447266,51.01300048828125 33.645999908447266,51.01300048828125 C33.645999908447266,51.01300048828125 32.70100021362305,51.3650016784668 32.70100021362305,51.3650016784668 C32.70100021362305,51.3650016784668 32.119998931884766,52.2130012512207 32.119998931884766,52.2130012512207 C32.119998931884766,52.2130012512207 31.125,52.47999954223633 31.125,52.47999954223633 C31.125,52.47999954223633 30.822999954223633,53.76499938964844 30.822999954223633,53.76499938964844 C30.822999954223633,53.76499938964844 29.714000701904297,53.854000091552734 29.714000701904297,53.854000091552734 C29.714000701904297,53.854000091552734 29.15399932861328,54.7869987487793 29.15399932861328,54.7869987487793 C29.15399932861328,54.7869987487793 27.643999099731445,54.18299865722656 27.643999099731445,54.18299865722656 C27.643999099731445,54.18299865722656 26.695999145507812,54.459999084472656 26.695999145507812,54.459999084472656 C26.695999145507812,54.459999084472656 26.576000213623047,56.1870002746582 26.576000213623047,56.1870002746582 C26.576000213623047,56.1870002746582 24.98699951171875,55.3129997253418 24.98699951171875,55.3129997253418 C24.98699951171875,55.3129997253418 24.35700035095215,56.1609992980957 24.35700035095215,56.1609992980957 C24.35700035095215,56.1609992980957 23.711999893188477,57.012001037597656 23.711999893188477,57.012001037597656 C23.711999893188477,57.012001037597656 23.132999420166016,58.027000427246094 23.132999420166016,58.027000427246094 C23.132999420166016,58.027000427246094 21.506000518798828,56.86199951171875 21.506000518798828,56.86199951171875 C21.506000518798828,56.86199951171875 21.000999450683594,58.04999923706055 21.000999450683594,58.04999923706055 C21.000999450683594,58.04999923706055 20.26300048828125,58.768001556396484 20.26300048828125,58.768001556396484 C20.26300048828125,58.768001556396484 19.215999603271484,58.76900100708008 19.215999603271484,58.76900100708008 C19.215999603271484,58.76900100708008 18.684999465942383,60.03900146484375 18.684999465942383,60.03900146484375 C18.684999465942383,60.03900146484375 17.51300048828125,59.70600128173828 17.51300048828125,59.70600128173828 C17.51300048828125,59.70600128173828 16.690000534057617,60.26900100708008 16.690000534057617,60.26900100708008 C16.690000534057617,60.26900100708008 15.557000160217285,59.957000732421875 15.557000160217285,59.957000732421875 C15.557000160217285,59.957000732421875 14.607000350952148,60.132999420166016 14.607000350952148,60.132999420166016 C14.607000350952148,60.132999420166016 13.633000373840332,60.224998474121094 13.633000373840332,60.224998474121094 C13.633000373840332,60.224998474121094 13.079000473022461,61.72600173950195 13.079000473022461,61.72600173950195 C13.079000473022461,61.72600173950195 12.015999794006348,61.53099822998047 12.015999794006348,61.53099822998047 C12.015999794006348,61.53099822998047 10.973999977111816,61.361000061035156 10.973999977111816,61.361000061035156 C10.973999977111816,61.361000061035156 9.973999977111816,61.301998138427734 9.973999977111816,61.301998138427734 C9.973999977111816,61.301998138427734 9.211000442504883,62.263999938964844 9.211000442504883,62.263999938964844 C9.211000442504883,62.263999938964844 8.295000076293945,62.60499954223633 8.295000076293945,62.60499954223633 C8.295000076293945,62.60499954223633 7.306000232696533,62.59000015258789 7.306000232696533,62.59000015258789 C7.306000232696533,62.59000015258789 6.210999965667725,61.926998138427734 6.210999965667725,61.926998138427734 C6.210999965667725,61.926998138427734 5.355000019073486,62.606998443603516 5.355000019073486,62.606998443603516 C5.355000019073486,62.606998443603516 4.343999862670898,62.31700134277344 4.343999862670898,62.31700134277344 C4.343999862670898,62.31700134277344 3.509000062942505,63.32400131225586 3.509000062942505,63.32400131225586 C3.509000062942505,63.32400131225586 2.4779999256134033,62.78300094604492 2.4779999256134033,62.78300094604492 C2.4779999256134033,62.78300094604492 1.496000051498413,62.54100036621094 1.496000051498413,62.54100036621094 C1.496000051498413,62.54100036621094 0.5400000214576721,62.51100158691406 0.5400000214576721,62.51100158691406 C0.5400000214576721,62.51100158691406 -0.3400000035762787,63.75400161743164 -0.3400000035762787,63.75400161743164 C-0.3400000035762787,63.75400161743164 -1.3200000524520874,63.45899963378906 -1.3200000524520874,63.45899963378906 C-1.3200000524520874,63.45899963378906 -2.2990000247955322,62.85599899291992 -2.2990000247955322,62.85599899291992 C-2.2990000247955322,62.85599899291992 -3.25,63.012001037597656 -3.25,63.012001037597656 C-3.25,63.012001037597656 -4.203000068664551,62.790000915527344 -4.203000068664551,62.790000915527344 C-4.203000068664551,62.790000915527344 -5.169000148773193,63.391998291015625 -5.169000148773193,63.391998291015625 C-5.169000148773193,63.391998291015625 -6.116000175476074,63.02199935913086 -6.116000175476074,63.02199935913086 C-6.116000175476074,63.02199935913086 -7.079999923706055,63.119998931884766 -7.079999923706055,63.119998931884766 C-7.079999923706055,63.119998931884766 -8.083000183105469,63.66600036621094 -8.083000183105469,63.66600036621094 C-8.083000183105469,63.66600036621094 -8.991999626159668,62.98699951171875 -8.991999626159668,62.98699951171875 C-8.991999626159668,62.98699951171875 -9.913999557495117,62.61600112915039 -9.913999557495117,62.61600112915039 C-9.913999557495117,62.61600112915039 -10.843000411987305,62.362998962402344 -10.843000411987305,62.362998962402344 C-10.843000411987305,62.362998962402344 -12.001999855041504,63.69900131225586 -12.001999855041504,63.69900131225586 C-12.001999855041504,63.69900131225586 -12.741999626159668,62.189998626708984 -12.741999626159668,62.189998626708984 C-12.741999626159668,62.189998626708984 -13.961000442504883,63.54499816894531 -13.961000442504883,63.54499816894531 C-13.961000442504883,63.54499816894531 -14.692000389099121,62.2140007019043 -14.692000389099121,62.2140007019043 C-14.692000389099121,62.2140007019043 -15.588000297546387,61.82400131225586 -15.588000297546387,61.82400131225586 C-15.588000297546387,61.82400131225586 -16.797000885009766,62.777000427246094 -16.797000885009766,62.777000427246094 C-16.797000885009766,62.777000427246094 -17.427000045776367,61.29999923706055 -17.427000045776367,61.29999923706055 C-17.427000045776367,61.29999923706055 -18.510000228881836,61.63999938964844 -18.510000228881836,61.63999938964844 C-18.510000228881836,61.63999938964844 -19.68199920654297,62.20899963378906 -19.68199920654297,62.20899963378906 C-19.68199920654297,62.20899963378906 -20.61400032043457,61.89799880981445 -20.61400032043457,61.89799880981445 C-20.61400032043457,61.89799880981445 -20.950000762939453,59.79800033569336 -20.950000762939453,59.79800033569336 C-20.950000762939453,59.79800033569336 -22.11400032043457,60.25600051879883 -22.11400032043457,60.25600051879883 C-22.11400032043457,60.25600051879883 -23.1299991607666,60.23400115966797 -23.1299991607666,60.23400115966797 C-23.1299991607666,60.23400115966797 -23.64299964904785,58.88800048828125 -23.64299964904785,58.88800048828125 C-23.64299964904785,58.88800048828125 -24.552000045776367,58.60599899291992 -24.552000045776367,58.60599899291992 C-24.552000045776367,58.60599899291992 -26.07200050354004,59.736000061035156 -26.07200050354004,59.736000061035156 C-26.07200050354004,59.736000061035156 -26.409000396728516,58.10499954223633 -26.409000396728516,58.10499954223633 C-26.409000396728516,58.10499954223633 -27.552000045776367,58.2869987487793 -27.552000045776367,58.2869987487793 C-27.552000045776367,58.2869987487793 -28.041000366210938,57.090999603271484 -28.041000366210938,57.090999603271484 C-28.041000366210938,57.090999603271484 -29.575000762939453,57.99300003051758 -29.575000762939453,57.99300003051758 C-29.575000762939453,57.99300003051758 -30.121999740600586,56.94499969482422 -30.121999740600586,56.94499969482422 C-30.121999740600586,56.94499969482422 -31.39299964904785,57.2400016784668 -31.39299964904785,57.2400016784668 C-31.39299964904785,57.2400016784668 -31.559999465942383,55.57899856567383 -31.559999465942383,55.57899856567383 C-31.559999465942383,55.57899856567383 -32.72100067138672,55.64799880981445 -32.72100067138672,55.64799880981445 C-32.72100067138672,55.64799880981445 -33.856998443603516,55.63399887084961 -33.856998443603516,55.63399887084961 C-33.856998443603516,55.63399887084961 -34.034000396728516,54.11899948120117 -34.034000396728516,54.11899948120117 C-34.034000396728516,54.11899948120117 -35.61199951171875,54.73699951171875 -35.61199951171875,54.73699951171875 C-35.61199951171875,54.73699951171875 -36.095001220703125,53.71699905395508 -36.095001220703125,53.71699905395508 C-36.095001220703125,53.71699905395508 -37.03900146484375,53.36000061035156 -37.03900146484375,53.36000061035156 C-37.03900146484375,53.36000061035156 -37.86600112915039,52.83599853515625 -37.86600112915039,52.83599853515625 C-37.86600112915039,52.83599853515625 -38.5260009765625,52.095001220703125 -38.5260009765625,52.095001220703125 C-38.5260009765625,52.095001220703125 -39.25400161743164,51.44300079345703 -39.25400161743164,51.44300079345703 C-39.25400161743164,51.44300079345703 -39.83599853515625,50.624000549316406 -39.83599853515625,50.624000549316406 C-39.83599853515625,50.624000549316406 -39.74100112915039,49.04199981689453 -39.74100112915039,49.04199981689453 C-39.74100112915039,49.04199981689453 -41.486000061035156,49.558998107910156 -41.486000061035156,49.558998107910156 C-41.486000061035156,49.558998107910156 -42.13800048828125,48.83100128173828 -42.13800048828125,48.83100128173828 C-42.13800048828125,48.83100128173828 -41.85900115966797,47.145999908447266 -41.85900115966797,47.145999908447266 C-41.85900115966797,47.145999908447266 -43.720001220703125,47.6619987487793 -43.720001220703125,47.6619987487793 C-43.720001220703125,47.6619987487793 -44.439998626708984,47.000999450683594 -44.439998626708984,47.000999450683594 C-44.439998626708984,47.000999450683594 -44.70000076293945,45.90700149536133 -44.70000076293945,45.90700149536133 C-44.70000076293945,45.90700149536133 -45.104000091552734,44.96900177001953 -45.104000091552734,44.96900177001953 C-45.104000091552734,44.96900177001953 -45.380001068115234,43.933998107910156 -45.380001068115234,43.933998107910156 C-45.380001068115234,43.933998107910156 -46.14099884033203,43.32699966430664 -46.14099884033203,43.32699966430664 C-46.14099884033203,43.32699966430664 -46.36600112915039,42.27799987792969 -46.36600112915039,42.27799987792969 C-46.36600112915039,42.27799987792969 -47.35200119018555,41.84600067138672 -47.35200119018555,41.84600067138672 C-47.35200119018555,41.84600067138672 -48.93199920654297,41.84299850463867 -48.93199920654297,41.84299850463867 C-48.93199920654297,41.84299850463867 -48.143001556396484,40.051998138427734 -48.143001556396484,40.051998138427734 C-48.143001556396484,40.051998138427734 -49.347999572753906,39.74100112915039 -49.347999572753906,39.74100112915039 C-49.347999572753906,39.74100112915039 -50.41400146484375,39.303001403808594 -50.41400146484375,39.303001403808594 C-50.41400146484375,39.303001403808594 -50.1510009765625,37.96500015258789 -50.1510009765625,37.96500015258789 C-50.1510009765625,37.96500015258789 -51.29899978637695,37.560001373291016 -51.29899978637695,37.560001373291016 C-51.29899978637695,37.560001373291016 -51.60200119018555,36.608001708984375 -51.60200119018555,36.608001708984375 C-51.60200119018555,36.608001708984375 -52.659000396728516,36.111000061035156 -52.659000396728516,36.111000061035156 C-52.659000396728516,36.111000061035156 -53.29100036621094,35.34700012207031 -53.29100036621094,35.34700012207031 C-53.29100036621094,35.34700012207031 -52.43199920654297,33.76300048828125 -52.43199920654297,33.76300048828125 C-52.43199920654297,33.76300048828125 -53.35900115966797,33.17300033569336 -53.35900115966797,33.17300033569336 C-53.35900115966797,33.17300033569336 -54.542999267578125,32.69200134277344 -54.542999267578125,32.69200134277344 C-54.542999267578125,32.69200134277344 -53.83300018310547,31.26300048828125 -53.83300018310547,31.26300048828125 C-53.83300018310547,31.26300048828125 -55.61199951171875,31.038000106811523 -55.61199951171875,31.038000106811523 C-55.61199951171875,31.038000106811523 -55.72100067138672,30.01300048828125 -55.72100067138672,30.01300048828125 C-55.72100067138672,30.01300048828125 -55.060001373291016,28.67099952697754 -55.060001373291016,28.67099952697754 C-55.060001373291016,28.67099952697754 -55.340999603271484,27.75200080871582 -55.340999603271484,27.75200080871582 C-55.340999603271484,27.75200080871582 -56.60200119018555,27.219999313354492 -56.60200119018555,27.219999313354492 C-56.60200119018555,27.219999313354492 -57.042999267578125,26.349000930786133 -57.042999267578125,26.349000930786133 C-57.042999267578125,26.349000930786133 -56.09299850463867,24.979999542236328 -56.09299850463867,24.979999542236328 C-56.09299850463867,24.979999542236328 -57.797000885009766,24.554000854492188 -57.797000885009766,24.554000854492188 C-57.797000885009766,24.554000854492188 -56.731998443603516,23.18899917602539 -56.731998443603516,23.18899917602539 C-56.731998443603516,23.18899917602539 -58.356998443603516,22.68899917602539 -58.356998443603516,22.68899917602539 C-58.356998443603516,22.68899917602539 -58.4640007019043,21.70800018310547 -58.4640007019043,21.70800018310547 C-58.4640007019043,21.70800018310547 -58.176998138427734,20.625 -58.176998138427734,20.625 C-58.176998138427734,20.625 -59.448001861572266,19.957000732421875 -59.448001861572266,19.957000732421875 C-59.448001861572266,19.957000732421875 -58.66899871826172,18.766000747680664 -58.66899871826172,18.766000747680664 C-58.66899871826172,18.766000747680664 -58.67599868774414,17.781999588012695 -58.67599868774414,17.781999588012695 C-58.67599868774414,17.781999588012695 -59.268001556396484,16.926000595092773 -59.268001556396484,16.926000595092773 C-59.268001556396484,16.926000595092773 -59.21099853515625,15.932999610900879 -59.21099853515625,15.932999610900879 C-59.21099853515625,15.932999610900879 -60.13999938964844,15.121000289916992 -60.13999938964844,15.121000289916992 C-60.13999938964844,15.121000289916992 -60.172000885009766,14.142000198364258 -60.172000885009766,14.142000198364258 C-60.172000885009766,14.142000198364258 -59.85100173950195,13.114999771118164 -59.85100173950195,13.114999771118164 C-59.85100173950195,13.114999771118164 -60.38800048828125,12.213000297546387 -60.38800048828125,12.213000297546387 C-60.38800048828125,12.213000297546387 -59.20800018310547,11.10200023651123 -59.20800018310547,11.10200023651123 C-59.20800018310547,11.10200023651123 -60.90299987792969,10.317000389099121 -60.90299987792969,10.317000389099121 C-60.90299987792969,10.317000389099121 -59.762001037597656,9.241999626159668 -59.762001037597656,9.241999626159668 C-59.762001037597656,9.241999626159668 -59.51499938964844,8.267000198364258 -59.51499938964844,8.267000198364258 C-59.51499938964844,8.267000198364258 -60.46099853515625,7.367000102996826 -60.46099853515625,7.367000102996826 C-60.46099853515625,7.367000102996826 -61.145999908447266,6.431000232696533 -61.145999908447266,6.431000232696533 C-61.145999908447266,6.431000232696533 -61.30400085449219,5.461999893188477 -61.30400085449219,5.461999893188477 C-61.30400085449219,5.461999893188477 -60.86199951171875,4.482999801635742 -60.86199951171875,4.482999801635742 C-60.86199951171875,4.482999801635742 -60.981998443603516,3.515000104904175 -60.981998443603516,3.515000104904175 C-60.981998443603516,3.515000104904175 -61.19200134277344,2.5409998893737793 -61.19200134277344,2.5409998893737793 C-61.19200134277344,2.5409998893737793 -59.944000244140625,1.6080000400543213 -59.944000244140625,1.6080000400543213 C-59.944000244140625,1.6080000400543213 -59.555999755859375,0.6700000166893005 -59.555999755859375,0.6700000166893005 C-59.555999755859375,0.6700000166893005 -60.28099822998047,-0.32499998807907104 -60.28099822998047,-0.32499998807907104 C-60.28099822998047,-0.32499998807907104 -60.0359992980957,-1.2710000276565552 -60.0359992980957,-1.2710000276565552 C-60.0359992980957,-1.2710000276565552 -60.617000579833984,-2.2860000133514404 -60.617000579833984,-2.2860000133514404 C-60.617000579833984,-2.2860000133514404 -59.8120002746582,-3.174999952316284 -59.8120002746582,-3.174999952316284 C-59.8120002746582,-3.174999952316284 -61.03099822998047,-4.284999847412109 -61.03099822998047,-4.284999847412109 C-61.03099822998047,-4.284999847412109 -59.736000061035156,-5.0980000495910645 -59.736000061035156,-5.0980000495910645 C-59.736000061035156,-5.0980000495910645 -59.047000885009766,-5.9670000076293945 -59.047000885009766,-5.9670000076293945 C-59.047000885009766,-5.9670000076293945 -59.53900146484375,-7.01200008392334 -59.53900146484375,-7.01200008392334 C-59.53900146484375,-7.01200008392334 -60.28300094604492,-8.121000289916992 -60.28300094604492,-8.121000289916992 C-60.28300094604492,-8.121000289916992 -58.994998931884766,-8.866999626159668 -58.994998931884766,-8.866999626159668 C-58.994998931884766,-8.866999626159668 -58.25,-9.692000389099121 -58.25,-9.692000389099121 C-58.25,-9.692000389099121 -59.292999267578125,-10.897000312805176 -59.292999267578125,-10.897000312805176 C-59.292999267578125,-10.897000312805176 -57.965999603271484,-11.57800006866455 -57.965999603271484,-11.57800006866455 C-57.965999603271484,-11.57800006866455 -58.52299880981445,-12.699999809265137 -58.52299880981445,-12.699999809265137 C-58.52299880981445,-12.699999809265137 -57.70800018310547,-13.479999542236328 -57.70800018310547,-13.479999542236328 C-57.70800018310547,-13.479999542236328 -58.71099853515625,-14.755000114440918 -58.71099853515625,-14.755000114440918 C-58.71099853515625,-14.755000114440918 -58.323001861572266,-15.656000137329102 -58.323001861572266,-15.656000137329102 C-58.323001861572266,-15.656000137329102 -57.7760009765625,-16.503000259399414 -57.7760009765625,-16.503000259399414 C-57.7760009765625,-16.503000259399414 -57.3849983215332,-17.395000457763672 -57.3849983215332,-17.395000457763672 C-57.3849983215332,-17.395000457763672 -56.49399948120117,-18.11199951171875 -56.49399948120117,-18.11199951171875 C-56.49399948120117,-18.11199951171875 -55.895999908447266,-18.915000915527344 -55.895999908447266,-18.915000915527344 C-55.895999908447266,-18.915000915527344 -55.64099884033203,-19.839000701904297 -55.64099884033203,-19.839000701904297 C-55.64099884033203,-19.839000701904297 -56.060001373291016,-21.027999877929688 -56.060001373291016,-21.027999877929688 C-56.060001373291016,-21.027999877929688 -54.654998779296875,-21.50200080871582 -54.654998779296875,-21.50200080871582 C-54.654998779296875,-21.50200080871582 -56.018001556396484,-23.110000610351562 -56.018001556396484,-23.110000610351562 C-56.018001556396484,-23.110000610351562 -54.27799987792969,-23.415000915527344 -54.27799987792969,-23.415000915527344 C-54.27799987792969,-23.415000915527344 -53.965999603271484,-24.325000762939453 -53.965999603271484,-24.325000762939453 C-53.965999603271484,-24.325000762939453 -53.76300048828125,-25.29199981689453 -53.76300048828125,-25.29199981689453 C-53.76300048828125,-25.29199981689453 -53.755001068115234,-26.358999252319336 -53.755001068115234,-26.358999252319336 C-53.755001068115234,-26.358999252319336 -53.50699996948242,-27.31800079345703 -53.50699996948242,-27.31800079345703 C-53.50699996948242,-27.31800079345703 -53.18199920654297,-28.243999481201172 -53.18199920654297,-28.243999481201172 C-53.18199920654297,-28.243999481201172 -52.00400161743164,-28.71299934387207 -52.00400161743164,-28.71299934387207 C-52.00400161743164,-28.71299934387207 -51.020999908447266,-29.264999389648438 -51.020999908447266,-29.264999389648438 C-51.020999908447266,-29.264999389648438 -50.83300018310547,-30.256000518798828 -50.83300018310547,-30.256000518798828 C-50.83300018310547,-30.256000518798828 -51.0989990234375,-31.530000686645508 -51.0989990234375,-31.530000686645508 C-51.0989990234375,-31.530000686645508 -51.10599899291992,-32.67100143432617 -51.10599899291992,-32.67100143432617 C-51.10599899291992,-32.67100143432617 -50.08100128173828,-33.18000030517578 -50.08100128173828,-33.18000030517578 C-50.08100128173828,-33.18000030517578 -50.10900115966797,-34.356998443603516 -50.10900115966797,-34.356998443603516 C-50.10900115966797,-34.356998443603516 -49.57600021362305,-35.176998138427734 -49.57600021362305,-35.176998138427734 C-49.57600021362305,-35.176998138427734 -48.70800018310547,-35.76599884033203 -48.70800018310547,-35.76599884033203 C-48.70800018310547,-35.76599884033203 -47.17900085449219,-35.86800003051758 -47.17900085449219,-35.86800003051758 C-47.17900085449219,-35.86800003051758 -47.28799819946289,-37.137001037597656 -47.28799819946289,-37.137001037597656 C-47.28799819946289,-37.137001037597656 -46.21099853515625,-37.53499984741211 -46.21099853515625,-37.53499984741211 C-46.21099853515625,-37.53499984741211 -45.5989990234375,-38.27399826049805 -45.5989990234375,-38.27399826049805 C-45.5989990234375,-38.27399826049805 -44.683998107910156,-38.76900100708008 -44.683998107910156,-38.76900100708008 C-44.683998107910156,-38.76900100708008 -44.12200164794922,-39.54100036621094 -44.12200164794922,-39.54100036621094 C-44.12200164794922,-39.54100036621094 -43.584999084472656,-40.33599853515625 -43.584999084472656,-40.33599853515625 C-43.584999084472656,-40.33599853515625 -43.78099822998047,-41.77799987792969 -43.78099822998047,-41.77799987792969 C-43.78099822998047,-41.77799987792969 -42.30099868774414,-41.75 -42.30099868774414,-41.75 C-42.30099868774414,-41.75 -42.465999603271484,-43.207000732421875 -42.465999603271484,-43.207000732421875 C-42.465999603271484,-43.207000732421875 -41.27299880981445,-43.40700149536133 -41.27299880981445,-43.40700149536133 C-41.27299880981445,-43.40700149536133 -40.55400085449219,-44.04600143432617 -40.55400085449219,-44.04600143432617 C-40.55400085449219,-44.04600143432617 -40.54399871826172,-45.40299987792969 -40.54399871826172,-45.40299987792969 C-40.54399871826172,-45.40299987792969 -40.073001861572266,-46.314998626708984 -40.073001861572266,-46.314998626708984 C-40.073001861572266,-46.314998626708984 -38.6349983215332,-46.20500183105469 -38.6349983215332,-46.20500183105469 C-38.6349983215332,-46.20500183105469 -38.60300064086914,-47.60200119018555 -38.60300064086914,-47.60200119018555 C-38.60300064086914,-47.60200119018555 -36.845001220703125,-47.08100128173828 -36.845001220703125,-47.08100128173828 C-36.845001220703125,-47.08100128173828 -36.95600128173828,-48.67900085449219 -36.95600128173828,-48.67900085449219 C-36.95600128173828,-48.67900085449219 -36.297000885009766,-49.40800094604492 -36.297000885009766,-49.40800094604492 C-36.297000885009766,-49.40800094604492 -34.715999603271484,-48.99800109863281 -34.715999603271484,-48.99800109863281 C-34.715999603271484,-48.99800109863281 -34.81399917602539,-50.67599868774414 -34.81399917602539,-50.67599868774414 C-34.81399917602539,-50.67599868774414 -34.029998779296875,-51.25600051879883 -34.029998779296875,-51.25600051879883 C-34.029998779296875,-51.25600051879883 -32.5,-50.82099914550781 -32.5,-50.82099914550781 C-32.5,-50.82099914550781 -32.433998107910156,-52.37900161743164 -32.433998107910156,-52.37900161743164 C-32.433998107910156,-52.37900161743164 -31.052000045776367,-52.09199905395508 -31.052000045776367,-52.09199905395508 C-31.052000045776367,-52.09199905395508 -30.972999572753906,-53.70100021362305 -30.972999572753906,-53.70100021362305 C-30.972999572753906,-53.70100021362305 -30.052000045776367,-54.07899856567383 -30.052000045776367,-54.07899856567383 C-30.052000045776367,-54.07899856567383 -28.43000030517578,-53.32899856567383 -28.43000030517578,-53.32899856567383 C-28.43000030517578,-53.32899856567383 -28.035999298095703,-54.518001556396484 -28.035999298095703,-54.518001556396484 C-28.035999298095703,-54.518001556396484 -27.36400032043457,-55.28099822998047 -27.36400032043457,-55.28099822998047 C-27.36400032043457,-55.28099822998047 -26.176000595092773,-55.1510009765625 -26.176000595092773,-55.1510009765625 C-26.176000595092773,-55.1510009765625 -25.83099937438965,-56.52000045776367 -25.83099937438965,-56.52000045776367 C-25.83099937438965,-56.52000045776367 -25.048999786376953,-57.12900161743164 -25.048999786376953,-57.12900161743164 C-25.048999786376953,-57.12900161743164 -23.535999298095703,-56.30500030517578 -23.535999298095703,-56.30500030517578 C-23.535999298095703,-56.30500030517578 -22.562000274658203,-56.4900016784668 -22.562000274658203,-56.4900016784668 C-22.562000274658203,-56.4900016784668 -21.775999069213867,-57.05500030517578 -21.775999069213867,-57.05500030517578 C-21.775999069213867,-57.05500030517578 -21.051000595092773,-57.76599884033203 -21.051000595092773,-57.76599884033203 C-21.051000595092773,-57.76599884033203 -20.410999298095703,-58.70600128173828 -20.410999298095703,-58.70600128173828 C-20.410999298095703,-58.70600128173828 -19.052000045776367,-57.95600128173828 -19.052000045776367,-57.95600128173828 C-19.052000045776367,-57.95600128173828 -18.58300018310547,-59.34700012207031 -18.58300018310547,-59.34700012207031 C-18.58300018310547,-59.34700012207031 -17.87700080871582,-60.21099853515625 -17.87700080871582,-60.21099853515625 C-17.87700080871582,-60.21099853515625 -16.559999465942383,-59.43600082397461 -16.559999465942383,-59.43600082397461 C-16.559999465942383,-59.43600082397461 -16.072999954223633,-60.959999084472656 -16.072999954223633,-60.959999084472656 C-16.072999954223633,-60.959999084472656 -14.687000274658203,-59.862998962402344 -14.687000274658203,-59.862998962402344 C-14.687000274658203,-59.862998962402344 -13.875,-60.4640007019043 -13.875,-60.4640007019043 C-13.875,-60.4640007019043 -13.055999755859375,-61.07899856567383 -13.055999755859375,-61.07899856567383 C-13.055999755859375,-61.07899856567383 -12.02299976348877,-60.95899963378906 -12.02299976348877,-60.95899963378906 C-12.02299976348877,-60.95899963378906 -11.229000091552734,-61.7140007019043 -11.229000091552734,-61.7140007019043 C-11.229000091552734,-61.7140007019043 -10.069999694824219,-61.03099822998047 -10.069999694824219,-61.03099822998047 C-10.069999694824219,-61.03099822998047 -9.505000114440918,-62.856998443603516 -9.505000114440918,-62.856998443603516 C-9.505000114440918,-62.856998443603516 -8.366999626159668,-62.180999755859375 -8.366999626159668,-62.180999755859375 C-8.366999626159668,-62.180999755859375 -7.578000068664551,-63.18199920654297 -7.578000068664551,-63.18199920654297 C-7.578000068664551,-63.18199920654297 -6.521999835968018,-62.80799865722656 -6.521999835968018,-62.80799865722656 C-6.521999835968018,-62.80799865722656 -5.646999835968018,-63.46799850463867 -5.646999835968018,-63.46799850463867 C-5.646999835968018,-63.46799850463867 -4.578000068664551,-62.875999450683594 -4.578000068664551,-62.875999450683594 C-4.578000068664551,-62.875999450683594 -3.703000068664551,-63.65299987792969 -3.703000068664551,-63.65299987792969 C-3.703000068664551,-63.65299987792969 -2.697999954223633,-63.404998779296875 -2.697999954223633,-63.404998779296875 C-2.697999954223633,-63.404998779296875 -1.6770000457763672,-62.88199996948242 -1.6770000457763672,-62.88199996948242 C-1.6770000457763672,-62.88199996948242 -0.6850000023841858,-62.45100021362305 -0.6850000023841858,-62.45100021362305 C-0.6850000023841858,-62.45100021362305 0.24300000071525574,-62.840999603271484 0.24300000071525574,-62.840999603271484 C0.24300000071525574,-62.840999603271484 1.1640000343322754,-63.69300079345703 1.1640000343322754,-63.69300079345703 C1.1640000343322754,-63.69300079345703 2.1389999389648438,-63.382999420166016 2.1389999389648438,-63.382999420166016 C2.1389999389648438,-63.382999420166016 3.1019999980926514,-63.558998107910156 3.1019999980926514,-63.558998107910156 C3.1019999980926514,-63.558998107910156 4.067999839782715,-63.75400161743164 4.067999839782715,-63.75400161743164 C4.067999839782715,-63.75400161743164 5.005000114440918,-62.58399963378906 5.005000114440918,-62.58399963378906 C5.005000114440918,-62.58399963378906 5.984000205993652,-63.24300003051758 5.984000205993652,-63.24300003051758 C5.984000205993652,-63.24300003051758 6.925000190734863,-62.89699935913086 6.925000190734863,-62.89699935913086 C6.925000190734863,-62.89699935913086 7.929999828338623,-63.49599838256836 7.929999828338623,-63.49599838256836 C7.929999828338623,-63.49599838256836 8.805000305175781,-62.47200012207031 8.805000305175781,-62.47200012207031 C8.805000305175781,-62.47200012207031 9.892999649047852,-63.64400100708008 9.892999649047852,-63.64400100708008 C9.892999649047852,-63.64400100708008 10.664999961853027,-62.03799819946289 10.664999961853027,-62.03799819946289 C10.664999961853027,-62.03799819946289 11.765999794006348,-63.00699996948242 11.765999794006348,-63.00699996948242 C11.765999794006348,-63.00699996948242 12.791999816894531,-63.28900146484375 12.791999816894531,-63.28900146484375 C12.791999816894531,-63.28900146484375 13.642000198364258,-62.5260009765625 13.642000198364258,-62.5260009765625 C13.642000198364258,-62.5260009765625 14.651000022888184,-62.65700149536133 14.651000022888184,-62.65700149536133 C14.651000022888184,-62.65700149536133 15.461999893188477,-61.84000015258789 15.461999893188477,-61.84000015258789 C15.461999893188477,-61.84000015258789 16.500999450683594,-62.069000244140625 16.500999450683594,-62.069000244140625 C16.500999450683594,-62.069000244140625 17.420000076293945,-61.768001556396484 17.420000076293945,-61.768001556396484 C17.420000076293945,-61.768001556396484 18.3700008392334,-61.58700180053711 18.3700008392334,-61.58700180053711 C18.3700008392334,-61.58700180053711 19.187999725341797,-60.94499969482422 19.187999725341797,-60.94499969482422 C19.187999725341797,-60.94499969482422 20.388999938964844,-61.57400131225586 20.388999938964844,-61.57400131225586 C20.388999938964844,-61.57400131225586 21.354000091552734,-61.38199996948242 21.354000091552734,-61.38199996948242 C21.354000091552734,-61.38199996948242 21.80299949645996,-59.7140007019043 21.80299949645996,-59.7140007019043 C21.80299949645996,-59.7140007019043 22.805999755859375,-59.68000030517578 22.805999755859375,-59.68000030517578 C22.805999755859375,-59.68000030517578 23.69300079345703,-59.31800079345703 23.69300079345703,-59.31800079345703 C23.69300079345703,-59.31800079345703 24.766000747680664,-59.40599822998047 24.766000747680664,-59.40599822998047 C24.766000747680664,-59.40599822998047 25.309999465942383,-58.22800064086914 25.309999465942383,-58.22800064086914 C25.309999465942383,-58.22800064086914 26.219999313354492,-57.93299865722656 26.219999313354492,-57.93299865722656 C26.219999313354492,-57.93299865722656 27.22100067138672,-57.81999969482422 27.22100067138672,-57.81999969482422 C27.22100067138672,-57.81999969482422 28.535999298095703,-58.31800079345703 28.535999298095703,-58.31800079345703 C28.535999298095703,-58.31800079345703 28.805999755859375,-56.70800018310547 28.805999755859375,-56.70800018310547 C28.805999755859375,-56.70800018310547 30.211000442504883,-57.308998107910156 30.211000442504883,-57.308998107910156 C30.211000442504883,-57.308998107910156 30.775999069213867,-56.323001861572266 30.775999069213867,-56.323001861572266 C30.775999069213867,-56.323001861572266 31.784000396728516,-56.13800048828125 31.784000396728516,-56.13800048828125 C31.784000396728516,-56.13800048828125 32.733001708984375,-55.834999084472656 32.733001708984375,-55.834999084472656 C32.733001708984375,-55.834999084472656 33.65599822998047,-55.4739990234375 33.65599822998047,-55.4739990234375 C33.65599822998047,-55.4739990234375 34.176998138427734,-54.483001708984375 34.176998138427734,-54.483001708984375 C34.176998138427734,-54.483001708984375 34.72999954223633,-53.577999114990234 34.72999954223633,-53.577999114990234 C34.72999954223633,-53.577999114990234 36.2400016784668,-54.055999755859375 36.2400016784668,-54.055999755859375 C36.2400016784668,-54.055999755859375 37.027000427246094,-53.47100067138672 37.027000427246094,-53.47100067138672 C37.027000427246094,-53.47100067138672 36.862998962402344,-51.63100051879883 36.862998962402344,-51.63100051879883 C36.862998962402344,-51.63100051879883 38.0260009765625,-51.56800079345703 38.0260009765625,-51.56800079345703 C38.0260009765625,-51.56800079345703 38.185001373291016,-50.236000061035156 38.185001373291016,-50.236000061035156 C38.185001373291016,-50.236000061035156 39.29499816894531,-50.082000732421875 39.29499816894531,-50.082000732421875 C39.29499816894531,-50.082000732421875 40.5629997253418,-50.07699966430664 40.5629997253418,-50.07699966430664 C40.5629997253418,-50.07699966430664 40.7140007019043,-48.79199981689453 40.7140007019043,-48.79199981689453 C40.7140007019043,-48.79199981689453 41.106998443603516,-47.8120002746582 41.106998443603516,-47.8120002746582 C41.106998443603516,-47.8120002746582 42.10200119018555,-47.4739990234375 42.10200119018555,-47.4739990234375 C42.10200119018555,-47.4739990234375 43.29199981689453,-47.308998107910156 43.29199981689453,-47.308998107910156 C43.29199981689453,-47.308998107910156 44.375,-47.005001068115234 44.375,-47.005001068115234 C44.375,-47.005001068115234 43.81800079345703,-45.14899826049805 43.81800079345703,-45.14899826049805 C43.81800079345703,-45.14899826049805 44.60200119018555,-44.57500076293945 44.60200119018555,-44.57500076293945 C44.60200119018555,-44.57500076293945 45.30500030517578,-43.922000885009766 45.30500030517578,-43.922000885009766 C45.30500030517578,-43.922000885009766 46.61399841308594,-43.77399826049805 46.61399841308594,-43.77399826049805 C46.61399841308594,-43.77399826049805 46.354000091552734,-42.31399917602539 46.354000091552734,-42.31399917602539 C46.354000091552734,-42.31399917602539 47.3650016784668,-41.89699935913086 47.3650016784668,-41.89699935913086 C47.3650016784668,-41.89699935913086 48.7859992980957,-41.768001556396484 48.7859992980957,-41.768001556396484 C48.7859992980957,-41.768001556396484 48.03900146484375,-40.0099983215332 48.03900146484375,-40.0099983215332 C48.03900146484375,-40.0099983215332 49.018001556396484,-39.5369987487793 49.018001556396484,-39.5369987487793 C49.018001556396484,-39.5369987487793 49.5,-38.70500183105469 49.5,-38.70500183105469 C49.5,-38.70500183105469 50.59199905395508,-38.277000427246094 50.59199905395508,-38.277000427246094 C50.59199905395508,-38.277000427246094 51.4379997253418,-37.66600036621094 51.4379997253418,-37.66600036621094 C51.4379997253418,-37.66600036621094 51.02799987792969,-36.27299880981445 51.02799987792969,-36.27299880981445 C51.02799987792969,-36.27299880981445 51.439998626708984,-35.404998779296875 51.439998626708984,-35.404998779296875 C51.439998626708984,-35.404998779296875 53.10499954223633,-35.25199890136719 53.10499954223633,-35.25199890136719 C53.10499954223633,-35.25199890136719 53.35499954223633,-34.27399826049805 53.35499954223633,-34.27399826049805 C53.35499954223633,-34.27399826049805 53.68000030517578,-33.345001220703125 53.68000030517578,-33.345001220703125 C53.68000030517578,-33.345001220703125 53.93199920654297,-32.38399887084961 53.93199920654297,-32.38399887084961 C53.93199920654297,-32.38399887084961 53.74700164794922,-31.218000411987305 53.74700164794922,-31.218000411987305 C53.74700164794922,-31.218000411987305 55.301998138427734,-30.88800048828125 55.301998138427734,-30.88800048828125 C55.301998138427734,-30.88800048828125 54.87200164794922,-29.625999450683594 54.87200164794922,-29.625999450683594 C54.87200164794922,-29.625999450683594 55.62300109863281,-28.900999069213867 55.62300109863281,-28.900999069213867 C55.62300109863281,-28.900999069213867 55.90399932861328,-27.9689998626709 55.90399932861328,-27.9689998626709 C55.90399932861328,-27.9689998626709 55.39799880981445,-26.732999801635742 55.39799880981445,-26.732999801635742 C55.39799880981445,-26.732999801635742 56.689998626708984,-26.198999404907227 56.689998626708984,-26.198999404907227 C56.689998626708984,-26.198999404907227 55.8849983215332,-24.885000228881836 55.8849983215332,-24.885000228881836 C55.8849983215332,-24.885000228881836 56.90299987792969,-24.226999282836914 56.90299987792969,-24.226999282836914 C56.90299987792969,-24.226999282836914 57.29199981689453,-23.343000411987305 57.29199981689453,-23.343000411987305 C57.29199981689453,-23.343000411987305 58.39400100708008,-22.672000885009766 58.39400100708008,-22.672000885009766 C58.39400100708008,-22.672000885009766 58.1510009765625,-21.586999893188477 58.1510009765625,-21.586999893188477 C58.1510009765625,-21.586999893188477 57.685001373291016,-20.45800018310547 57.685001373291016,-20.45800018310547 C57.685001373291016,-20.45800018310547 59.39799880981445,-19.909000396728516 59.39799880981445,-19.909000396728516 C59.39799880981445,-19.909000396728516 58.75299835205078,-18.74799919128418 58.75299835205078,-18.74799919128418 C58.75299835205078,-18.74799919128418 58.93199920654297,-17.798999786376953 58.93199920654297,-17.798999786376953 C58.93199920654297,-17.798999786376953 58.36399841308594,-16.695999145507812 58.36399841308594,-16.695999145507812 C58.36399841308594,-16.695999145507812 58.54199981689453,-15.760000228881836 58.54199981689453,-15.760000228881836 C58.54199981689453,-15.760000228881836 59.79399871826172,-15.012999534606934 59.79399871826172,-15.012999534606934 C59.79399871826172,-15.012999534606934 60.59400177001953,-14.15999984741211 60.59400177001953,-14.15999984741211 C60.59400177001953,-14.15999984741211 60.215999603271484,-13.116000175476074 60.215999603271484,-13.116000175476074 C60.215999603271484,-13.116000175476074 60.66699981689453,-12.196000099182129 60.66699981689453,-12.196000099182129 C60.66699981689453,-12.196000099182129 59.1619987487793,-11.039999961853027 59.1619987487793,-11.039999961853027 C59.1619987487793,-11.039999961853027 59.518001556396484,-10.119999885559082 59.518001556396484,-10.119999885559082 C59.518001556396484,-10.119999885559082 60.71099853515625,-9.262999534606934 60.71099853515625,-9.262999534606934 C60.71099853515625,-9.262999534606934 60.16400146484375,-8.25 60.16400146484375,-8.25 C60.16400146484375,-8.25 60.68000030517578,-7.315000057220459 60.68000030517578,-7.315000057220459 C60.68000030517578,-7.315000057220459 59.814998626708984,-6.309000015258789 59.814998626708984,-6.309000015258789 C59.814998626708984,-6.309000015258789 60.02899932861328,-5.360000133514404 60.02899932861328,-5.360000133514404 C60.02899932861328,-5.360000133514404 61.05400085449219,-4.414000034332275 61.05400085449219,-4.414000034332275 C61.05400085449219,-4.414000034332275 61.20800018310547,-3.440999984741211 61.20800018310547,-3.440999984741211 C61.20800018310547,-3.440999984741211 60.77299880981445,-2.4739999771118164 60.77299880981445,-2.4739999771118164 C60.77299880981445,-2.4739999771118164 61.30400085449219,-1.4880000352859497 61.30400085449219,-1.4880000352859497 C61.30400085449219,-1.4880000352859497 60.939998626708984,-0.5270000100135803 60.939998626708984,-0.5270000100135803 C60.939998626708984,-0.5270000100135803 59.551998138427734,0.3619999885559082 59.551998138427734,0.3619999885559082 C59.551998138427734,0.3619999885559082 59.43000030517578,1.309000015258789 59.43000030517578,1.309000015258789 C59.43000030517578,1.309000015258789 61.007999420166016,2.4070000648498535 61.007999420166016,2.4070000648498535 C61.007999420166016,2.4070000648498535 59.5099983215332,3.2309999465942383 59.5099983215332,3.2309999465942383 C59.5099983215332,3.2309999465942383 59.077999114990234,4.142000198364258 59.077999114990234,4.142000198364258 C59.077999114990234,4.142000198364258 59.67399978637695,5.182000160217285 59.67399978637695,5.182000160217285 C59.67399978637695,5.182000160217285 59.53099822998047,6.132999897003174 59.53099822998047,6.132999897003174 C59.53099822998047,6.132999897003174 59.435001373291016,7.091000080108643 59.435001373291016,7.091000080108643 C59.435001373291016,7.091000080108643 60.143001556396484,8.194000244140625 60.143001556396484,8.194000244140625 C60.143001556396484,8.194000244140625 59.854000091552734,9.131999969482422 59.854000091552734,9.131999969482422 C59.854000091552734,9.131999969482422 58.606998443603516,9.868000030517578 58.606998443603516,9.868000030517578 C58.606998443603516,9.868000030517578 58.22100067138672,10.763999938964844 58.22100067138672,10.763999938964844 C58.22100067138672,10.763999938964844 57.89799880981445,11.668999671936035 57.89799880981445,11.668999671936035 C57.89799880981445,11.668999671936035 58.01499938964844,12.680000305175781 58.01499938964844,12.680000305175781 C58.01499938964844,12.680000305175781 57.5620002746582,13.552000045776367 57.5620002746582,13.552000045776367 C57.5620002746582,13.552000045776367 58.393001556396484,14.779000282287598 58.393001556396484,14.779000282287598 C58.393001556396484,14.779000282287598 57.2400016784668,15.449000358581543 57.2400016784668,15.449000358581543 C57.2400016784668,15.449000358581543 56.54399871826172,16.236000061035156 56.54399871826172,16.236000061035156 C56.54399871826172,16.236000061035156 57.02399826049805,17.39699935913086 57.02399826049805,17.39699935913086 C57.02399826049805,17.39699935913086 57.04399871826172,18.42300033569336 57.04399871826172,18.42300033569336 C57.04399871826172,18.42300033569336 57.04399871826172,19.451000213623047 57.04399871826172,19.451000213623047 C57.04399871826172,19.451000213623047 55.7400016784668,20.00200080871582 55.7400016784668,20.00200080871582 C55.7400016784668,20.00200080871582 56.13800048828125,21.187999725341797 56.13800048828125,21.187999725341797 C56.13800048828125,21.187999725341797 55.48500061035156,21.97100067138672 55.48500061035156,21.97100067138672 C55.48500061035156,21.97100067138672 55.41899871826172,22.989999771118164 55.41899871826172,22.989999771118164 C55.41899871826172,22.989999771118164 54.17900085449219,23.506999969482422 54.17900085449219,23.506999969482422 C54.17900085449219,23.506999969482422 53.89799880981445,24.43199920654297 53.89799880981445,24.43199920654297 C53.89799880981445,24.43199920654297 53.3849983215332,25.2549991607666 53.3849983215332,25.2549991607666z"></path></g><g opacity="1" transform="matrix(1,0,0,1,223.39700317382812,392.7200012207031)"><path fill="#FF8A00" fill-opacity="1" d=" M223.14700317382812,-24.076000213623047 C221.7760009765625,-13.175000190734863 218.54200744628906,11.425999641418457 216.4770050048828,24.559999465942383 C213.38299560546875,44.24800109863281 196.406005859375,58.742000579833984 176.4770050048828,58.742000579833984 C176.4770050048828,58.742000579833984 -182.93800354003906,58.742000579833984 -182.93800354003906,58.742000579833984 C-205.14500427246094,58.742000579833984 -223.14599609375,40.74100112915039 -223.14599609375,18.534000396728516 C-223.14599609375,18.534000396728516 -223.14599609375,-20.097999572753906 -223.14599609375,-20.097999572753906 C-223.14599609375,-20.097999572753906 -168.1510009765625,-58.742000579833984 -72.55799865722656,-17.38599967956543 C5.111999988555908,16.215999603271484 56.375,-7.4710001945495605 72.86799621582031,-17.53499984741211 C82.67500305175781,-23.51799964904785 93.0260009765625,-28.570999145507812 103.87999725341797,-32.33599853515625 C132.71200561523438,-42.33700180053711 181.302001953125,-51.81399917602539 223.14700317382812,-24.076000213623047z"></path></g><g opacity="1" transform="matrix(1,0,0,1,225.968994140625,206.89700317382812)"><path fill="#FF8A00" fill-opacity="1" d=" M225.5800018310547,97.96399688720703 C225.53500366210938,86.7760009765625 225.718994140625,47.202999114990234 221.98399353027344,25.91699981689453 C220.68299865722656,18.503999710083008 216.79800415039062,11.793999671936035 211.04200744628906,6.946000099182129 C211.04200744628906,6.946000099182129 44.51599884033203,-123.16799926757812 44.51599884033203,-123.16799926757812 C33.70199966430664,-132.2779998779297 18.208999633789062,-133.2469940185547 6.34499979019165,-125.55500030517578 C-36.47200012207031,-97.79499816894531 -138.4149932861328,-32.62900161743164 -200.42599487304688,-0.6489999890327454 C-215.94500732421875,7.354000091552734 -225.718994140625,23.322999954223633 -225.718994140625,40.784000396728516 C-225.718994140625,40.784000396728516 -225.718994140625,115.61100006103516 -225.718994140625,115.61100006103516 C-225.718994140625,115.61100006103516 -160.8350067138672,42.66299819946289 -43.797000885009766,108.39700317382812 C-43.797000885009766,108.39700317382812 6.705999851226807,133.2469940185547 45.986000061035156,107.59500122070312 C45.986000061035156,107.59500122070312 147.0489959716797,50.65599822998047 225.5800018310547,97.96399688720703z"></path></g><g opacity="1" transform="matrix(1,0,0,1,227.51499938964844,153.23199462890625)"><path fill="#FDBC43" fill-opacity="1" d=" M220.43699645996094,79.58200073242188 C219.13600158691406,72.16999816894531 215.2530059814453,65.45999908447266 209.4969940185547,60.611000061035156 C209.4969940185547,60.611000061035156 42.97100067138672,-69.50299835205078 42.97100067138672,-69.50299835205078 C32.15700149536133,-78.61299896240234 16.66200065612793,-79.58200073242188 4.796999931335449,-71.88899993896484 C-38.01900100708008,-44.130001068115234 -139.96099853515625,21.035999298095703 -201.9720001220703,53.01599884033203 C-209.73199462890625,57.018001556396484 -216.05499267578125,63.01100158691406 -220.43800354003906,70.18599700927734 C-220.43800354003906,70.18599700927734 220.43699645996094,79.58200073242188 220.43699645996094,79.58200073242188z"></path></g><g opacity="1" transform="matrix(1,0,0,1,345.61700439453125,127.83699798583984)"><path fill="#9777C9" fill-opacity="1" d=" M-88.9800033569336,-34.244998931884766 C-88.9800033569336,-34.244998931884766 -125.97100067138672,-85.16899871826172 -85.06099700927734,-118.3479995727539 C-77.32599639892578,-124.62200164794922 -67.32099914550781,-127.58599853515625 -57.481998443603516,-126.04100036621094 C-46.0989990234375,-124.25299835205078 -33.757999420166016,-116.53700256347656 -35.58599853515625,-90.94100189208984 C-35.58599853515625,-90.94100189208984 -36.6870002746582,-71.6760025024414 -9.71500015258789,-76.62999725341797 C17.256999969482422,-81.58399963378906 78.90699768066406,-77.93900299072266 81.10900115966797,-9.029000282287598 C81.10900115966797,-9.029000282287598 76.45800018310547,18.974000930786133 96.697998046875,33.233001708984375 C99.49299621582031,35.20199966430664 102.1510009765625,37.36800003051758 104.45600128173828,39.89400100708008 C112.12300109863281,48.29499816894531 125.97100067138672,72.10700225830078 111.93399810791016,95.11100006103516 C92.11799621582031,127.58699798583984 37.57600021362305,118.8030014038086 22.395999908447266,88.3759994506836 C10.861000061035156,65.25800323486328 6.822999954223633,41.220001220703125 -6.4120001792907715,4.836999893188477 C-21.410999298095703,-36.39400100708008 -76.31999969482422,-17.180999755859375 -76.31999969482422,-17.180999755859375 C-76.31999969482422,-17.180999755859375 -88.9800033569336,-34.244998931884766 -88.9800033569336,-34.244998931884766z"></path></g><g opacity="1" transform="matrix(1,0,0,1,241.49600219726562,118.80799865722656)"><path fill="#FF3008" fill-opacity="1" d=" M53.91699981689453,25.434999465942383 C38.76100158691406,57.5629997253418 2.3340001106262207,72.22100067138672 -27.44300079345703,58.17300033569336 C-57.220001220703125,44.125999450683594 -69.0739974975586,6.692999839782715 -53.91699981689453,-25.434999465942383 C-38.76100158691406,-57.56399917602539 -2.3350000381469727,-72.22100067138672 27.44300079345703,-58.17399978637695 C57.220001220703125,-44.125999450683594 69.0739974975586,-6.692999839782715 53.91699981689453,25.434999465942383z"></path></g></g></g></svg>