<svg xmlns:xlink="http://www.w3.org/1999/xlink" xmlns="http://www.w3.org/2000/svg" viewBox="0 0 760 760" width="760" height="760" preserveAspectRatio="xMidYMid meet" style="width: 100%; height: 100%; transform: translate3d(0px, 0px, 0px);"><defs><clipPath id="__lottie_element_164"><rect width="760" height="760" x="0" y="0"></rect></clipPath></defs><g clip-path="url(#__lottie_element_164)"><g transform="matrix(1.1200000047683716,0,0,1.1200000047683716,-45.600006103515625,-5.600006103515625)" opacity="1" style="display: block;"><g opacity="1" transform="matrix(1,0,0,1,379.3999938964844,385.34698486328125)"><path fill="#FF0000" fill-opacity="1" d=" M-218.83700561523438,-59.388999938964844 C-221.25999450683594,-13.095999717712402 -204.92100524902344,111.4020004272461 -96.03199768066406,148.32899475097656 C-23.847000122070312,172.8090057373047 105.53800201416016,166.67100524902344 167.71600341796875,105.35700225830078 C219.19900512695312,54.5890007019043 219.13900756835938,-32.23899841308594 220.19900512695312,-64.93800354003906 C221.25900268554688,-97.63700103759766 208.52200317382812,-172.8090057373047 18.738000869750977,-172.42100524902344 C-193.88099670410156,-171.98699951171875 -216.06500244140625,-112.35199737548828 -218.83700561523438,-59.388999938964844z"></path></g><g opacity="1" transform="matrix(1,0,0,1,379.82501220703125,329.1510009765625)"><path fill="#FFB809" fill-opacity="1" d=" M-219.26100158691406,-0.9639999866485596 C-218.11500549316406,31.485000610351562 -134.4510040283203,70.8010025024414 0.4269999861717224,72.91300201416016 C135.30499267578125,75.0250015258789 221.40699768066406,30.606000900268555 219.77499389648438,-6.35099983215332 C218.1439971923828,-43.30699920654297 132.5850067138672,-75.0250015258789 9.67300033569336,-74.91300201416016 C-52.3489990234375,-74.85700225830078 -221.40699768066406,-61.74100112915039 -219.26100158691406,-0.9639999866485596z"></path></g><g opacity="1" transform="matrix(1,0,0,1,490.0260009765625,325.4599914550781)"><path fill="#C75F00" fill-opacity="1" d=" M-35.14099884033203,-12.095000267028809 C-42.19599914550781,-9.99899959564209 -55.520999908447266,-8.664999961853027 -60.573001861572266,-18.64900016784668 C-68.97100067138672,-35.24300003051758 -48.37200164794922,-44.67900085449219 -35.770999908447266,-45.6609992980957 C-18.141000747680664,-47.03499984741211 3.494999885559082,-44.9739990234375 37.54499816894531,-13.980999946594238 C76.68000030517578,21.641000747680664 49.03499984741211,47.034000396728516 28.94300079345703,46.744998931884766 C14.847000122070312,46.54199981689453 2.825000047683716,40.803001403808594 3.8410000801086426,28.104000091552734 C4.896999835968018,14.895000457763672 -5.061999797821045,24.298999786376953 -13.204000473022461,30.604000091552734 C-20.701000213623047,36.40999984741211 -28.132999420166016,46.18199920654297 -41.895999908447266,38.60900115966797 C-53.96799850463867,31.968000411987305 -64.36900329589844,22.141000747680664 -68.9800033569336,12.708000183105469 C-76.68000030517578,-3.0439999103546143 -40.58000183105469,-2.48799991607666 -29.4689998626709,-5.783999919891357 C-21.562000274658203,-8.130000114440918 -26.53499984741211,-14.651000022888184 -35.14099884033203,-12.095000267028809z"></path></g><g opacity="1" transform="matrix(1,0,0,1,332.0639953613281,265.1990051269531)"><path fill="#FF8100" fill-opacity="1" d=" M-21.711999893188477,-17.92099952697754 C12.52400016784668,-29.43400001525879 11.479999542236328,-26.87299919128418 21.232999801635742,-17.92099952697754 C30.98699951171875,-8.968999862670898 39.11399841308594,9.520999908447266 38.9109992980957,16.226999282836914 C38.70800018310547,22.93199920654297 31.865999221801758,24.416000366210938 18.658000946044922,26.04199981689453 C5.451000213623047,27.667999267578125 -9.449000358581543,29.43400001525879 -19.608999252319336,26.183000564575195 C-29.76799964904785,22.93199920654297 -33.832000732421875,5.456999778747559 -36.4739990234375,-1.8580000400543213 C-39.1150016784668,-9.17300033569336 -33.77199935913086,-13.864999771118164 -21.711999893188477,-17.92099952697754z"></path></g><g opacity="1" transform="matrix(1,0,0,1,264.2909851074219,353.9289855957031)"><path fill="#C75F00" fill-opacity="1" d=" M59.433998107910156,3.124000072479248 C44.85300064086914,-6.5970001220703125 10.524999618530273,7.681000232696533 9.3100004196167,0.0860000029206276 C8.095000267028809,-7.507999897003174 19.94300079345703,-6.293000221252441 36.042999267578125,-9.027000427246094 C52.143001556396484,-11.76099967956543 54.27000045776367,-38.189998626708984 24.195999145507812,-40.316001892089844 C-2.3440001010894775,-42.19300079345703 -46.2869987487793,-17.670000076293945 -70.52799987792969,10.657999992370605 C-46.321998596191406,23.908000946044922 -9.581999778747559,35.50899887084961 37.36800003051758,42.19300079345703 C52.597999572753906,30.889999389648438 70.52799987792969,10.520000457763672 59.433998107910156,3.124000072479248z"></path></g></g></g></svg>