<svg xmlns:xlink="http://www.w3.org/1999/xlink" xmlns="http://www.w3.org/2000/svg" viewBox="0 0 760 760" width="760" height="760" preserveAspectRatio="xMidYMid meet" style="width: 100%; height: 100%; transform: translate3d(0px, 0px, 0px);"><defs><clipPath id="__lottie_element_69"><rect width="760" height="760" x="0" y="0"></rect></clipPath></defs><g clip-path="url(#__lottie_element_69)"><g transform="matrix(1,0,0,1,141.15899658203125,220.70498657226562)" opacity="1" style="display: block;"><g opacity="1" transform="matrix(1,0,0,1,71.65799713134766,53.10599899291992)"><path fill="#D5D5D5" fill-opacity="1" d=" M71.40899658203125,-48.69900131225586 C71.40899658203125,-48.69900131225586 38.16899871826172,-39.3129997253418 19.722000122070312,-34.01100158691406 C1.274999976158142,-28.708999633789062 -8.687999725341797,-20.579999923706055 -26.766000747680664,-4.673999786376953 C-44.845001220703125,11.232000350952148 -53.70000076293945,20.42300033569336 -62.55400085449219,30.67300033569336 C-71.40899658203125,40.92300033569336 -69.56400299072266,48.69900131225586 -50.0099983215332,45.87200164794922 C-30.45599937438965,43.04399871826172 -3.5230000019073486,40.92300033569336 -3.5230000019073486,40.92300033569336 C-3.5230000019073486,40.92300033569336 71.40899658203125,-48.69900131225586 71.40899658203125,-48.69900131225586z"></path></g><g opacity="1" transform="matrix(1,0,0,1,421.7300109863281,62.268001556396484)"><path fill="#D5D5D5" fill-opacity="1" d=" M0.5199999809265137,41.987998962402344 C0.5199999809265137,41.987998962402344 12.550000190734863,44.72200012207031 38.17900085449219,50.2140007019043 C63.50899887084961,55.641998291015625 47.20199966430664,33.641998291015625 41.31700134277344,21.707000732421875 C34.707000732421875,8.300999641418457 23.66900062561035,-7.1620001792907715 13.111000061035156,-21.96500015258789 C7.026000022888184,-30.496999740600586 -52.018001556396484,-54.6349983215332 -63.50899887084961,-55.64099884033203 C-63.50899887084961,-55.64099884033203 0.5199999809265137,41.987998962402344 0.5199999809265137,41.987998962402344z"></path></g><g opacity="1" transform="matrix(1,0,0,1,240.98899841308594,248.9080047607422)"><path fill="#D5D5D5" fill-opacity="1" d=" M-182.781005859375,-153.7050018310547 C-182.781005859375,-153.7050018310547 -142.89599609375,66.13700103759766 -136.80499267578125,104.4209976196289 C-130.71499633789062,142.70399475097656 -115.0530014038086,153.52699279785156 -88.08100128173828,153.52699279785156 C-61.10900115966797,153.52699279785156 50.62900161743164,153.70599365234375 94.13300323486328,153.70599365234375 C137.63699340820312,153.70599365234375 137.90499877929688,115.39299774169922 141.9510040283203,92.78099822998047 C147.26699829101562,63.08100128173828 182.781005859375,-153.7050018310547 182.781005859375,-153.7050018310547 C182.781005859375,-153.7050018310547 -182.781005859375,-153.7050018310547 -182.781005859375,-153.7050018310547z"></path></g><g opacity="1" transform="matrix(1,0,0,1,239.1219940185547,255.23399353027344)"><path fill="#FF0000" fill-opacity="1" d=" M-45.61199951171875,-92.2020034790039 C-46.895999908447266,-92.27200317382812 -48.104000091552734,-91.60399627685547 -48.7239990234375,-90.47699737548828 C-52.44300079345703,-83.71199798583984 -65.71600341796875,-59.78099822998047 -76.0530014038086,-43.80799865722656 C-84.03500366210938,-31.475000381469727 -66.16400146484375,-26.7549991607666 -54.78499984741211,-25.035999298095703 C-51.821998596191406,-24.58799934387207 -50.887001037597656,-20.7810001373291 -53.3120002746582,-19.020000457763672 C-62.57400131225586,-12.29800033569336 -78.58599853515625,-0.9449999928474426 -84.6989974975586,4.2210001945495605 C-91.68699645996094,10.128000259399414 -92.4520034790039,20.264999389648438 -72.15599822998047,26.30500030517578 C-70.06400299072266,26.927000045776367 -68.34300231933594,27.73200035095215 -66.83499908447266,28.339000701904297 C-61.959999084472656,30.29800033569336 -58.803001403808594,35.064998626708984 -58.87300109863281,40.31800079345703 C-58.87300109863281,40.31800079345703 -59.12900161743164,59.5620002746582 -59.12900161743164,59.5620002746582 C-59.198001861572266,64.72799682617188 -56.13999938964844,69.4229965209961 -51.387001037597656,71.4489974975586 C-51.387001037597656,71.4489974975586 -5.841000080108643,90.86199951171875 -5.841000080108643,90.86199951171875 C-2.5339999198913574,92.27200317382812 1.215000033378601,92.21900177001953 4.480999946594238,90.71600341796875 C4.480999946594238,90.71600341796875 53.05799865722656,68.35399627685547 53.05799865722656,68.35399627685547 C57.262001037597656,66.41899871826172 60.08599853515625,62.356998443603516 60.433998107910156,57.742000579833984 C60.433998107910156,57.742000579833984 61.042999267578125,49.66899871826172 61.042999267578125,49.66899871826172 C61.474998474121094,43.94300079345703 65.82499694824219,39.79100036621094 71.31999969482422,38.12200164794922 C76.03199768066406,36.691001892089844 90.69300079345703,31.274999618530273 91.22599792480469,25.94499969482422 C92.4520034790039,13.682999610900879 86.1989974975586,10.734000205993652 57.152000427246094,-13.670999526977539 C54.73500061035156,-15.70199966430664 56.207000732421875,-19.64699935913086 59.36399841308594,-19.57900047302246 C66.51599884033203,-19.423999786376953 75.2750015258789,-20.524999618530273 79.56199645996094,-26.03700065612793 C85.93499755859375,-34.231998443603516 56.05799865722656,-73.06800079345703 50.064998626708984,-85.27300262451172 C49.53200149536133,-86.35800170898438 48.465999603271484,-87.0790023803711 47.25899887084961,-87.1449966430664 C47.25899887084961,-87.1449966430664 -45.61199951171875,-92.2020034790039 -45.61199951171875,-92.2020034790039z"></path></g><g opacity="1" transform="matrix(1,0,0,1,240.22900390625,138.36599731445312)"><path fill="#FFFFFF" fill-opacity="1" d=" M-182.02099609375,-43.16299819946289 C-182.02099609375,-43.16299819946289 -157.69400024414062,1.0099999904632568 -148.33299255371094,16.506000518798828 C-140.41600036621094,29.61199951171875 -138.46299743652344,41.6510009765625 -93.34500122070312,42.17599868774414 C-8.545999526977539,43.16299819946289 73.16300201416016,42.92399978637695 96.10600280761719,42.92399978637695 C119.05000305175781,42.92399978637695 126.14099884033203,38.78799819946289 144.49600219726562,18.764999389648438 C162.85000610351562,-1.2580000162124634 182.02099609375,-34.11000061035156 182.02099609375,-34.11000061035156 C182.02099609375,-34.11000061035156 -182.02099609375,-43.16299819946289 -182.02099609375,-43.16299819946289z"></path></g><g opacity="1" transform="matrix(1,0,0,1,241.4669952392578,56.45100021362305)"><path fill="#404040" fill-opacity="1" d=" M-110.73999786376953,-46.16600036621094 C-138.68099975585938,-22.969999313354492 -168.32400512695312,13.456999778747559 -180.30099487304688,29.325000762939453 C-192.7259979248047,45.7859992980957 -168.5850067138672,47.48500061035156 -130.0679931640625,48.77000045776367 C-91.55000305175781,50.05400085449219 152.4080047607422,56.20100021362305 171.26199340820312,53.80699920654297 C192.7270050048828,51.08100128173828 175.6320037841797,28.033000946044922 156.86399841308594,-1.8550000190734863 C141.48800659179688,-26.339000701904297 133.093994140625,-49.19599914550781 112.31700134277344,-50.51900100708008 C93.86799621582031,-51.694000244140625 -8.708000183105469,-52.46500015258789 -34.132999420166016,-52.659000396728516 C-84.04299926757812,-53.040000915527344 -98.6520004272461,-56.20100021362305 -110.73999786376953,-46.16600036621094z"></path></g><g opacity="1" transform="matrix(1,0,0,1,238.55299377441406,66.02300262451172)"><path fill="#FFB809" fill-opacity="1" d=" M139.11300659179688,3.8259999752044678 C125.30400085449219,-2.117000102996826 135.16900634765625,-13.809000015258789 116.0270004272461,-28.677000045776367 C93.23200225830078,-46.38199996948242 62.47200012207031,-27.172000885009766 31.055999755859375,-35.11199951171875 C-0.35899999737739563,-43.051998138427734 -8.300000190734863,-41.672000885009766 -37.64400100708008,-37.52899932861328 C-66.98799896240234,-33.38600158691406 -70.09600067138672,-46.505001068115234 -96.6780014038086,-37.52899932861328 C-123.26100158691406,-28.55299949645996 -115.66600036621094,-8.529000282287598 -140.86700439453125,1.4830000400543213 C-160.968994140625,9.468999862670898 -162.1820068359375,21.84600067138672 -167.66400146484375,36.729000091552734 C-158.83999633789062,37.78099822998047 -147.5989990234375,38.257999420166016 -134.75599670410156,38.68600082397461 C-96.23799896240234,39.970001220703125 146.3990020751953,46.505001068115234 165.2530059814453,44.111000061035156 C166.07699584960938,44.00600051879883 166.94700622558594,43.91699981689453 167.66400146484375,43.75299835205078 C164.8280029296875,22.347000122070312 151.9530029296875,9.35200023651123 139.11300659179688,3.8259999752044678z"></path></g></g><g transform="matrix(1,0,0,1,276.1829833984375,284.5009765625)" opacity="1" style="display: block;"><g opacity="1" transform="matrix(1,0,0,1,25.291000366210938,16.91900062561035)"><path fill="#C75F00" fill-opacity="1" d=" M-2.3510000705718994,-11.116999626159668 C15.51200008392334,-16.670000076293945 22.69300079345703,-14.699000358581543 23.81599998474121,-8.781999588012695 C25.041000366210938,-2.3289999961853027 15.784000396728516,4.302000045776367 4.077000141143799,8.423999786376953 C-7.929999828338623,12.652999877929688 -23.729000091552734,16.670000076293945 -24.374000549316406,7.170000076293945 C-25.041000366210938,-2.6489999294281006 -10.375,-8.623000144958496 -2.3510000705718994,-11.116999626159668z"></path></g></g><g transform="matrix(1,0,0,1,434.7120056152344,258.583984375)" opacity="1" style="display: block;"><g opacity="1" transform="matrix(1,0,0,1,27.881000518798828,17.608999252319336)"><path fill="#C75F00" fill-opacity="1" d=" M-7.004000186920166,7.875 C-23.7810001373291,-0.39899998903274536 -27.631000518798828,-6.771999835968018 -24.371000289916992,-11.836999893188477 C-20.81599998474121,-17.358999252319336 -9.536999702453613,-15.793999671936035 1.7910000085830688,-10.720999717712402 C13.40999984741211,-5.519000053405762 27.631999969482422,2.447999954223633 21.558000564575195,9.781000137329102 C15.279000282287598,17.360000610351562 0.5320000052452087,11.592000007629395 -7.004000186920166,7.875z"></path></g></g></g></svg>